%TF.GenerationSoftware,KiCad,Pcbnew,9.0.6*%
%TF.CreationDate,2025-12-07T15:06:26-05:00*%
%TF.ProjectId,P1012202501-ESP32_Stepper_Controller,50313031-3232-4303-9235-30312d455350,rev?*%
%TF.SameCoordinates,Original*%
%TF.FileFunction,Soldermask,Bot*%
%TF.FilePolarity,Negative*%
%FSLAX46Y46*%
G04 Gerber Fmt 4.6, Leading zero omitted, Abs format (unit mm)*
G04 Created by KiCad (PCBNEW 9.0.6) date 2025-12-07 15:06:26*
%MOMM*%
%LPD*%
G01*
G04 APERTURE LIST*
G04 Aperture macros list*
%AMRoundRect*
0 Rectangle with rounded corners*
0 $1 Rounding radius*
0 $2 $3 $4 $5 $6 $7 $8 $9 X,Y pos of 4 corners*
0 Add a 4 corners polygon primitive as box body*
4,1,4,$2,$3,$4,$5,$6,$7,$8,$9,$2,$3,0*
0 Add four circle primitives for the rounded corners*
1,1,$1+$1,$2,$3*
1,1,$1+$1,$4,$5*
1,1,$1+$1,$6,$7*
1,1,$1+$1,$8,$9*
0 Add four rect primitives between the rounded corners*
20,1,$1+$1,$2,$3,$4,$5,0*
20,1,$1+$1,$4,$5,$6,$7,0*
20,1,$1+$1,$6,$7,$8,$9,0*
20,1,$1+$1,$8,$9,$2,$3,0*%
G04 Aperture macros list end*
%ADD10RoundRect,0.102000X1.275000X-1.275000X1.275000X1.275000X-1.275000X1.275000X-1.275000X-1.275000X0*%
%ADD11C,2.754000*%
%ADD12R,1.530000X1.530000*%
%ADD13C,1.530000*%
%ADD14C,2.400000*%
%ADD15C,0.650000*%
%ADD16O,2.304000X1.204000*%
%ADD17O,2.004000X1.204000*%
%ADD18RoundRect,0.102000X-1.275000X1.275000X-1.275000X-1.275000X1.275000X-1.275000X1.275000X1.275000X0*%
%ADD19C,8.000000*%
%ADD20R,1.725000X1.725000*%
%ADD21C,1.725000*%
%ADD22R,0.650000X0.900000*%
%ADD23R,0.900000X0.650000*%
%ADD24R,1.250000X0.600000*%
%ADD25R,1.100000X2.700000*%
%ADD26R,1.500000X0.650000*%
%ADD27R,0.970000X1.470000*%
%ADD28RoundRect,0.102000X0.575000X-0.575000X0.575000X0.575000X-0.575000X0.575000X-0.575000X-0.575000X0*%
%ADD29C,2.500000*%
%ADD30R,0.940000X0.830000*%
%ADD31R,0.400000X1.050000*%
%ADD32R,0.600000X1.250000*%
%ADD33R,0.830000X0.940000*%
%ADD34RoundRect,0.102000X0.575000X0.575000X-0.575000X0.575000X-0.575000X-0.575000X0.575000X-0.575000X0*%
G04 APERTURE END LIST*
D10*
%TO.C,CN7*%
X180500000Y-80500000D03*
D11*
X180500000Y-75500000D03*
X180500000Y-70500000D03*
X180500000Y-65500000D03*
%TD*%
D12*
%TO.C,J2*%
X91000000Y-102000000D03*
D13*
X93540000Y-102000000D03*
%TD*%
D14*
%TO.C,TP13*%
X112000000Y-93500000D03*
%TD*%
%TO.C,TP4*%
X159000000Y-96500000D03*
%TD*%
%TO.C,TP23*%
X176000000Y-128000000D03*
%TD*%
%TO.C,TP19*%
X157000000Y-105500000D03*
%TD*%
D15*
%TO.C,CN5*%
X184320000Y-122390000D03*
X184320000Y-116610000D03*
D16*
X183820000Y-123820000D03*
X183820000Y-115180000D03*
D17*
X188000000Y-123820000D03*
X188000000Y-115180000D03*
%TD*%
D14*
%TO.C,TP20*%
X157000000Y-120500000D03*
%TD*%
D18*
%TO.C,CN3*%
X81500000Y-87000000D03*
D11*
X81500000Y-92000000D03*
X81500000Y-97000000D03*
X81500000Y-102000000D03*
%TD*%
D14*
%TO.C,TP7*%
X154000000Y-96500000D03*
%TD*%
%TO.C,TP3*%
X131000000Y-74000000D03*
%TD*%
D19*
%TO.C,MH2*%
X76050000Y-55550000D03*
%TD*%
%TO.C,MH4*%
X186050000Y-55550000D03*
%TD*%
D14*
%TO.C,TP21*%
X157000000Y-110500000D03*
%TD*%
%TO.C,TP10*%
X103000000Y-93500000D03*
%TD*%
%TO.C,TP18*%
X157000000Y-115500000D03*
%TD*%
%TO.C,TP12*%
X103000000Y-103500000D03*
%TD*%
D19*
%TO.C,MH1*%
X76050000Y-130550000D03*
%TD*%
D14*
%TO.C,TP1*%
X131000000Y-65500000D03*
%TD*%
D10*
%TO.C,CN2*%
X180500000Y-108500000D03*
D11*
X180500000Y-103500000D03*
X180500000Y-98500000D03*
%TD*%
D14*
%TO.C,TP6*%
X169000000Y-96500000D03*
%TD*%
%TO.C,TP24*%
X166000000Y-128000000D03*
%TD*%
%TO.C,TP15*%
X103000000Y-115500000D03*
%TD*%
%TO.C,TP5*%
X164000000Y-96500000D03*
%TD*%
D19*
%TO.C,MH3*%
X186050000Y-130550000D03*
%TD*%
D14*
%TO.C,TP22*%
X171000000Y-128000000D03*
%TD*%
D12*
%TO.C,J1*%
X185000000Y-92500000D03*
D13*
X187540000Y-92500000D03*
%TD*%
D14*
%TO.C,TP14*%
X103000000Y-110500000D03*
%TD*%
D18*
%TO.C,CN4*%
X81500000Y-107500000D03*
D11*
X81500000Y-112500000D03*
X81500000Y-117500000D03*
X81500000Y-122500000D03*
%TD*%
D14*
%TO.C,TP2*%
X131000000Y-82500000D03*
%TD*%
D20*
%TO.C,J4*%
X123000000Y-105500000D03*
D21*
X123000000Y-108040000D03*
X123000000Y-110580000D03*
X123000000Y-113120000D03*
X123000000Y-115660000D03*
X123000000Y-118200000D03*
%TD*%
D14*
%TO.C,TP16*%
X103000000Y-120500000D03*
%TD*%
%TO.C,TP25*%
X161000000Y-128000000D03*
%TD*%
D12*
%TO.C,J3*%
X91000000Y-124000000D03*
D13*
X93540000Y-124000000D03*
%TD*%
D14*
%TO.C,TP17*%
X112000000Y-110500000D03*
%TD*%
D18*
%TO.C,CN1*%
X81500000Y-68500000D03*
D11*
X81500000Y-73500000D03*
%TD*%
D14*
%TO.C,TP11*%
X103000000Y-98500000D03*
%TD*%
D22*
%TO.C,R4*%
X127275000Y-124500000D03*
X128725000Y-124500000D03*
%TD*%
D23*
%TO.C,R19*%
X173500000Y-116225000D03*
X173500000Y-114775000D03*
%TD*%
%TO.C,R20*%
X151500000Y-113775000D03*
X151500000Y-115225000D03*
%TD*%
D24*
%TO.C,D4*%
X185000000Y-106450000D03*
X185000000Y-104550000D03*
X187000000Y-105500000D03*
%TD*%
D25*
%TO.C,R7*%
X77500000Y-92000000D03*
X74500000Y-92000000D03*
%TD*%
D26*
%TO.C,IC4*%
X166300000Y-107405000D03*
X166300000Y-106135000D03*
X166300000Y-104865000D03*
X166300000Y-103595000D03*
X171700000Y-103595000D03*
X171700000Y-104865000D03*
X171700000Y-106135000D03*
X171700000Y-107405000D03*
%TD*%
D22*
%TO.C,R18*%
X181225000Y-117500000D03*
X179775000Y-117500000D03*
%TD*%
D23*
%TO.C,R30*%
X137500000Y-120775000D03*
X137500000Y-122225000D03*
%TD*%
D25*
%TO.C,R12*%
X77500000Y-107500000D03*
X74500000Y-107500000D03*
%TD*%
D27*
%TO.C,C16*%
X171670000Y-111500000D03*
X173330000Y-111500000D03*
%TD*%
%TO.C,C17*%
X171670000Y-109500000D03*
X173330000Y-109500000D03*
%TD*%
D28*
%TO.C,R5*%
X185000000Y-100675000D03*
X185000000Y-98325000D03*
%TD*%
D22*
%TO.C,R22*%
X169275000Y-117500000D03*
X170725000Y-117500000D03*
%TD*%
%TO.C,R11*%
X92725000Y-97500000D03*
X91275000Y-97500000D03*
%TD*%
D29*
%TO.C,FID5*%
X179000000Y-132500000D03*
%TD*%
D22*
%TO.C,R15*%
X92725000Y-108000000D03*
X91275000Y-108000000D03*
%TD*%
%TO.C,R17*%
X92725000Y-119500000D03*
X91275000Y-119500000D03*
%TD*%
%TO.C,R24*%
X133725000Y-111000000D03*
X132275000Y-111000000D03*
%TD*%
D25*
%TO.C,R8*%
X77500000Y-97000000D03*
X74500000Y-97000000D03*
%TD*%
D22*
%TO.C,R9*%
X92725000Y-87000000D03*
X91275000Y-87000000D03*
%TD*%
D23*
%TO.C,R21*%
X145500000Y-113775000D03*
X145500000Y-115225000D03*
%TD*%
D30*
%TO.C,C19*%
X175000000Y-116160000D03*
X175000000Y-114840000D03*
%TD*%
D31*
%TO.C,Q7*%
X147850000Y-113550000D03*
X148500000Y-113550000D03*
X149150000Y-113550000D03*
X149150000Y-115450000D03*
X148500000Y-115450000D03*
X147850000Y-115450000D03*
%TD*%
D32*
%TO.C,D6*%
X187050000Y-118500000D03*
X188950000Y-118500000D03*
X188000000Y-120500000D03*
%TD*%
D23*
%TO.C,R23*%
X132500000Y-102775000D03*
X132500000Y-104225000D03*
%TD*%
D24*
%TO.C,D8*%
X117000000Y-115450000D03*
X117000000Y-113550000D03*
X119000000Y-114500000D03*
%TD*%
D29*
%TO.C,FID6*%
X83000000Y-54500000D03*
%TD*%
D32*
%TO.C,D5*%
X178550000Y-123500000D03*
X180450000Y-123500000D03*
X179500000Y-125500000D03*
%TD*%
D33*
%TO.C,C15*%
X171840000Y-113250000D03*
X173160000Y-113250000D03*
%TD*%
D34*
%TO.C,R27*%
X172175000Y-72500000D03*
X169825000Y-72500000D03*
%TD*%
D25*
%TO.C,R6*%
X77500000Y-87000000D03*
X74500000Y-87000000D03*
%TD*%
%TO.C,R13*%
X77500000Y-112500000D03*
X74500000Y-112500000D03*
%TD*%
D34*
%TO.C,R26*%
X172175000Y-74500000D03*
X169825000Y-74500000D03*
%TD*%
D22*
%TO.C,R10*%
X92725000Y-92500000D03*
X91275000Y-92500000D03*
%TD*%
D29*
%TO.C,FID4*%
X83000000Y-133000000D03*
%TD*%
D30*
%TO.C,C18*%
X176500000Y-116160000D03*
X176500000Y-114840000D03*
%TD*%
D25*
%TO.C,R14*%
X77500000Y-117500000D03*
X74500000Y-117500000D03*
%TD*%
D22*
%TO.C,R16*%
X92725000Y-113500000D03*
X91275000Y-113500000D03*
%TD*%
M02*
