%TF.GenerationSoftware,KiCad,Pcbnew,9.0.6*%
%TF.CreationDate,2025-12-07T15:06:26-05:00*%
%TF.ProjectId,P1012202501-ESP32_Stepper_Controller,50313031-3232-4303-9235-30312d455350,rev?*%
%TF.SameCoordinates,Original*%
%TF.FileFunction,Soldermask,Top*%
%TF.FilePolarity,Negative*%
%FSLAX46Y46*%
G04 Gerber Fmt 4.6, Leading zero omitted, Abs format (unit mm)*
G04 Created by KiCad (PCBNEW 9.0.6) date 2025-12-07 15:06:26*
%MOMM*%
%LPD*%
G01*
G04 APERTURE LIST*
G04 Aperture macros list*
%AMRoundRect*
0 Rectangle with rounded corners*
0 $1 Rounding radius*
0 $2 $3 $4 $5 $6 $7 $8 $9 X,Y pos of 4 corners*
0 Add a 4 corners polygon primitive as box body*
4,1,4,$2,$3,$4,$5,$6,$7,$8,$9,$2,$3,0*
0 Add four circle primitives for the rounded corners*
1,1,$1+$1,$2,$3*
1,1,$1+$1,$4,$5*
1,1,$1+$1,$6,$7*
1,1,$1+$1,$8,$9*
0 Add four rect primitives between the rounded corners*
20,1,$1+$1,$2,$3,$4,$5,0*
20,1,$1+$1,$4,$5,$6,$7,0*
20,1,$1+$1,$6,$7,$8,$9,0*
20,1,$1+$1,$8,$9,$2,$3,0*%
G04 Aperture macros list end*
%ADD10C,0.010000*%
%ADD11R,1.650000X0.650000*%
%ADD12RoundRect,0.102000X1.275000X-1.275000X1.275000X1.275000X-1.275000X1.275000X-1.275000X-1.275000X0*%
%ADD13C,2.754000*%
%ADD14R,1.530000X1.530000*%
%ADD15C,1.530000*%
%ADD16C,2.400000*%
%ADD17R,2.200000X1.550000*%
%ADD18R,1.000000X0.700000*%
%ADD19R,1.250000X2.200000*%
%ADD20R,0.650000X0.900000*%
%ADD21R,0.830000X0.940000*%
%ADD22R,4.100000X2.150000*%
%ADD23R,0.940000X0.830000*%
%ADD24R,1.200000X1.200000*%
%ADD25C,0.650000*%
%ADD26O,2.304000X1.204000*%
%ADD27O,2.004000X1.204000*%
%ADD28C,2.500000*%
%ADD29RoundRect,0.102000X-1.275000X1.275000X-1.275000X-1.275000X1.275000X-1.275000X1.275000X1.275000X0*%
%ADD30R,1.820000X1.050000*%
%ADD31C,8.000000*%
%ADD32R,2.720000X1.220000*%
%ADD33R,1.000000X0.300000*%
%ADD34R,0.300000X1.000000*%
%ADD35R,3.350000X3.350000*%
%ADD36R,0.650000X0.600000*%
%ADD37R,0.350000X0.700000*%
%ADD38R,0.900000X1.500000*%
%ADD39R,1.500000X0.900000*%
%ADD40R,0.900000X0.900000*%
%ADD41R,1.000000X3.500000*%
%ADD42R,1.600000X3.500000*%
%ADD43R,0.900000X0.650000*%
%ADD44R,1.200000X0.600000*%
%ADD45R,1.475000X0.450000*%
%ADD46R,3.100000X5.180000*%
%ADD47R,1.250000X0.600000*%
%ADD48R,1.725000X1.725000*%
%ADD49C,1.725000*%
G04 APERTURE END LIST*
D10*
%TO.C,CN5*%
X183870000Y-116650000D02*
X182620000Y-116650000D01*
X182620000Y-115950000D01*
X183870000Y-115950000D01*
X183870000Y-116650000D01*
G36*
X183870000Y-116650000D02*
G01*
X182620000Y-116650000D01*
X182620000Y-115950000D01*
X183870000Y-115950000D01*
X183870000Y-116650000D01*
G37*
X183870000Y-117450000D02*
X182620000Y-117450000D01*
X182620000Y-116750000D01*
X183870000Y-116750000D01*
X183870000Y-117450000D01*
G36*
X183870000Y-117450000D02*
G01*
X182620000Y-117450000D01*
X182620000Y-116750000D01*
X183870000Y-116750000D01*
X183870000Y-117450000D01*
G37*
X183870000Y-117950000D02*
X182620000Y-117950000D01*
X182620000Y-117550000D01*
X183870000Y-117550000D01*
X183870000Y-117950000D01*
G36*
X183870000Y-117950000D02*
G01*
X182620000Y-117950000D01*
X182620000Y-117550000D01*
X183870000Y-117550000D01*
X183870000Y-117950000D01*
G37*
X183870000Y-118450000D02*
X182620000Y-118450000D01*
X182620000Y-118050000D01*
X183870000Y-118050000D01*
X183870000Y-118450000D01*
G36*
X183870000Y-118450000D02*
G01*
X182620000Y-118450000D01*
X182620000Y-118050000D01*
X183870000Y-118050000D01*
X183870000Y-118450000D01*
G37*
X183870000Y-118950000D02*
X182620000Y-118950000D01*
X182620000Y-118550000D01*
X183870000Y-118550000D01*
X183870000Y-118950000D01*
G36*
X183870000Y-118950000D02*
G01*
X182620000Y-118950000D01*
X182620000Y-118550000D01*
X183870000Y-118550000D01*
X183870000Y-118950000D01*
G37*
X183870000Y-119450000D02*
X182620000Y-119450000D01*
X182620000Y-119050000D01*
X183870000Y-119050000D01*
X183870000Y-119450000D01*
G36*
X183870000Y-119450000D02*
G01*
X182620000Y-119450000D01*
X182620000Y-119050000D01*
X183870000Y-119050000D01*
X183870000Y-119450000D01*
G37*
X183870000Y-119950000D02*
X182620000Y-119950000D01*
X182620000Y-119550000D01*
X183870000Y-119550000D01*
X183870000Y-119950000D01*
G36*
X183870000Y-119950000D02*
G01*
X182620000Y-119950000D01*
X182620000Y-119550000D01*
X183870000Y-119550000D01*
X183870000Y-119950000D01*
G37*
X183870000Y-120450000D02*
X182620000Y-120450000D01*
X182620000Y-120050000D01*
X183870000Y-120050000D01*
X183870000Y-120450000D01*
G36*
X183870000Y-120450000D02*
G01*
X182620000Y-120450000D01*
X182620000Y-120050000D01*
X183870000Y-120050000D01*
X183870000Y-120450000D01*
G37*
X183870000Y-120950000D02*
X182620000Y-120950000D01*
X182620000Y-120550000D01*
X183870000Y-120550000D01*
X183870000Y-120950000D01*
G36*
X183870000Y-120950000D02*
G01*
X182620000Y-120950000D01*
X182620000Y-120550000D01*
X183870000Y-120550000D01*
X183870000Y-120950000D01*
G37*
X183870000Y-121450000D02*
X182620000Y-121450000D01*
X182620000Y-121050000D01*
X183870000Y-121050000D01*
X183870000Y-121450000D01*
G36*
X183870000Y-121450000D02*
G01*
X182620000Y-121450000D01*
X182620000Y-121050000D01*
X183870000Y-121050000D01*
X183870000Y-121450000D01*
G37*
X183870000Y-122250000D02*
X182620000Y-122250000D01*
X182620000Y-121550000D01*
X183870000Y-121550000D01*
X183870000Y-122250000D01*
G36*
X183870000Y-122250000D02*
G01*
X182620000Y-122250000D01*
X182620000Y-121550000D01*
X183870000Y-121550000D01*
X183870000Y-122250000D01*
G37*
X183870000Y-123050000D02*
X182620000Y-123050000D01*
X182620000Y-122350000D01*
X183870000Y-122350000D01*
X183870000Y-123050000D01*
G36*
X183870000Y-123050000D02*
G01*
X182620000Y-123050000D01*
X182620000Y-122350000D01*
X183870000Y-122350000D01*
X183870000Y-123050000D01*
G37*
%TD*%
D11*
%TO.C,Q5*%
X88800000Y-112865000D03*
X88800000Y-114135000D03*
X95200000Y-114135000D03*
X95200000Y-112865000D03*
%TD*%
D12*
%TO.C,CN7*%
X180500000Y-80500000D03*
D13*
X180500000Y-75500000D03*
X180500000Y-70500000D03*
X180500000Y-65500000D03*
%TD*%
D14*
%TO.C,J2*%
X91000000Y-102000000D03*
D15*
X93540000Y-102000000D03*
%TD*%
D16*
%TO.C,TP13*%
X112000000Y-93500000D03*
%TD*%
%TO.C,TP4*%
X159000000Y-96500000D03*
%TD*%
D17*
%TO.C,D3*%
X93050000Y-68500000D03*
X88950000Y-68500000D03*
%TD*%
D18*
%TO.C,IC2*%
X105901000Y-80550000D03*
X105901000Y-81500000D03*
X105901000Y-82450000D03*
X108099000Y-82450000D03*
X108099000Y-81500000D03*
X108099000Y-80550000D03*
%TD*%
D19*
%TO.C,L2*%
X110150000Y-81500000D03*
X112350000Y-81500000D03*
%TD*%
D20*
%TO.C,R28*%
X157725000Y-67500000D03*
X156275000Y-67500000D03*
%TD*%
D21*
%TO.C,C23*%
X169840000Y-67000000D03*
X171160000Y-67000000D03*
%TD*%
D22*
%TO.C,C22*%
X167250000Y-60000000D03*
X158750000Y-60000000D03*
%TD*%
D16*
%TO.C,TP23*%
X176000000Y-128000000D03*
%TD*%
D11*
%TO.C,Q2*%
X88800000Y-91865000D03*
X88800000Y-93135000D03*
X95200000Y-93135000D03*
X95200000Y-91865000D03*
%TD*%
D23*
%TO.C,C13*%
X148500000Y-103160000D03*
X148500000Y-101840000D03*
%TD*%
D24*
%TO.C,D9*%
X131950000Y-95500000D03*
X134050000Y-95500000D03*
%TD*%
%TO.C,D1*%
X115950000Y-60500000D03*
X118050000Y-60500000D03*
%TD*%
D16*
%TO.C,TP19*%
X157000000Y-105500000D03*
%TD*%
D25*
%TO.C,CN5*%
X184320000Y-122390000D03*
X184320000Y-116610000D03*
D26*
X183820000Y-123820000D03*
X183820000Y-115180000D03*
D27*
X188000000Y-123820000D03*
X188000000Y-115180000D03*
%TD*%
D23*
%TO.C,C12*%
X146500000Y-103160000D03*
X146500000Y-101840000D03*
%TD*%
D16*
%TO.C,TP20*%
X157000000Y-120500000D03*
%TD*%
D20*
%TO.C,R31*%
X140525000Y-57500000D03*
X141975000Y-57500000D03*
%TD*%
D23*
%TO.C,C26*%
X168000000Y-79160000D03*
X168000000Y-77840000D03*
%TD*%
D28*
%TO.C,FID2*%
X179000000Y-132500000D03*
%TD*%
D29*
%TO.C,CN3*%
X81500000Y-87000000D03*
D13*
X81500000Y-92000000D03*
X81500000Y-97000000D03*
X81500000Y-102000000D03*
%TD*%
D30*
%TO.C,C4*%
X103000000Y-84110000D03*
X103000000Y-86890000D03*
%TD*%
D21*
%TO.C,C5*%
X108340000Y-63250000D03*
X109660000Y-63250000D03*
%TD*%
D16*
%TO.C,TP7*%
X154000000Y-96500000D03*
%TD*%
%TO.C,TP3*%
X131000000Y-74000000D03*
%TD*%
D31*
%TO.C,MH2*%
X76050000Y-55550000D03*
%TD*%
D20*
%TO.C,R29*%
X154225000Y-67500000D03*
X152775000Y-67500000D03*
%TD*%
D31*
%TO.C,MH4*%
X186050000Y-55550000D03*
%TD*%
D16*
%TO.C,TP21*%
X157000000Y-110500000D03*
%TD*%
D32*
%TO.C,C8*%
X115000000Y-82150000D03*
X115000000Y-84850000D03*
%TD*%
D16*
%TO.C,TP10*%
X103000000Y-93500000D03*
%TD*%
%TO.C,TP18*%
X157000000Y-115500000D03*
%TD*%
D33*
%TO.C,IC5*%
X177350000Y-121500000D03*
X177350000Y-121000000D03*
X177350000Y-120500000D03*
X177350000Y-120000000D03*
X177350000Y-119500000D03*
X177350000Y-119000000D03*
X177350000Y-118500000D03*
D34*
X176500000Y-117650000D03*
X176000000Y-117650000D03*
X175500000Y-117650000D03*
X175000000Y-117650000D03*
X174500000Y-117650000D03*
X174000000Y-117650000D03*
X173500000Y-117650000D03*
D33*
X172650000Y-118500000D03*
X172650000Y-119000000D03*
X172650000Y-119500000D03*
X172650000Y-120000000D03*
X172650000Y-120500000D03*
X172650000Y-121000000D03*
X172650000Y-121500000D03*
D34*
X173500000Y-122350000D03*
X174000000Y-122350000D03*
X174500000Y-122350000D03*
X175000000Y-122350000D03*
X175500000Y-122350000D03*
X176000000Y-122350000D03*
X176500000Y-122350000D03*
D35*
X175000000Y-120000000D03*
%TD*%
D28*
%TO.C,FID3*%
X83000000Y-54500000D03*
%TD*%
D32*
%TO.C,C7*%
X119000000Y-67150000D03*
X119000000Y-69850000D03*
%TD*%
D16*
%TO.C,TP12*%
X103000000Y-103500000D03*
%TD*%
D31*
%TO.C,MH1*%
X76050000Y-130550000D03*
%TD*%
D16*
%TO.C,TP1*%
X131000000Y-65500000D03*
%TD*%
D36*
%TO.C,S2*%
X152575000Y-132350000D03*
X149425000Y-132350000D03*
X152575000Y-130650000D03*
X149425000Y-130650000D03*
D37*
X152725000Y-131500000D03*
X149275000Y-131500000D03*
%TD*%
D30*
%TO.C,C3*%
X103000000Y-69110000D03*
X103000000Y-71890000D03*
%TD*%
D23*
%TO.C,C20*%
X178500000Y-115160000D03*
X178500000Y-113840000D03*
%TD*%
D12*
%TO.C,CN2*%
X180500000Y-108500000D03*
D13*
X180500000Y-103500000D03*
X180500000Y-98500000D03*
%TD*%
D24*
%TO.C,D2*%
X115950000Y-75500000D03*
X118050000Y-75500000D03*
%TD*%
D23*
%TO.C,C25*%
X173000000Y-77840000D03*
X173000000Y-79160000D03*
%TD*%
D11*
%TO.C,Q3*%
X88800000Y-96865000D03*
X88800000Y-98135000D03*
X95200000Y-98135000D03*
X95200000Y-96865000D03*
%TD*%
D16*
%TO.C,TP6*%
X169000000Y-96500000D03*
%TD*%
%TO.C,TP24*%
X166000000Y-128000000D03*
%TD*%
D20*
%TO.C,R32*%
X132275000Y-98500000D03*
X133725000Y-98500000D03*
%TD*%
D38*
%TO.C,IC3*%
X147660000Y-106750000D03*
X146390000Y-106750000D03*
X145120000Y-106750000D03*
X143850000Y-106750000D03*
X142580000Y-106750000D03*
X141310000Y-106750000D03*
X140040000Y-106750000D03*
X138770000Y-106750000D03*
X137500000Y-106750000D03*
X136230000Y-106750000D03*
X134960000Y-106750000D03*
X133690000Y-106750000D03*
X132420000Y-106750000D03*
X131150000Y-106750000D03*
D39*
X129900000Y-109785000D03*
X129900000Y-111055000D03*
X129900000Y-112325000D03*
X129900000Y-113595000D03*
X129900000Y-114865000D03*
X129900000Y-116135000D03*
X129900000Y-117405000D03*
X129900000Y-118675000D03*
X129900000Y-119945000D03*
X129900000Y-121215000D03*
D38*
X131150000Y-124250000D03*
X132420000Y-124250000D03*
X133690000Y-124250000D03*
X134960000Y-124250000D03*
X136230000Y-124250000D03*
X137500000Y-124250000D03*
X138770000Y-124250000D03*
X140040000Y-124250000D03*
X141310000Y-124250000D03*
X142580000Y-124250000D03*
X143850000Y-124250000D03*
X145120000Y-124250000D03*
X146390000Y-124250000D03*
X147660000Y-124250000D03*
D40*
X140320000Y-114000000D03*
X138920000Y-114000000D03*
X138920000Y-115400000D03*
X140320000Y-115400000D03*
X141720000Y-115400000D03*
X141720000Y-114000000D03*
X141720000Y-112600000D03*
X140320000Y-112600000D03*
X138920000Y-112600000D03*
%TD*%
D28*
%TO.C,FID1*%
X83000000Y-133000000D03*
%TD*%
D41*
%TO.C,CN6*%
X140000000Y-61500000D03*
X142000000Y-61500000D03*
X144000000Y-61500000D03*
X146000000Y-61500000D03*
D42*
X148400000Y-67200000D03*
X137600000Y-67200000D03*
%TD*%
D16*
%TO.C,TP15*%
X103000000Y-115500000D03*
%TD*%
D11*
%TO.C,Q1*%
X88800000Y-86365000D03*
X88800000Y-87635000D03*
X95200000Y-87635000D03*
X95200000Y-86365000D03*
%TD*%
D23*
%TO.C,C11*%
X142000000Y-103160000D03*
X142000000Y-101840000D03*
%TD*%
D16*
%TO.C,TP5*%
X164000000Y-96500000D03*
%TD*%
D21*
%TO.C,C27*%
X159340000Y-67500000D03*
X160660000Y-67500000D03*
%TD*%
D43*
%TO.C,R3*%
X144300000Y-101775000D03*
X144300000Y-103225000D03*
%TD*%
D31*
%TO.C,MH3*%
X186050000Y-130550000D03*
%TD*%
D16*
%TO.C,TP22*%
X171000000Y-128000000D03*
%TD*%
D14*
%TO.C,J1*%
X185000000Y-92500000D03*
D15*
X187540000Y-92500000D03*
%TD*%
D32*
%TO.C,C9*%
X115000000Y-67150000D03*
X115000000Y-69850000D03*
%TD*%
D44*
%TO.C,IC7*%
X163750000Y-82550000D03*
X163750000Y-83500000D03*
X163750000Y-84450000D03*
X166250000Y-84450000D03*
X166250000Y-82550000D03*
%TD*%
D23*
%TO.C,C21*%
X180000000Y-115160000D03*
X180000000Y-113840000D03*
%TD*%
D21*
%TO.C,C29*%
X160660000Y-85000000D03*
X159340000Y-85000000D03*
%TD*%
D30*
%TO.C,C2*%
X100500000Y-84110000D03*
X100500000Y-86890000D03*
%TD*%
D16*
%TO.C,TP14*%
X103000000Y-110500000D03*
%TD*%
D23*
%TO.C,C14*%
X150500000Y-103160000D03*
X150500000Y-101840000D03*
%TD*%
D18*
%TO.C,IC1*%
X105901000Y-65550000D03*
X105901000Y-66500000D03*
X105901000Y-67450000D03*
X108099000Y-67450000D03*
X108099000Y-66500000D03*
X108099000Y-65550000D03*
%TD*%
D11*
%TO.C,Q6*%
X88800000Y-118865000D03*
X88800000Y-120135000D03*
X95200000Y-120135000D03*
X95200000Y-118865000D03*
%TD*%
D29*
%TO.C,CN4*%
X81500000Y-107500000D03*
D13*
X81500000Y-112500000D03*
X81500000Y-117500000D03*
X81500000Y-122500000D03*
%TD*%
D45*
%TO.C,IC6*%
X165938000Y-77725000D03*
X165938000Y-77075000D03*
X165938000Y-76425000D03*
X165938000Y-75775000D03*
X165938000Y-75125000D03*
X165938000Y-74475000D03*
X165938000Y-73825000D03*
X165938000Y-73175000D03*
X165938000Y-72525000D03*
X165938000Y-71875000D03*
X165938000Y-71225000D03*
X165938000Y-70575000D03*
X165938000Y-69925000D03*
X165938000Y-69275000D03*
X160062000Y-69275000D03*
X160062000Y-69925000D03*
X160062000Y-70575000D03*
X160062000Y-71225000D03*
X160062000Y-71875000D03*
X160062000Y-72525000D03*
X160062000Y-73175000D03*
X160062000Y-73825000D03*
X160062000Y-74475000D03*
X160062000Y-75125000D03*
X160062000Y-75775000D03*
X160062000Y-76425000D03*
X160062000Y-77075000D03*
X160062000Y-77725000D03*
D46*
X163000000Y-73500000D03*
%TD*%
D20*
%TO.C,R2*%
X116275000Y-78500000D03*
X117725000Y-78500000D03*
%TD*%
D32*
%TO.C,C10*%
X119000000Y-82150000D03*
X119000000Y-84850000D03*
%TD*%
D20*
%TO.C,R1*%
X116275000Y-63500000D03*
X117725000Y-63500000D03*
%TD*%
D36*
%TO.C,S1*%
X129575000Y-132350000D03*
X126425000Y-132350000D03*
X129575000Y-130650000D03*
X126425000Y-130650000D03*
D37*
X129725000Y-131500000D03*
X126275000Y-131500000D03*
%TD*%
D16*
%TO.C,TP2*%
X131000000Y-82500000D03*
%TD*%
D47*
%TO.C,D7*%
X139000000Y-130550000D03*
X139000000Y-132450000D03*
X141000000Y-131500000D03*
%TD*%
D43*
%TO.C,R25*%
X171000000Y-77775000D03*
X171000000Y-79225000D03*
%TD*%
D19*
%TO.C,L1*%
X110150000Y-66500000D03*
X112350000Y-66500000D03*
%TD*%
D30*
%TO.C,C1*%
X100500000Y-69110000D03*
X100500000Y-71890000D03*
%TD*%
D21*
%TO.C,C24*%
X169840000Y-68500000D03*
X171160000Y-68500000D03*
%TD*%
D48*
%TO.C,J4*%
X123000000Y-105500000D03*
D49*
X123000000Y-108040000D03*
X123000000Y-110580000D03*
X123000000Y-113120000D03*
X123000000Y-115660000D03*
X123000000Y-118200000D03*
%TD*%
D16*
%TO.C,TP16*%
X103000000Y-120500000D03*
%TD*%
D21*
%TO.C,C6*%
X108340000Y-78250000D03*
X109660000Y-78250000D03*
%TD*%
D11*
%TO.C,Q4*%
X88800000Y-107365000D03*
X88800000Y-108635000D03*
X95200000Y-108635000D03*
X95200000Y-107365000D03*
%TD*%
D16*
%TO.C,TP25*%
X161000000Y-128000000D03*
%TD*%
D14*
%TO.C,J3*%
X91000000Y-124000000D03*
D15*
X93540000Y-124000000D03*
%TD*%
D16*
%TO.C,TP17*%
X112000000Y-110500000D03*
%TD*%
D29*
%TO.C,CN1*%
X81500000Y-68500000D03*
D13*
X81500000Y-73500000D03*
%TD*%
D16*
%TO.C,TP11*%
X103000000Y-98500000D03*
%TD*%
D21*
%TO.C,C28*%
X160660000Y-83500000D03*
X159340000Y-83500000D03*
%TD*%
M02*
