%TF.GenerationSoftware,KiCad,Pcbnew,9.0.6*%
%TF.CreationDate,2026-02-25T18:26:58-05:00*%
%TF.ProjectId,P1012202501-ESP32_Stepper_Controller,50313031-3232-4303-9235-30312d455350,rev?*%
%TF.SameCoordinates,Original*%
%TF.FileFunction,Copper,L4,Inr*%
%TF.FilePolarity,Positive*%
%FSLAX46Y46*%
G04 Gerber Fmt 4.6, Leading zero omitted, Abs format (unit mm)*
G04 Created by KiCad (PCBNEW 9.0.6) date 2026-02-25 18:26:58*
%MOMM*%
%LPD*%
G01*
G04 APERTURE LIST*
%TA.AperFunction,ComponentPad*%
%ADD10R,2.550000X2.550000*%
%TD*%
%TA.AperFunction,ComponentPad*%
%ADD11C,2.550000*%
%TD*%
%TA.AperFunction,ComponentPad*%
%ADD12R,1.530000X1.530000*%
%TD*%
%TA.AperFunction,ComponentPad*%
%ADD13C,1.530000*%
%TD*%
%TA.AperFunction,ComponentPad*%
%ADD14C,2.400000*%
%TD*%
%TA.AperFunction,ComponentPad*%
%ADD15O,2.100000X1.000000*%
%TD*%
%TA.AperFunction,ComponentPad*%
%ADD16O,1.800000X1.000000*%
%TD*%
%TA.AperFunction,ComponentPad*%
%ADD17C,8.000000*%
%TD*%
%TA.AperFunction,ComponentPad*%
%ADD18R,1.725000X1.725000*%
%TD*%
%TA.AperFunction,ComponentPad*%
%ADD19C,1.725000*%
%TD*%
%TA.AperFunction,ViaPad*%
%ADD20C,0.559000*%
%TD*%
%TA.AperFunction,ViaPad*%
%ADD21C,0.813000*%
%TD*%
%TA.AperFunction,Conductor*%
%ADD22C,0.127000*%
%TD*%
G04 APERTURE END LIST*
D10*
%TO.N,Net-(IC6-AOUT1)*%
%TO.C,CN7*%
X182500000Y-80500000D03*
D11*
%TO.N,Net-(IC6-AOUT2)*%
X182500000Y-75500000D03*
%TO.N,Net-(IC6-BOUT2)*%
X182500000Y-70500000D03*
%TO.N,Net-(IC6-BOUT1)*%
X182500000Y-65500000D03*
%TD*%
D12*
%TO.N,/Limit Switches/LMT_C*%
%TO.C,J2*%
X91000000Y-102000000D03*
D13*
%TO.N,GND*%
X93540000Y-102000000D03*
%TD*%
D14*
%TO.N,GND*%
%TO.C,TP13*%
X112000000Y-93500000D03*
%TD*%
%TO.N,STP_MS2*%
%TO.C,TP33*%
X172000000Y-89500000D03*
%TD*%
%TO.N,STP_MS0*%
%TO.C,TP31*%
X162000000Y-89500000D03*
%TD*%
%TO.N,485_RX*%
%TO.C,TP4*%
X159000000Y-96500000D03*
%TD*%
%TO.N,STP_RESET*%
%TO.C,TP28*%
X152000000Y-82500000D03*
%TD*%
%TO.N,/USB UART/USB_D_N*%
%TO.C,TP23*%
X176000000Y-128000000D03*
%TD*%
%TO.N,/USB UART/DTR*%
%TO.C,TP19*%
X157000000Y-105500000D03*
%TD*%
D15*
%TO.N,GND*%
%TO.C,CN5*%
X183820000Y-123820000D03*
X183820000Y-115180000D03*
D16*
X188000000Y-123820000D03*
X188000000Y-115180000D03*
%TD*%
D14*
%TO.N,BOOT_MODE*%
%TO.C,TP20*%
X157000000Y-120500000D03*
%TD*%
D10*
%TO.N,Net-(CN3-Pad1)*%
%TO.C,CN3*%
X79500000Y-87000000D03*
D11*
%TO.N,Net-(CN3-Pad2)*%
X79500000Y-92000000D03*
%TO.N,Net-(CN3-Pad3)*%
X79500000Y-97000000D03*
%TO.N,/Limit Switches/LMT_C*%
X79500000Y-102000000D03*
%TD*%
D14*
%TO.N,GND*%
%TO.C,TP7*%
X154000000Y-96500000D03*
%TD*%
%TO.N,GND*%
%TO.C,TP3*%
X131000000Y-74000000D03*
%TD*%
D17*
%TO.N,unconnected-(MH2-Pad1)*%
%TO.C,MH2*%
X76050000Y-55550000D03*
%TD*%
%TO.N,unconnected-(MH4-Pad1)*%
%TO.C,MH4*%
X186050000Y-55550000D03*
%TD*%
D14*
%TO.N,ESP_EN*%
%TO.C,TP21*%
X157000000Y-110500000D03*
%TD*%
%TO.N,LIMIT_1*%
%TO.C,TP10*%
X103000000Y-93500000D03*
%TD*%
%TO.N,/USB UART/RTS*%
%TO.C,TP18*%
X157000000Y-115500000D03*
%TD*%
%TO.N,TEMP_SENSE*%
%TO.C,TP26*%
X172000000Y-83500000D03*
%TD*%
%TO.N,LIMIT_3*%
%TO.C,TP12*%
X103000000Y-103500000D03*
%TD*%
D17*
%TO.N,unconnected-(MH1-Pad1)*%
%TO.C,MH1*%
X76050000Y-130550000D03*
%TD*%
D14*
%TO.N,+3V3*%
%TO.C,TP1*%
X131000000Y-65500000D03*
%TD*%
D10*
%TO.N,Net-(IC4-B)*%
%TO.C,CN2*%
X182500000Y-108500000D03*
D11*
%TO.N,Net-(IC4-A)*%
X182500000Y-103500000D03*
%TO.N,GND*%
X182500000Y-98500000D03*
%TD*%
D14*
%TO.N,485_TX*%
%TO.C,TP6*%
X169000000Y-96500000D03*
%TD*%
%TO.N,VBUS*%
%TO.C,TP24*%
X166000000Y-128000000D03*
%TD*%
%TO.N,FAN_TACH*%
%TO.C,TP35*%
X129000000Y-58000000D03*
%TD*%
%TO.N,INPUT_2*%
%TO.C,TP15*%
X103000000Y-115500000D03*
%TD*%
%TO.N,485_DIR*%
%TO.C,TP5*%
X164000000Y-96500000D03*
%TD*%
%TO.N,FAN_PWM*%
%TO.C,TP36*%
X134000000Y-58000000D03*
%TD*%
D17*
%TO.N,unconnected-(MH3-Pad1)*%
%TO.C,MH3*%
X186050000Y-130550000D03*
%TD*%
D14*
%TO.N,/USB UART/USB_D_P*%
%TO.C,TP22*%
X171000000Y-128000000D03*
%TD*%
D12*
%TO.N,Net-(J1-Pad1)*%
%TO.C,J1*%
X185000000Y-92500000D03*
D13*
%TO.N,Net-(IC4-A)*%
X187540000Y-92500000D03*
%TD*%
D14*
%TO.N,STP_STEP*%
%TO.C,TP30*%
X152000000Y-89500000D03*
%TD*%
%TO.N,STP_MS1*%
%TO.C,TP32*%
X167000000Y-89500000D03*
%TD*%
%TO.N,INPUT_1*%
%TO.C,TP14*%
X103000000Y-110500000D03*
%TD*%
%TO.N,STP_ENABLE*%
%TO.C,TP27*%
X147000000Y-82500000D03*
%TD*%
D10*
%TO.N,Net-(CN4-Pad1)*%
%TO.C,CN4*%
X79500000Y-107500000D03*
D11*
%TO.N,Net-(CN4-Pad2)*%
X79500000Y-112500000D03*
%TO.N,Net-(CN4-Pad3)*%
X79500000Y-117500000D03*
%TO.N,/Control Inputs/INPUT_C*%
X79500000Y-122500000D03*
%TD*%
D14*
%TO.N,ESP_RX*%
%TO.C,TP8*%
X165000000Y-110500000D03*
%TD*%
%TO.N,STP_DIR*%
%TO.C,TP29*%
X147000000Y-89500000D03*
%TD*%
%TO.N,+5V*%
%TO.C,TP2*%
X131000000Y-82500000D03*
%TD*%
D18*
%TO.N,GND*%
%TO.C,J4*%
X123000000Y-105500000D03*
D19*
%TO.N,unconnected-(J4-Pad2)*%
X123000000Y-108040000D03*
%TO.N,unconnected-(J4-Pad3)*%
X123000000Y-110580000D03*
%TO.N,/ESP32/UART_RX*%
X123000000Y-113120000D03*
%TO.N,/ESP32/UART_TX*%
X123000000Y-115660000D03*
%TO.N,unconnected-(J4-Pad6)*%
X123000000Y-118200000D03*
%TD*%
D14*
%TO.N,STP_FLT*%
%TO.C,TP34*%
X157000000Y-89500000D03*
%TD*%
%TO.N,INPUT_3*%
%TO.C,TP16*%
X103000000Y-120500000D03*
%TD*%
%TO.N,GND*%
%TO.C,TP25*%
X161000000Y-128000000D03*
%TD*%
%TO.N,ESP_TX*%
%TO.C,TP9*%
X165000000Y-115500000D03*
%TD*%
D12*
%TO.N,/Control Inputs/INPUT_C*%
%TO.C,J3*%
X91000000Y-124000000D03*
D13*
%TO.N,GND*%
X93540000Y-124000000D03*
%TD*%
D14*
%TO.N,GND*%
%TO.C,TP17*%
X112000000Y-110500000D03*
%TD*%
D10*
%TO.N,Net-(D3-A)*%
%TO.C,CN1*%
X79500000Y-68500000D03*
D11*
%TO.N,GND*%
X79500000Y-73500000D03*
%TD*%
D14*
%TO.N,LIMIT_2*%
%TO.C,TP11*%
X103000000Y-98500000D03*
%TD*%
D20*
%TO.N,TEMP_SENSE*%
X138800000Y-108400000D03*
%TO.N,GND*%
X135110000Y-104500000D03*
D21*
%TO.N,+24V*%
X170100000Y-76500000D03*
X169200000Y-70800000D03*
%TO.N,GND*%
X107900000Y-72000000D03*
X140300000Y-111300000D03*
X102500000Y-80400000D03*
X163800000Y-69400000D03*
X110500000Y-89100000D03*
X147300000Y-60500000D03*
X110400000Y-72000000D03*
X163900000Y-75600000D03*
X176200000Y-121100000D03*
X100400000Y-77900000D03*
X158200000Y-83100000D03*
X112700000Y-70000000D03*
X119100000Y-90800000D03*
X143100000Y-114000000D03*
X163900000Y-71700000D03*
X103400000Y-82100000D03*
X155300000Y-58600000D03*
X172400000Y-68800000D03*
X119000000Y-87400000D03*
X173900000Y-121100000D03*
X107900000Y-70300000D03*
X119100000Y-89200000D03*
X179200000Y-112800000D03*
X112700000Y-74000000D03*
X128500000Y-109800000D03*
X147700000Y-122800000D03*
X137600000Y-114000000D03*
X100400000Y-74200000D03*
X105000000Y-85400000D03*
X112700000Y-75700000D03*
X162000000Y-71700000D03*
X189100000Y-105400000D03*
X119000000Y-72200000D03*
X149500000Y-122800000D03*
X107900000Y-74000000D03*
X110500000Y-90800000D03*
X115000000Y-72200000D03*
X155300000Y-60000000D03*
X115300000Y-113400000D03*
X163900000Y-77500000D03*
X105000000Y-87100000D03*
X100400000Y-75800000D03*
X110400000Y-70200000D03*
X101200000Y-65900000D03*
X180800000Y-125700000D03*
X179600000Y-126900000D03*
X100400000Y-80400000D03*
X147300000Y-63300000D03*
X115000000Y-89100000D03*
X176400000Y-111600000D03*
X176100000Y-118900000D03*
X137600000Y-116600000D03*
X112800000Y-87100000D03*
X117000000Y-89100000D03*
X105000000Y-89100000D03*
X117000000Y-90800000D03*
X173300000Y-103600000D03*
X186000000Y-115900000D03*
D20*
X115900000Y-59200000D03*
D21*
X102500000Y-64100000D03*
D20*
X91300000Y-95700000D03*
D21*
X103200000Y-75700000D03*
X103000000Y-89200000D03*
X103300000Y-78100000D03*
X104900000Y-72000000D03*
D20*
X91300000Y-106200000D03*
X141000000Y-101900000D03*
D21*
X110400000Y-74000000D03*
X168300000Y-81800000D03*
X174600000Y-111600000D03*
X176300000Y-113500000D03*
X147300000Y-61900000D03*
X104900000Y-70300000D03*
X112800000Y-89100000D03*
X188000000Y-106600000D03*
X151000000Y-133500000D03*
X167500000Y-82500000D03*
D20*
X91300000Y-90600000D03*
D21*
X128000000Y-108800000D03*
X110500000Y-87100000D03*
X146500000Y-99800000D03*
X110500000Y-85300000D03*
X107000000Y-64500000D03*
X144400000Y-67300000D03*
X117000000Y-87400000D03*
X128000000Y-133600000D03*
X149400000Y-133500000D03*
X162000000Y-72900000D03*
X176400000Y-109700000D03*
X152600000Y-133500000D03*
X149700000Y-108100000D03*
X139400000Y-67300000D03*
X112800000Y-90800000D03*
X108000000Y-90800000D03*
X113100000Y-78400000D03*
X110400000Y-75700000D03*
X147900000Y-108100000D03*
X100500000Y-90800000D03*
X108000000Y-89100000D03*
X171400000Y-102300000D03*
X107000000Y-79400000D03*
X114900000Y-90800000D03*
X158200000Y-85400000D03*
X103000000Y-91000000D03*
X186800000Y-120800000D03*
X100400000Y-82100000D03*
X116900000Y-72200000D03*
X100000000Y-67600000D03*
X105000000Y-90800000D03*
X143000000Y-116600000D03*
X108000000Y-84000000D03*
X100000000Y-64100000D03*
X108000000Y-85400000D03*
X172400000Y-66700000D03*
X103200000Y-74200000D03*
X104900000Y-74000000D03*
X107900000Y-68900000D03*
X188000000Y-104400000D03*
X113800000Y-63900000D03*
D20*
X91300000Y-111500000D03*
D21*
X143100000Y-111300000D03*
X142400000Y-131400000D03*
X108000000Y-87100000D03*
X173300000Y-102300000D03*
X114800000Y-78400000D03*
X149700000Y-106400000D03*
X148500000Y-99800000D03*
D20*
X132000000Y-97000000D03*
D21*
X115300000Y-114500000D03*
X163800000Y-67500000D03*
X137500000Y-111300000D03*
D20*
X91300000Y-85000000D03*
D21*
X149500000Y-124600000D03*
X141200000Y-130100000D03*
X173900000Y-118900000D03*
X115300000Y-115700000D03*
X180800000Y-126900000D03*
X163900000Y-74400000D03*
X162000000Y-74400000D03*
X112800000Y-85100000D03*
X150500000Y-99800000D03*
X163900000Y-72900000D03*
D20*
X91300000Y-117800000D03*
D21*
X162000000Y-77500000D03*
X158200000Y-84300000D03*
X162000000Y-69400000D03*
X155300000Y-61300000D03*
X115000000Y-87400000D03*
X100500000Y-89200000D03*
X168300000Y-83100000D03*
X162000000Y-75600000D03*
X142400000Y-130100000D03*
X141700000Y-67300000D03*
X172400000Y-67800000D03*
X126500000Y-133600000D03*
X102400000Y-67600000D03*
X127500000Y-109800000D03*
X186000000Y-123100000D03*
X112700000Y-72000000D03*
X107900000Y-75700000D03*
X146700000Y-67300000D03*
X140300000Y-116600000D03*
X129800000Y-133600000D03*
X104900000Y-75700000D03*
X146400000Y-64900000D03*
D20*
%TO.N,+3V3*%
X95200000Y-106000000D03*
D21*
X180100000Y-116300000D03*
D20*
X95200000Y-90600000D03*
X95200000Y-95600000D03*
D21*
X116700000Y-65600000D03*
X169700000Y-113300000D03*
D20*
X95200000Y-111500000D03*
D21*
X148500000Y-104400000D03*
X169500000Y-111500000D03*
X113900000Y-65600000D03*
D20*
X135000000Y-111000000D03*
D21*
X154200000Y-70600000D03*
X161700000Y-85100000D03*
X155000000Y-70200000D03*
D20*
X132500000Y-101400000D03*
D21*
X150500000Y-104400000D03*
X118300000Y-65600000D03*
X162600000Y-83600000D03*
X179000000Y-116300000D03*
X169400000Y-109400000D03*
X146500000Y-104400000D03*
D20*
X95200000Y-85000000D03*
X125800000Y-124500000D03*
X137500000Y-119500000D03*
D21*
X120000000Y-65600000D03*
D20*
X138700000Y-57500000D03*
D21*
X178700000Y-118600000D03*
D20*
X169300000Y-116300000D03*
D21*
X155000000Y-71100000D03*
X169400000Y-107500000D03*
D20*
X143300000Y-101800000D03*
D21*
X161700000Y-83600000D03*
D20*
X95200000Y-117600000D03*
D21*
X115200000Y-65600000D03*
D20*
%TO.N,ESP_EN*%
X149500000Y-111254000D03*
X150950000Y-126750000D03*
%TO.N,Net-(IC5-VBUS)*%
X177500000Y-116200000D03*
%TO.N,Net-(IC4-A)*%
X185000000Y-108100000D03*
%TO.N,VBUS*%
X181500000Y-116100000D03*
X181800000Y-121900000D03*
%TO.N,/USB UART/USB_D_N*%
X184700000Y-120700000D03*
X184548634Y-119250405D03*
%TO.N,/USB UART/USB_D_P*%
X179600000Y-120900000D03*
%TO.N,FAN_TACH*%
X141300000Y-64200000D03*
X145100000Y-122300000D03*
%TO.N,FAN_PWM*%
X144000000Y-58700000D03*
X146400000Y-121400000D03*
%TO.N,ESP_RX*%
X153400000Y-123400000D03*
X159800000Y-124700000D03*
%TO.N,STP_MS1*%
X133700000Y-114300000D03*
X135200000Y-89800000D03*
%TO.N,LIMIT_2*%
X95000000Y-94400000D03*
X143800000Y-108400000D03*
%TO.N,STP_MS0*%
X129000000Y-92900000D03*
X127500000Y-103700000D03*
%TO.N,STP_STEP*%
X133600000Y-87600000D03*
X130500000Y-103600000D03*
%TO.N,485_RX*%
X136200000Y-108200000D03*
%TO.N,STP_FLT*%
X137500000Y-125700000D03*
X138700000Y-81400000D03*
%TO.N,STP_ENABLE*%
X152200000Y-73200000D03*
X132500000Y-105300000D03*
%TO.N,STP_DIR*%
X157700000Y-72500000D03*
X146100000Y-110700000D03*
%TO.N,STP_MS2*%
X135000000Y-115200000D03*
X136300000Y-90700000D03*
%TO.N,LIMIT_1*%
X94700000Y-89400000D03*
%TO.N,BOOT_MODE*%
X130300000Y-129400000D03*
X131100000Y-122700000D03*
%TO.N,TEMP_SENSE*%
X163800000Y-81000000D03*
%TO.N,ESP_TX*%
X159200000Y-124000000D03*
X145500000Y-119900000D03*
%TO.N,LIMIT_3*%
X94600000Y-99600000D03*
X142600000Y-108200000D03*
%TO.N,485_DIR*%
X133600000Y-108300000D03*
X162900000Y-103700000D03*
%TO.N,INPUT_1*%
X94700000Y-110000000D03*
%TO.N,INPUT_2*%
X137600000Y-108400000D03*
X94900000Y-115500000D03*
%TO.N,STP_RESET*%
X127500000Y-96400000D03*
X128000000Y-111600000D03*
%TO.N,485_TX*%
X165000000Y-102700000D03*
X134900000Y-108100000D03*
%TO.N,INPUT_3*%
X124500000Y-100200000D03*
X94700000Y-121400000D03*
%TO.N,/USB UART/DTR*%
X147900000Y-111800000D03*
%TO.N,/USB UART/RTS*%
X172200000Y-123300000D03*
%TO.N,Net-(IC5-RSTB)*%
X171900000Y-117400000D03*
%TO.N,Net-(IC6-ISENA)*%
X173700000Y-74800000D03*
%TO.N,Net-(IC6-ISENB)*%
X173700000Y-72000000D03*
%TO.N,Net-(Q1-A)*%
X86900000Y-83900000D03*
%TO.N,Net-(Q2-A)*%
X87300000Y-89900000D03*
%TO.N,Net-(Q3-A)*%
X87000000Y-94700000D03*
%TO.N,Net-(Q4-A)*%
X87000000Y-105100000D03*
%TO.N,Net-(Q5-A)*%
X87100000Y-110700000D03*
%TO.N,Net-(Q6-A)*%
X87100000Y-115100000D03*
%TO.N,Net-(IC3-IO4)*%
X129800000Y-97954000D03*
X129400000Y-103700000D03*
%TD*%
D22*
%TO.N,TEMP_SENSE*%
X164200000Y-81400000D02*
X163800000Y-81000000D01*
X164200000Y-91500000D02*
X164200000Y-81400000D01*
X162500000Y-93200000D02*
X164200000Y-91500000D01*
X138800000Y-101500000D02*
X147100000Y-93200000D01*
X138800000Y-108400000D02*
X138800000Y-101500000D01*
X147100000Y-93200000D02*
X162500000Y-93200000D01*
%TO.N,VBUS*%
X181100000Y-121900000D02*
X181800000Y-121900000D01*
X177700000Y-125300000D02*
X181100000Y-121900000D01*
X168700000Y-125300000D02*
X177700000Y-125300000D01*
X166000000Y-128000000D02*
X168700000Y-125300000D01*
%TO.N,STP_ENABLE*%
X147000000Y-73200000D02*
X143000000Y-77200000D01*
X143000000Y-92500000D02*
X132500000Y-103000000D01*
X148000000Y-81500000D02*
X148000000Y-77400000D01*
X143000000Y-77200000D02*
X143000000Y-92500000D01*
X152200000Y-73200000D02*
X147000000Y-73200000D01*
X132500000Y-103000000D02*
X132500000Y-105300000D01*
X147000000Y-82500000D02*
X148000000Y-81500000D01*
X148000000Y-77400000D02*
X152200000Y-73200000D01*
%TO.N,485_DIR*%
X152000000Y-107400000D02*
X150100000Y-109300000D01*
X149900000Y-109500000D02*
X134300000Y-109500000D01*
X150100000Y-109300000D02*
X149900000Y-109500000D01*
X133600000Y-108800000D02*
X133600000Y-108300000D01*
X156700000Y-107400000D02*
X152000000Y-107400000D01*
X162900000Y-103700000D02*
X159200000Y-107400000D01*
X159200000Y-107400000D02*
X156700000Y-107400000D01*
X134300000Y-109500000D02*
X133600000Y-108800000D01*
%TO.N,485_TX*%
X158531000Y-107069000D02*
X152200000Y-107069000D01*
X149584180Y-109169000D02*
X135700000Y-109169000D01*
X152200000Y-107069000D02*
X151684180Y-107069000D01*
X165000000Y-102700000D02*
X162900000Y-102700000D01*
X162900000Y-102700000D02*
X159100000Y-106500000D01*
X135700000Y-109169000D02*
X135269000Y-109169000D01*
X159100000Y-106500000D02*
X158531000Y-107069000D01*
X135269000Y-109169000D02*
X134900000Y-108800000D01*
X151684180Y-107069000D02*
X149584180Y-109169000D01*
X134900000Y-108800000D02*
X134900000Y-108100000D01*
%TD*%
%TA.AperFunction,Conductor*%
%TO.N,TEMP_SENSE*%
G36*
X164073432Y-80949100D02*
G01*
X164077749Y-80954422D01*
X164233470Y-81339392D01*
X164233396Y-81348346D01*
X164230897Y-81352052D01*
X164152052Y-81430897D01*
X164143779Y-81434324D01*
X164139392Y-81433470D01*
X163754422Y-81277749D01*
X163748037Y-81271470D01*
X163747327Y-81264655D01*
X163797781Y-81007011D01*
X163802733Y-80999553D01*
X163807009Y-80997781D01*
X164064655Y-80947327D01*
X164073432Y-80949100D01*
G37*
%TD.AperFunction*%
%TD*%
%TA.AperFunction,Conductor*%
%TO.N,VBUS*%
G36*
X181650105Y-121675615D02*
G01*
X181796609Y-121893471D01*
X181798382Y-121902248D01*
X181796609Y-121906529D01*
X181650105Y-122124384D01*
X181642644Y-122129337D01*
X181635829Y-122128627D01*
X181253504Y-121966524D01*
X181247225Y-121960139D01*
X181246371Y-121955752D01*
X181246371Y-121844247D01*
X181249798Y-121835974D01*
X181253501Y-121833476D01*
X181635831Y-121671371D01*
X181644783Y-121671298D01*
X181650105Y-121675615D01*
G37*
%TD.AperFunction*%
%TD*%
%TA.AperFunction,Conductor*%
%TO.N,VBUS*%
G36*
X167505934Y-126409651D02*
G01*
X167508122Y-126411371D01*
X167588628Y-126491877D01*
X167592055Y-126500150D01*
X167591724Y-126502914D01*
X167192213Y-128146430D01*
X167186929Y-128153659D01*
X167179325Y-128155267D01*
X166008207Y-128001874D01*
X166000448Y-127997402D01*
X165998125Y-127991792D01*
X165844732Y-126820674D01*
X165847055Y-126812026D01*
X165853567Y-126807786D01*
X167497087Y-126408275D01*
X167505934Y-126409651D01*
G37*
%TD.AperFunction*%
%TD*%
%TA.AperFunction,Conductor*%
%TO.N,STP_ENABLE*%
G36*
X152050105Y-72975615D02*
G01*
X152196609Y-73193471D01*
X152198382Y-73202248D01*
X152196609Y-73206529D01*
X152050105Y-73424384D01*
X152042644Y-73429337D01*
X152035829Y-73428627D01*
X151653504Y-73266524D01*
X151647225Y-73260139D01*
X151646371Y-73255752D01*
X151646371Y-73144247D01*
X151649798Y-73135974D01*
X151653501Y-73133476D01*
X152035831Y-72971371D01*
X152044783Y-72971298D01*
X152050105Y-72975615D01*
G37*
%TD.AperFunction*%
%TD*%
%TA.AperFunction,Conductor*%
%TO.N,STP_ENABLE*%
G36*
X132564025Y-104749798D02*
G01*
X132566524Y-104753504D01*
X132728627Y-105135829D01*
X132728701Y-105144783D01*
X132724384Y-105150105D01*
X132506529Y-105296609D01*
X132497752Y-105298382D01*
X132493471Y-105296609D01*
X132275615Y-105150105D01*
X132270662Y-105142644D01*
X132271371Y-105135831D01*
X132433476Y-104753504D01*
X132439861Y-104747225D01*
X132444248Y-104746371D01*
X132555752Y-104746371D01*
X132564025Y-104749798D01*
G37*
%TD.AperFunction*%
%TD*%
%TA.AperFunction,Conductor*%
%TO.N,STP_ENABLE*%
G36*
X152192986Y-73197781D02*
G01*
X152200446Y-73202733D01*
X152202219Y-73207014D01*
X152252672Y-73464655D01*
X152250899Y-73473432D01*
X152245577Y-73477749D01*
X151860607Y-73633470D01*
X151851653Y-73633396D01*
X151847947Y-73630897D01*
X151769102Y-73552052D01*
X151765675Y-73543779D01*
X151766529Y-73539392D01*
X151796760Y-73464655D01*
X151922251Y-73154420D01*
X151928529Y-73148037D01*
X151935344Y-73147327D01*
X152192986Y-73197781D01*
G37*
%TD.AperFunction*%
%TD*%
%TA.AperFunction,Conductor*%
%TO.N,485_DIR*%
G36*
X133605819Y-108303660D02*
G01*
X133824222Y-108449812D01*
X133829192Y-108457261D01*
X133828413Y-108464274D01*
X133683704Y-108791028D01*
X133681279Y-108794563D01*
X133604242Y-108871600D01*
X133595969Y-108875027D01*
X133587696Y-108871600D01*
X133585621Y-108868786D01*
X133372504Y-108464575D01*
X133371677Y-108455658D01*
X133376318Y-108449414D01*
X133592778Y-108303678D01*
X133601554Y-108301901D01*
X133605819Y-108303660D01*
G37*
%TD.AperFunction*%
%TD*%
%TA.AperFunction,Conductor*%
%TO.N,485_DIR*%
G36*
X162892986Y-103697781D02*
G01*
X162900446Y-103702733D01*
X162902219Y-103707014D01*
X162952672Y-103964655D01*
X162950899Y-103973432D01*
X162945577Y-103977749D01*
X162560607Y-104133470D01*
X162551653Y-104133396D01*
X162547947Y-104130897D01*
X162469102Y-104052052D01*
X162465675Y-104043779D01*
X162466529Y-104039392D01*
X162496760Y-103964655D01*
X162622251Y-103654420D01*
X162628529Y-103648037D01*
X162635344Y-103647327D01*
X162892986Y-103697781D01*
G37*
%TD.AperFunction*%
%TD*%
%TA.AperFunction,Conductor*%
%TO.N,485_TX*%
G36*
X164850105Y-102475615D02*
G01*
X164996609Y-102693471D01*
X164998382Y-102702248D01*
X164996609Y-102706529D01*
X164850105Y-102924384D01*
X164842644Y-102929337D01*
X164835829Y-102928627D01*
X164453504Y-102766524D01*
X164447225Y-102760139D01*
X164446371Y-102755752D01*
X164446371Y-102644247D01*
X164449798Y-102635974D01*
X164453501Y-102633476D01*
X164835831Y-102471371D01*
X164844783Y-102471298D01*
X164850105Y-102475615D01*
G37*
%TD.AperFunction*%
%TD*%
%TA.AperFunction,Conductor*%
%TO.N,485_TX*%
G36*
X134906526Y-108103388D02*
G01*
X135124384Y-108249894D01*
X135129337Y-108257355D01*
X135128627Y-108264170D01*
X134966524Y-108646496D01*
X134960139Y-108652775D01*
X134955752Y-108653629D01*
X134844248Y-108653629D01*
X134835975Y-108650202D01*
X134833476Y-108646496D01*
X134671372Y-108264170D01*
X134671298Y-108255216D01*
X134675613Y-108249895D01*
X134893472Y-108103389D01*
X134902248Y-108101617D01*
X134906526Y-108103388D01*
G37*
%TD.AperFunction*%
%TD*%
M02*
