%TF.GenerationSoftware,KiCad,Pcbnew,9.0.6*%
%TF.CreationDate,2026-02-25T18:26:58-05:00*%
%TF.ProjectId,P1012202501-ESP32_Stepper_Controller,50313031-3232-4303-9235-30312d455350,rev?*%
%TF.SameCoordinates,Original*%
%TF.FileFunction,Copper,L3,Inr*%
%TF.FilePolarity,Positive*%
%FSLAX46Y46*%
G04 Gerber Fmt 4.6, Leading zero omitted, Abs format (unit mm)*
G04 Created by KiCad (PCBNEW 9.0.6) date 2026-02-25 18:26:58*
%MOMM*%
%LPD*%
G01*
G04 APERTURE LIST*
%TA.AperFunction,ComponentPad*%
%ADD10R,2.550000X2.550000*%
%TD*%
%TA.AperFunction,ComponentPad*%
%ADD11C,2.550000*%
%TD*%
%TA.AperFunction,ComponentPad*%
%ADD12R,1.530000X1.530000*%
%TD*%
%TA.AperFunction,ComponentPad*%
%ADD13C,1.530000*%
%TD*%
%TA.AperFunction,ComponentPad*%
%ADD14C,2.400000*%
%TD*%
%TA.AperFunction,ComponentPad*%
%ADD15O,2.100000X1.000000*%
%TD*%
%TA.AperFunction,ComponentPad*%
%ADD16O,1.800000X1.000000*%
%TD*%
%TA.AperFunction,ComponentPad*%
%ADD17C,8.000000*%
%TD*%
%TA.AperFunction,ComponentPad*%
%ADD18R,1.725000X1.725000*%
%TD*%
%TA.AperFunction,ComponentPad*%
%ADD19C,1.725000*%
%TD*%
%TA.AperFunction,ViaPad*%
%ADD20C,0.559000*%
%TD*%
%TA.AperFunction,ViaPad*%
%ADD21C,0.813000*%
%TD*%
%TA.AperFunction,Conductor*%
%ADD22C,0.450000*%
%TD*%
%TA.AperFunction,Conductor*%
%ADD23C,0.127000*%
%TD*%
G04 APERTURE END LIST*
D10*
%TO.N,Net-(IC6-AOUT1)*%
%TO.C,CN7*%
X182500000Y-80500000D03*
D11*
%TO.N,Net-(IC6-AOUT2)*%
X182500000Y-75500000D03*
%TO.N,Net-(IC6-BOUT2)*%
X182500000Y-70500000D03*
%TO.N,Net-(IC6-BOUT1)*%
X182500000Y-65500000D03*
%TD*%
D12*
%TO.N,/Limit Switches/LMT_C*%
%TO.C,J2*%
X91000000Y-102000000D03*
D13*
%TO.N,GND*%
X93540000Y-102000000D03*
%TD*%
D14*
%TO.N,GND*%
%TO.C,TP13*%
X112000000Y-93500000D03*
%TD*%
%TO.N,STP_MS2*%
%TO.C,TP33*%
X172000000Y-89500000D03*
%TD*%
%TO.N,STP_MS0*%
%TO.C,TP31*%
X162000000Y-89500000D03*
%TD*%
%TO.N,485_RX*%
%TO.C,TP4*%
X159000000Y-96500000D03*
%TD*%
%TO.N,STP_RESET*%
%TO.C,TP28*%
X152000000Y-82500000D03*
%TD*%
%TO.N,/USB UART/USB_D_N*%
%TO.C,TP23*%
X176000000Y-128000000D03*
%TD*%
%TO.N,/USB UART/DTR*%
%TO.C,TP19*%
X157000000Y-105500000D03*
%TD*%
D15*
%TO.N,GND*%
%TO.C,CN5*%
X183820000Y-123820000D03*
X183820000Y-115180000D03*
D16*
X188000000Y-123820000D03*
X188000000Y-115180000D03*
%TD*%
D14*
%TO.N,BOOT_MODE*%
%TO.C,TP20*%
X157000000Y-120500000D03*
%TD*%
D10*
%TO.N,Net-(CN3-Pad1)*%
%TO.C,CN3*%
X79500000Y-87000000D03*
D11*
%TO.N,Net-(CN3-Pad2)*%
X79500000Y-92000000D03*
%TO.N,Net-(CN3-Pad3)*%
X79500000Y-97000000D03*
%TO.N,/Limit Switches/LMT_C*%
X79500000Y-102000000D03*
%TD*%
D14*
%TO.N,GND*%
%TO.C,TP7*%
X154000000Y-96500000D03*
%TD*%
%TO.N,GND*%
%TO.C,TP3*%
X131000000Y-74000000D03*
%TD*%
D17*
%TO.N,unconnected-(MH2-Pad1)*%
%TO.C,MH2*%
X76050000Y-55550000D03*
%TD*%
%TO.N,unconnected-(MH4-Pad1)*%
%TO.C,MH4*%
X186050000Y-55550000D03*
%TD*%
D14*
%TO.N,ESP_EN*%
%TO.C,TP21*%
X157000000Y-110500000D03*
%TD*%
%TO.N,LIMIT_1*%
%TO.C,TP10*%
X103000000Y-93500000D03*
%TD*%
%TO.N,/USB UART/RTS*%
%TO.C,TP18*%
X157000000Y-115500000D03*
%TD*%
%TO.N,TEMP_SENSE*%
%TO.C,TP26*%
X172000000Y-83500000D03*
%TD*%
%TO.N,LIMIT_3*%
%TO.C,TP12*%
X103000000Y-103500000D03*
%TD*%
D17*
%TO.N,unconnected-(MH1-Pad1)*%
%TO.C,MH1*%
X76050000Y-130550000D03*
%TD*%
D14*
%TO.N,+3V3*%
%TO.C,TP1*%
X131000000Y-65500000D03*
%TD*%
D10*
%TO.N,Net-(IC4-B)*%
%TO.C,CN2*%
X182500000Y-108500000D03*
D11*
%TO.N,Net-(IC4-A)*%
X182500000Y-103500000D03*
%TO.N,GND*%
X182500000Y-98500000D03*
%TD*%
D14*
%TO.N,485_TX*%
%TO.C,TP6*%
X169000000Y-96500000D03*
%TD*%
%TO.N,VBUS*%
%TO.C,TP24*%
X166000000Y-128000000D03*
%TD*%
%TO.N,FAN_TACH*%
%TO.C,TP35*%
X129000000Y-58000000D03*
%TD*%
%TO.N,INPUT_2*%
%TO.C,TP15*%
X103000000Y-115500000D03*
%TD*%
%TO.N,485_DIR*%
%TO.C,TP5*%
X164000000Y-96500000D03*
%TD*%
%TO.N,FAN_PWM*%
%TO.C,TP36*%
X134000000Y-58000000D03*
%TD*%
D17*
%TO.N,unconnected-(MH3-Pad1)*%
%TO.C,MH3*%
X186050000Y-130550000D03*
%TD*%
D14*
%TO.N,/USB UART/USB_D_P*%
%TO.C,TP22*%
X171000000Y-128000000D03*
%TD*%
D12*
%TO.N,Net-(J1-Pad1)*%
%TO.C,J1*%
X185000000Y-92500000D03*
D13*
%TO.N,Net-(IC4-A)*%
X187540000Y-92500000D03*
%TD*%
D14*
%TO.N,STP_STEP*%
%TO.C,TP30*%
X152000000Y-89500000D03*
%TD*%
%TO.N,STP_MS1*%
%TO.C,TP32*%
X167000000Y-89500000D03*
%TD*%
%TO.N,INPUT_1*%
%TO.C,TP14*%
X103000000Y-110500000D03*
%TD*%
%TO.N,STP_ENABLE*%
%TO.C,TP27*%
X147000000Y-82500000D03*
%TD*%
D10*
%TO.N,Net-(CN4-Pad1)*%
%TO.C,CN4*%
X79500000Y-107500000D03*
D11*
%TO.N,Net-(CN4-Pad2)*%
X79500000Y-112500000D03*
%TO.N,Net-(CN4-Pad3)*%
X79500000Y-117500000D03*
%TO.N,/Control Inputs/INPUT_C*%
X79500000Y-122500000D03*
%TD*%
D14*
%TO.N,ESP_RX*%
%TO.C,TP8*%
X165000000Y-110500000D03*
%TD*%
%TO.N,STP_DIR*%
%TO.C,TP29*%
X147000000Y-89500000D03*
%TD*%
%TO.N,+5V*%
%TO.C,TP2*%
X131000000Y-82500000D03*
%TD*%
D18*
%TO.N,GND*%
%TO.C,J4*%
X123000000Y-105500000D03*
D19*
%TO.N,unconnected-(J4-Pad2)*%
X123000000Y-108040000D03*
%TO.N,unconnected-(J4-Pad3)*%
X123000000Y-110580000D03*
%TO.N,/ESP32/UART_RX*%
X123000000Y-113120000D03*
%TO.N,/ESP32/UART_TX*%
X123000000Y-115660000D03*
%TO.N,unconnected-(J4-Pad6)*%
X123000000Y-118200000D03*
%TD*%
D14*
%TO.N,STP_FLT*%
%TO.C,TP34*%
X157000000Y-89500000D03*
%TD*%
%TO.N,INPUT_3*%
%TO.C,TP16*%
X103000000Y-120500000D03*
%TD*%
%TO.N,GND*%
%TO.C,TP25*%
X161000000Y-128000000D03*
%TD*%
%TO.N,ESP_TX*%
%TO.C,TP9*%
X165000000Y-115500000D03*
%TD*%
D12*
%TO.N,/Control Inputs/INPUT_C*%
%TO.C,J3*%
X91000000Y-124000000D03*
D13*
%TO.N,GND*%
X93540000Y-124000000D03*
%TD*%
D14*
%TO.N,GND*%
%TO.C,TP17*%
X112000000Y-110500000D03*
%TD*%
D10*
%TO.N,Net-(D3-A)*%
%TO.C,CN1*%
X79500000Y-68500000D03*
D11*
%TO.N,GND*%
X79500000Y-73500000D03*
%TD*%
D14*
%TO.N,LIMIT_2*%
%TO.C,TP11*%
X103000000Y-98500000D03*
%TD*%
D20*
%TO.N,TEMP_SENSE*%
X138800000Y-108400000D03*
%TO.N,GND*%
X135110000Y-104500000D03*
D21*
%TO.N,+24V*%
X170100000Y-76500000D03*
X169200000Y-70800000D03*
%TO.N,GND*%
X107900000Y-72000000D03*
X140300000Y-111300000D03*
X102500000Y-80400000D03*
X163800000Y-69400000D03*
X110500000Y-89100000D03*
X147300000Y-60500000D03*
X110400000Y-72000000D03*
X163900000Y-75600000D03*
X176200000Y-121100000D03*
X100400000Y-77900000D03*
X158200000Y-83100000D03*
X112700000Y-70000000D03*
X119100000Y-90800000D03*
X143100000Y-114000000D03*
X163900000Y-71700000D03*
X103400000Y-82100000D03*
X155300000Y-58600000D03*
X172400000Y-68800000D03*
X119000000Y-87400000D03*
X173900000Y-121100000D03*
X107900000Y-70300000D03*
X119100000Y-89200000D03*
X179200000Y-112800000D03*
X112700000Y-74000000D03*
X128500000Y-109800000D03*
X147700000Y-122800000D03*
X137600000Y-114000000D03*
X100400000Y-74200000D03*
X105000000Y-85400000D03*
X112700000Y-75700000D03*
X162000000Y-71700000D03*
X189100000Y-105400000D03*
X119000000Y-72200000D03*
X149500000Y-122800000D03*
X107900000Y-74000000D03*
X110500000Y-90800000D03*
X115000000Y-72200000D03*
X155300000Y-60000000D03*
X115300000Y-113400000D03*
X163900000Y-77500000D03*
X105000000Y-87100000D03*
X100400000Y-75800000D03*
X110400000Y-70200000D03*
X101200000Y-65900000D03*
X180800000Y-125700000D03*
X179600000Y-126900000D03*
X100400000Y-80400000D03*
X147300000Y-63300000D03*
X115000000Y-89100000D03*
X176400000Y-111600000D03*
X176100000Y-118900000D03*
X137600000Y-116600000D03*
X112800000Y-87100000D03*
X117000000Y-89100000D03*
X105000000Y-89100000D03*
X117000000Y-90800000D03*
X173300000Y-103600000D03*
X186000000Y-115900000D03*
D20*
X115900000Y-59200000D03*
D21*
X102500000Y-64100000D03*
D20*
X91300000Y-95700000D03*
D21*
X103200000Y-75700000D03*
X103000000Y-89200000D03*
X103300000Y-78100000D03*
X104900000Y-72000000D03*
D20*
X91300000Y-106200000D03*
X141000000Y-101900000D03*
D21*
X110400000Y-74000000D03*
X168300000Y-81800000D03*
X174600000Y-111600000D03*
X176300000Y-113500000D03*
X147300000Y-61900000D03*
X104900000Y-70300000D03*
X112800000Y-89100000D03*
X188000000Y-106600000D03*
X151000000Y-133500000D03*
X167500000Y-82500000D03*
D20*
X91300000Y-90600000D03*
D21*
X128000000Y-108800000D03*
X110500000Y-87100000D03*
X146500000Y-99800000D03*
X110500000Y-85300000D03*
X107000000Y-64500000D03*
X144400000Y-67300000D03*
X117000000Y-87400000D03*
X128000000Y-133600000D03*
X149400000Y-133500000D03*
X162000000Y-72900000D03*
X176400000Y-109700000D03*
X152600000Y-133500000D03*
X149700000Y-108100000D03*
X139400000Y-67300000D03*
X112800000Y-90800000D03*
X108000000Y-90800000D03*
X113100000Y-78400000D03*
X110400000Y-75700000D03*
X147900000Y-108100000D03*
X100500000Y-90800000D03*
X108000000Y-89100000D03*
X171400000Y-102300000D03*
X107000000Y-79400000D03*
X114900000Y-90800000D03*
X158200000Y-85400000D03*
X103000000Y-91000000D03*
X186800000Y-120800000D03*
X100400000Y-82100000D03*
X116900000Y-72200000D03*
X100000000Y-67600000D03*
X105000000Y-90800000D03*
X143000000Y-116600000D03*
X108000000Y-84000000D03*
X100000000Y-64100000D03*
X108000000Y-85400000D03*
X172400000Y-66700000D03*
X103200000Y-74200000D03*
X104900000Y-74000000D03*
X107900000Y-68900000D03*
X188000000Y-104400000D03*
X113800000Y-63900000D03*
D20*
X91300000Y-111500000D03*
D21*
X143100000Y-111300000D03*
X142400000Y-131400000D03*
X108000000Y-87100000D03*
X173300000Y-102300000D03*
X114800000Y-78400000D03*
X149700000Y-106400000D03*
X148500000Y-99800000D03*
D20*
X132000000Y-97000000D03*
D21*
X115300000Y-114500000D03*
X163800000Y-67500000D03*
X137500000Y-111300000D03*
D20*
X91300000Y-85000000D03*
D21*
X149500000Y-124600000D03*
X141200000Y-130100000D03*
X173900000Y-118900000D03*
X115300000Y-115700000D03*
X180800000Y-126900000D03*
X163900000Y-74400000D03*
X162000000Y-74400000D03*
X112800000Y-85100000D03*
X150500000Y-99800000D03*
X163900000Y-72900000D03*
D20*
X91300000Y-117800000D03*
D21*
X162000000Y-77500000D03*
X158200000Y-84300000D03*
X162000000Y-69400000D03*
X155300000Y-61300000D03*
X115000000Y-87400000D03*
X100500000Y-89200000D03*
X168300000Y-83100000D03*
X162000000Y-75600000D03*
X142400000Y-130100000D03*
X141700000Y-67300000D03*
X172400000Y-67800000D03*
X126500000Y-133600000D03*
X102400000Y-67600000D03*
X127500000Y-109800000D03*
X186000000Y-123100000D03*
X112700000Y-72000000D03*
X107900000Y-75700000D03*
X146700000Y-67300000D03*
X140300000Y-116600000D03*
X129800000Y-133600000D03*
X104900000Y-75700000D03*
X146400000Y-64900000D03*
D20*
%TO.N,+3V3*%
X95200000Y-106000000D03*
D21*
X180100000Y-116300000D03*
D20*
X95200000Y-90600000D03*
X95200000Y-95600000D03*
D21*
X116700000Y-65600000D03*
X169700000Y-113300000D03*
D20*
X95200000Y-111500000D03*
D21*
X148500000Y-104400000D03*
X169500000Y-111500000D03*
X113900000Y-65600000D03*
D20*
X135000000Y-111000000D03*
D21*
X154200000Y-70600000D03*
X161700000Y-85100000D03*
X155000000Y-70200000D03*
D20*
X132500000Y-101400000D03*
D21*
X150500000Y-104400000D03*
X118300000Y-65600000D03*
X162600000Y-83600000D03*
X179000000Y-116300000D03*
X169400000Y-109400000D03*
X146500000Y-104400000D03*
D20*
X95200000Y-85000000D03*
X125800000Y-124500000D03*
X137500000Y-119500000D03*
D21*
X120000000Y-65600000D03*
D20*
X138700000Y-57500000D03*
D21*
X178700000Y-118600000D03*
D20*
X169300000Y-116300000D03*
D21*
X155000000Y-71100000D03*
X169400000Y-107500000D03*
D20*
X143300000Y-101800000D03*
D21*
X161700000Y-83600000D03*
D20*
X95200000Y-117600000D03*
D21*
X115200000Y-65600000D03*
D20*
%TO.N,ESP_EN*%
X149500000Y-111254000D03*
X150950000Y-126750000D03*
%TO.N,Net-(IC5-VBUS)*%
X177500000Y-116200000D03*
%TO.N,Net-(IC4-A)*%
X185000000Y-108100000D03*
%TO.N,VBUS*%
X181500000Y-116100000D03*
X181800000Y-121900000D03*
%TO.N,/USB UART/USB_D_N*%
X184700000Y-120700000D03*
X184548634Y-119250405D03*
%TO.N,/USB UART/USB_D_P*%
X179600000Y-120900000D03*
%TO.N,FAN_TACH*%
X141300000Y-64200000D03*
X145100000Y-122300000D03*
%TO.N,FAN_PWM*%
X144000000Y-58700000D03*
X146400000Y-121400000D03*
%TO.N,ESP_RX*%
X153400000Y-123400000D03*
X159800000Y-124700000D03*
%TO.N,STP_MS1*%
X133700000Y-114300000D03*
X135200000Y-89800000D03*
%TO.N,LIMIT_2*%
X95000000Y-94400000D03*
X143800000Y-108400000D03*
%TO.N,STP_MS0*%
X129000000Y-92900000D03*
X127500000Y-103700000D03*
%TO.N,STP_STEP*%
X133600000Y-87600000D03*
X130500000Y-103600000D03*
%TO.N,485_RX*%
X136200000Y-108200000D03*
%TO.N,STP_FLT*%
X137500000Y-125700000D03*
X138700000Y-81400000D03*
%TO.N,STP_ENABLE*%
X152200000Y-73200000D03*
X132500000Y-105300000D03*
%TO.N,STP_DIR*%
X157700000Y-72500000D03*
X146100000Y-110700000D03*
%TO.N,STP_MS2*%
X135000000Y-115200000D03*
X136300000Y-90700000D03*
%TO.N,LIMIT_1*%
X94700000Y-89400000D03*
%TO.N,BOOT_MODE*%
X130300000Y-129400000D03*
X131100000Y-122700000D03*
%TO.N,TEMP_SENSE*%
X163800000Y-81000000D03*
%TO.N,ESP_TX*%
X159200000Y-124000000D03*
X145500000Y-119900000D03*
%TO.N,LIMIT_3*%
X94600000Y-99600000D03*
X142600000Y-108200000D03*
%TO.N,485_DIR*%
X133600000Y-108300000D03*
X162900000Y-103700000D03*
%TO.N,INPUT_1*%
X94700000Y-110000000D03*
%TO.N,INPUT_2*%
X137600000Y-108400000D03*
X94900000Y-115500000D03*
%TO.N,STP_RESET*%
X127500000Y-96400000D03*
X128000000Y-111600000D03*
%TO.N,485_TX*%
X165000000Y-102700000D03*
X134900000Y-108100000D03*
%TO.N,INPUT_3*%
X124500000Y-100200000D03*
X94700000Y-121400000D03*
%TO.N,/USB UART/DTR*%
X147900000Y-111800000D03*
%TO.N,/USB UART/RTS*%
X172200000Y-123300000D03*
%TO.N,Net-(IC5-RSTB)*%
X171900000Y-117400000D03*
%TO.N,Net-(IC6-ISENA)*%
X173700000Y-74800000D03*
%TO.N,Net-(IC6-ISENB)*%
X173700000Y-72000000D03*
%TO.N,Net-(Q1-A)*%
X86900000Y-83900000D03*
%TO.N,Net-(Q2-A)*%
X87300000Y-89900000D03*
%TO.N,Net-(Q3-A)*%
X87000000Y-94700000D03*
%TO.N,Net-(Q4-A)*%
X87000000Y-105100000D03*
%TO.N,Net-(Q5-A)*%
X87100000Y-110700000D03*
%TO.N,Net-(Q6-A)*%
X87100000Y-115100000D03*
%TO.N,Net-(IC3-IO4)*%
X129800000Y-97954000D03*
X129400000Y-103700000D03*
%TD*%
D22*
%TO.N,+24V*%
X170100000Y-71700000D02*
X170100000Y-76500000D01*
X169200000Y-70800000D02*
X170100000Y-71700000D01*
D23*
%TO.N,ESP_EN*%
X150950000Y-112050000D02*
X155450000Y-112050000D01*
X150950000Y-126750000D02*
X150950000Y-112050000D01*
X155450000Y-112050000D02*
X157000000Y-110500000D01*
X150154000Y-111254000D02*
X150950000Y-112050000D01*
X149500000Y-111254000D02*
X150154000Y-111254000D01*
%TO.N,FAN_TACH*%
X143397264Y-109770839D02*
X142000000Y-108373575D01*
X144953000Y-110794679D02*
X143929160Y-109770839D01*
X142000000Y-104900000D02*
X140400000Y-103300000D01*
X140400000Y-65100000D02*
X141300000Y-64200000D01*
X144953000Y-111747000D02*
X144953000Y-110794679D01*
X145100000Y-122300000D02*
X144953000Y-122153000D01*
X140400000Y-103300000D02*
X140400000Y-65100000D01*
X143929160Y-109770839D02*
X143397264Y-109770839D01*
X144953000Y-122153000D02*
X144953000Y-111747000D01*
X142000000Y-108373575D02*
X142000000Y-104900000D01*
%TO.N,FAN_PWM*%
X142753000Y-64647000D02*
X143500000Y-63900000D01*
X142753000Y-102026575D02*
X142753000Y-64647000D01*
X143500000Y-63900000D02*
X144000000Y-63400000D01*
X143200000Y-108573575D02*
X143200000Y-102473575D01*
X144000000Y-63400000D02*
X144000000Y-58700000D01*
X146400000Y-121400000D02*
X146400000Y-111773575D01*
X143200000Y-102473575D02*
X142753000Y-102026575D01*
X146400000Y-111773575D02*
X143200000Y-108573575D01*
%TO.N,ESP_RX*%
X161600000Y-122900000D02*
X161600000Y-113900000D01*
X161600000Y-113900000D02*
X165000000Y-110500000D01*
X159800000Y-124700000D02*
X161600000Y-122900000D01*
%TO.N,STP_MS1*%
X133053000Y-91947000D02*
X135200000Y-89800000D01*
X133700000Y-114300000D02*
X133053000Y-113653000D01*
X133053000Y-113653000D02*
X133053000Y-91947000D01*
%TO.N,STP_MS0*%
X128500000Y-99800000D02*
X129000000Y-99300000D01*
X127500000Y-100800000D02*
X128500000Y-99800000D01*
X129000000Y-99300000D02*
X129000000Y-92900000D01*
X127500000Y-103700000D02*
X127500000Y-100800000D01*
%TO.N,STP_STEP*%
X130500000Y-90700000D02*
X133600000Y-87600000D01*
X130500000Y-103600000D02*
X130500000Y-90700000D01*
%TO.N,STP_FLT*%
X143895108Y-110204891D02*
X143363212Y-110204891D01*
X137500000Y-124800000D02*
X144000000Y-118300000D01*
X143363212Y-110204891D02*
X138700000Y-105541679D01*
X144622000Y-110931783D02*
X143895108Y-110204891D01*
X144622000Y-117678000D02*
X144622000Y-116300000D01*
X138700000Y-105541679D02*
X138700000Y-81400000D01*
X144000000Y-118300000D02*
X144622000Y-117678000D01*
X137500000Y-125700000D02*
X137500000Y-124800000D01*
X144622000Y-116300000D02*
X144622000Y-110931783D01*
%TO.N,STP_DIR*%
X155800000Y-73000000D02*
X156300000Y-72500000D01*
X156900000Y-74900000D02*
X156900000Y-73300000D01*
X151100000Y-75500000D02*
X153600000Y-73000000D01*
X145200000Y-76400000D02*
X146100000Y-75500000D01*
X146100000Y-75500000D02*
X151100000Y-75500000D01*
X149800000Y-86700000D02*
X149800000Y-82000000D01*
X146100000Y-110700000D02*
X146100000Y-105800000D01*
X145200000Y-104900000D02*
X145200000Y-76400000D01*
X156900000Y-73300000D02*
X157700000Y-72500000D01*
X153600000Y-73000000D02*
X155800000Y-73000000D01*
X149800000Y-82000000D02*
X156900000Y-74900000D01*
X147000000Y-89500000D02*
X149800000Y-86700000D01*
X156300000Y-72500000D02*
X157700000Y-72500000D01*
X146100000Y-105800000D02*
X145200000Y-104900000D01*
%TO.N,STP_MS2*%
X135000000Y-115200000D02*
X135653000Y-114547000D01*
X135653000Y-114547000D02*
X135653000Y-91347000D01*
X135653000Y-91347000D02*
X136300000Y-90700000D01*
%TO.N,TEMP_SENSE*%
X172000000Y-83500000D02*
X169200000Y-80700000D01*
X164100000Y-80700000D02*
X163800000Y-81000000D01*
X169200000Y-80700000D02*
X164100000Y-80700000D01*
%TO.N,STP_RESET*%
X125600000Y-110800000D02*
X126100000Y-111300000D01*
X127500000Y-96400000D02*
X125600000Y-98300000D01*
X127700000Y-111300000D02*
X128000000Y-111600000D01*
X126100000Y-111300000D02*
X127700000Y-111300000D01*
X125600000Y-98300000D02*
X125600000Y-110800000D01*
%TO.N,Net-(IC3-IO4)*%
X129400000Y-103700000D02*
X129400000Y-100700000D01*
X129400000Y-98354000D02*
X129800000Y-97954000D01*
X129400000Y-100700000D02*
X129400000Y-98354000D01*
%TD*%
%TA.AperFunction,Conductor*%
%TO.N,+24V*%
G36*
X170324042Y-75698238D02*
G01*
X170327148Y-75703788D01*
X170495866Y-76408898D01*
X170494458Y-76417742D01*
X170487210Y-76423000D01*
X170486797Y-76423091D01*
X170102310Y-76500534D01*
X170097690Y-76500534D01*
X169713202Y-76423091D01*
X169705768Y-76418098D01*
X169704042Y-76409311D01*
X169704121Y-76408951D01*
X169872852Y-75703788D01*
X169878110Y-75696540D01*
X169884231Y-75694811D01*
X170315769Y-75694811D01*
X170324042Y-75698238D01*
G37*
%TD.AperFunction*%
%TD*%
%TA.AperFunction,Conductor*%
%TO.N,+24V*%
G36*
X169544110Y-70584142D02*
G01*
X169544337Y-70584498D01*
X169923623Y-71202388D01*
X169925031Y-71211232D01*
X169921925Y-71216782D01*
X169616782Y-71521925D01*
X169608509Y-71525352D01*
X169602388Y-71523623D01*
X168984498Y-71144337D01*
X168979240Y-71137089D01*
X168980648Y-71128245D01*
X168980841Y-71127941D01*
X169197990Y-70801252D01*
X169201252Y-70797990D01*
X169527892Y-70580874D01*
X169536676Y-70579149D01*
X169544110Y-70584142D01*
G37*
%TD.AperFunction*%
%TD*%
%TA.AperFunction,Conductor*%
%TO.N,ESP_EN*%
G36*
X151014025Y-126199798D02*
G01*
X151016524Y-126203504D01*
X151178627Y-126585829D01*
X151178701Y-126594783D01*
X151174384Y-126600105D01*
X150956529Y-126746609D01*
X150947752Y-126748382D01*
X150943471Y-126746609D01*
X150725615Y-126600105D01*
X150720662Y-126592644D01*
X150721371Y-126585831D01*
X150883476Y-126203504D01*
X150889861Y-126197225D01*
X150894248Y-126196371D01*
X151005752Y-126196371D01*
X151014025Y-126199798D01*
G37*
%TD.AperFunction*%
%TD*%
%TA.AperFunction,Conductor*%
%TO.N,ESP_EN*%
G36*
X156991792Y-110498125D02*
G01*
X156999551Y-110502597D01*
X157001874Y-110508207D01*
X157155267Y-111679325D01*
X157152944Y-111687973D01*
X157146430Y-111692213D01*
X155502914Y-112091724D01*
X155494065Y-112090348D01*
X155491877Y-112088628D01*
X155411371Y-112008122D01*
X155407944Y-111999849D01*
X155408273Y-111997093D01*
X155807786Y-110353567D01*
X155813070Y-110346340D01*
X155820673Y-110344732D01*
X156991792Y-110498125D01*
G37*
%TD.AperFunction*%
%TD*%
%TA.AperFunction,Conductor*%
%TO.N,ESP_EN*%
G36*
X149664168Y-111025371D02*
G01*
X150046497Y-111187476D01*
X150052775Y-111193860D01*
X150053629Y-111198247D01*
X150053629Y-111309752D01*
X150050202Y-111318025D01*
X150046496Y-111320524D01*
X149664170Y-111482627D01*
X149655216Y-111482701D01*
X149649894Y-111478384D01*
X149543736Y-111320524D01*
X149503389Y-111260527D01*
X149501617Y-111251752D01*
X149503388Y-111247473D01*
X149649895Y-111029614D01*
X149657355Y-111024662D01*
X149664168Y-111025371D01*
G37*
%TD.AperFunction*%
%TD*%
%TA.AperFunction,Conductor*%
%TO.N,FAN_TACH*%
G36*
X141292986Y-64197781D02*
G01*
X141300446Y-64202733D01*
X141302219Y-64207014D01*
X141352672Y-64464655D01*
X141350899Y-64473432D01*
X141345577Y-64477749D01*
X140960607Y-64633470D01*
X140951653Y-64633396D01*
X140947947Y-64630897D01*
X140869102Y-64552052D01*
X140865675Y-64543779D01*
X140866529Y-64539392D01*
X140896760Y-64464655D01*
X141022251Y-64154420D01*
X141028529Y-64148037D01*
X141035344Y-64147327D01*
X141292986Y-64197781D01*
G37*
%TD.AperFunction*%
%TD*%
%TA.AperFunction,Conductor*%
%TO.N,FAN_TACH*%
G36*
X145019473Y-121788101D02*
G01*
X145019995Y-121788658D01*
X145323621Y-122134717D01*
X145326501Y-122143196D01*
X145322542Y-122151228D01*
X145321355Y-122152142D01*
X145104058Y-122298270D01*
X145095281Y-122300043D01*
X145095206Y-122300028D01*
X144836641Y-122247653D01*
X144829213Y-122242652D01*
X144827374Y-122234586D01*
X144838758Y-122152142D01*
X144888105Y-121794773D01*
X144892631Y-121787047D01*
X144899695Y-121784674D01*
X145011200Y-121784674D01*
X145019473Y-121788101D01*
G37*
%TD.AperFunction*%
%TD*%
%TA.AperFunction,Conductor*%
%TO.N,FAN_PWM*%
G36*
X144006526Y-58703388D02*
G01*
X144224384Y-58849894D01*
X144229337Y-58857355D01*
X144228627Y-58864170D01*
X144066524Y-59246496D01*
X144060139Y-59252775D01*
X144055752Y-59253629D01*
X143944248Y-59253629D01*
X143935975Y-59250202D01*
X143933476Y-59246496D01*
X143771372Y-58864170D01*
X143771298Y-58855216D01*
X143775613Y-58849895D01*
X143993472Y-58703389D01*
X144002248Y-58701617D01*
X144006526Y-58703388D01*
G37*
%TD.AperFunction*%
%TD*%
%TA.AperFunction,Conductor*%
%TO.N,FAN_PWM*%
G36*
X146464025Y-120849798D02*
G01*
X146466524Y-120853504D01*
X146628627Y-121235829D01*
X146628701Y-121244783D01*
X146624384Y-121250105D01*
X146406529Y-121396609D01*
X146397752Y-121398382D01*
X146393471Y-121396609D01*
X146175615Y-121250105D01*
X146170662Y-121242644D01*
X146171371Y-121235831D01*
X146333476Y-120853504D01*
X146339861Y-120847225D01*
X146344248Y-120846371D01*
X146455752Y-120846371D01*
X146464025Y-120849798D01*
G37*
%TD.AperFunction*%
%TD*%
%TA.AperFunction,Conductor*%
%TO.N,ESP_RX*%
G36*
X160148346Y-124266603D02*
G01*
X160152052Y-124269102D01*
X160230897Y-124347947D01*
X160234324Y-124356220D01*
X160233470Y-124360607D01*
X160077749Y-124745577D01*
X160071470Y-124751962D01*
X160064655Y-124752672D01*
X159807014Y-124702219D01*
X159799553Y-124697266D01*
X159797781Y-124692988D01*
X159747327Y-124435343D01*
X159749100Y-124426567D01*
X159754420Y-124422251D01*
X160139392Y-124266529D01*
X160148346Y-124266603D01*
G37*
%TD.AperFunction*%
%TD*%
%TA.AperFunction,Conductor*%
%TO.N,STP_MS1*%
G36*
X135192986Y-89797781D02*
G01*
X135200446Y-89802733D01*
X135202219Y-89807014D01*
X135252672Y-90064655D01*
X135250899Y-90073432D01*
X135245577Y-90077749D01*
X134860607Y-90233470D01*
X134851653Y-90233396D01*
X134847947Y-90230897D01*
X134769102Y-90152052D01*
X134765675Y-90143779D01*
X134766529Y-90139392D01*
X134796760Y-90064655D01*
X134922251Y-89754420D01*
X134928529Y-89748037D01*
X134935344Y-89747327D01*
X135192986Y-89797781D01*
G37*
%TD.AperFunction*%
%TD*%
%TA.AperFunction,Conductor*%
%TO.N,STP_MS1*%
G36*
X133360607Y-113866529D02*
G01*
X133542872Y-113940255D01*
X133745577Y-114022250D01*
X133751962Y-114028529D01*
X133752672Y-114035344D01*
X133702219Y-114292985D01*
X133697266Y-114300446D01*
X133692985Y-114302219D01*
X133435344Y-114352672D01*
X133426567Y-114350899D01*
X133422250Y-114345577D01*
X133403994Y-114300446D01*
X133296760Y-114035344D01*
X133266529Y-113960607D01*
X133266603Y-113951653D01*
X133269099Y-113947950D01*
X133347948Y-113869101D01*
X133356220Y-113865675D01*
X133360607Y-113866529D01*
G37*
%TD.AperFunction*%
%TD*%
%TA.AperFunction,Conductor*%
%TO.N,STP_MS0*%
G36*
X129006526Y-92903388D02*
G01*
X129224384Y-93049894D01*
X129229337Y-93057355D01*
X129228627Y-93064170D01*
X129066524Y-93446496D01*
X129060139Y-93452775D01*
X129055752Y-93453629D01*
X128944248Y-93453629D01*
X128935975Y-93450202D01*
X128933476Y-93446496D01*
X128771372Y-93064170D01*
X128771298Y-93055216D01*
X128775613Y-93049895D01*
X128993472Y-92903389D01*
X129002248Y-92901617D01*
X129006526Y-92903388D01*
G37*
%TD.AperFunction*%
%TD*%
%TA.AperFunction,Conductor*%
%TO.N,STP_MS0*%
G36*
X127564025Y-103149798D02*
G01*
X127566524Y-103153504D01*
X127728627Y-103535829D01*
X127728701Y-103544783D01*
X127724384Y-103550105D01*
X127506529Y-103696609D01*
X127497752Y-103698382D01*
X127493471Y-103696609D01*
X127275615Y-103550105D01*
X127270662Y-103542644D01*
X127271371Y-103535831D01*
X127433476Y-103153504D01*
X127439861Y-103147225D01*
X127444248Y-103146371D01*
X127555752Y-103146371D01*
X127564025Y-103149798D01*
G37*
%TD.AperFunction*%
%TD*%
%TA.AperFunction,Conductor*%
%TO.N,STP_STEP*%
G36*
X133592986Y-87597781D02*
G01*
X133600446Y-87602733D01*
X133602219Y-87607014D01*
X133652672Y-87864655D01*
X133650899Y-87873432D01*
X133645577Y-87877749D01*
X133260607Y-88033470D01*
X133251653Y-88033396D01*
X133247947Y-88030897D01*
X133169102Y-87952052D01*
X133165675Y-87943779D01*
X133166529Y-87939392D01*
X133196760Y-87864655D01*
X133322251Y-87554420D01*
X133328529Y-87548037D01*
X133335344Y-87547327D01*
X133592986Y-87597781D01*
G37*
%TD.AperFunction*%
%TD*%
%TA.AperFunction,Conductor*%
%TO.N,STP_STEP*%
G36*
X130564025Y-103049798D02*
G01*
X130566524Y-103053504D01*
X130728627Y-103435829D01*
X130728701Y-103444783D01*
X130724384Y-103450105D01*
X130506529Y-103596609D01*
X130497752Y-103598382D01*
X130493471Y-103596609D01*
X130275615Y-103450105D01*
X130270662Y-103442644D01*
X130271371Y-103435831D01*
X130433476Y-103053504D01*
X130439861Y-103047225D01*
X130444248Y-103046371D01*
X130555752Y-103046371D01*
X130564025Y-103049798D01*
G37*
%TD.AperFunction*%
%TD*%
%TA.AperFunction,Conductor*%
%TO.N,STP_FLT*%
G36*
X138706526Y-81403388D02*
G01*
X138924384Y-81549894D01*
X138929337Y-81557355D01*
X138928627Y-81564170D01*
X138766524Y-81946496D01*
X138760139Y-81952775D01*
X138755752Y-81953629D01*
X138644248Y-81953629D01*
X138635975Y-81950202D01*
X138633476Y-81946496D01*
X138471372Y-81564170D01*
X138471298Y-81555216D01*
X138475613Y-81549895D01*
X138693472Y-81403389D01*
X138702248Y-81401617D01*
X138706526Y-81403388D01*
G37*
%TD.AperFunction*%
%TD*%
%TA.AperFunction,Conductor*%
%TO.N,STP_FLT*%
G36*
X137564025Y-125149798D02*
G01*
X137566524Y-125153504D01*
X137728627Y-125535829D01*
X137728701Y-125544783D01*
X137724384Y-125550105D01*
X137506529Y-125696609D01*
X137497752Y-125698382D01*
X137493471Y-125696609D01*
X137275615Y-125550105D01*
X137270662Y-125542644D01*
X137271371Y-125535831D01*
X137433476Y-125153504D01*
X137439861Y-125147225D01*
X137444248Y-125146371D01*
X137555752Y-125146371D01*
X137564025Y-125149798D01*
G37*
%TD.AperFunction*%
%TD*%
%TA.AperFunction,Conductor*%
%TO.N,STP_DIR*%
G36*
X146164025Y-110149798D02*
G01*
X146166524Y-110153504D01*
X146328627Y-110535829D01*
X146328701Y-110544783D01*
X146324384Y-110550105D01*
X146106529Y-110696609D01*
X146097752Y-110698382D01*
X146093471Y-110696609D01*
X145875615Y-110550105D01*
X145870662Y-110542644D01*
X145871371Y-110535831D01*
X146033476Y-110153504D01*
X146039861Y-110147225D01*
X146044248Y-110146371D01*
X146155752Y-110146371D01*
X146164025Y-110149798D01*
G37*
%TD.AperFunction*%
%TD*%
%TA.AperFunction,Conductor*%
%TO.N,STP_DIR*%
G36*
X157692986Y-72497781D02*
G01*
X157700446Y-72502733D01*
X157702219Y-72507014D01*
X157752672Y-72764655D01*
X157750899Y-72773432D01*
X157745577Y-72777749D01*
X157360607Y-72933470D01*
X157351653Y-72933396D01*
X157347947Y-72930897D01*
X157269102Y-72852052D01*
X157265675Y-72843779D01*
X157266529Y-72839392D01*
X157296760Y-72764655D01*
X157422251Y-72454420D01*
X157428529Y-72448037D01*
X157435344Y-72447327D01*
X157692986Y-72497781D01*
G37*
%TD.AperFunction*%
%TD*%
%TA.AperFunction,Conductor*%
%TO.N,STP_DIR*%
G36*
X157550105Y-72275615D02*
G01*
X157696609Y-72493471D01*
X157698382Y-72502248D01*
X157696609Y-72506529D01*
X157550105Y-72724384D01*
X157542644Y-72729337D01*
X157535829Y-72728627D01*
X157153504Y-72566524D01*
X157147225Y-72560139D01*
X157146371Y-72555752D01*
X157146371Y-72444247D01*
X157149798Y-72435974D01*
X157153501Y-72433476D01*
X157535831Y-72271371D01*
X157544783Y-72271298D01*
X157550105Y-72275615D01*
G37*
%TD.AperFunction*%
%TD*%
%TA.AperFunction,Conductor*%
%TO.N,STP_MS2*%
G36*
X135348346Y-114766603D02*
G01*
X135352052Y-114769102D01*
X135430897Y-114847947D01*
X135434324Y-114856220D01*
X135433470Y-114860607D01*
X135277749Y-115245577D01*
X135271470Y-115251962D01*
X135264655Y-115252672D01*
X135007014Y-115202219D01*
X134999553Y-115197266D01*
X134997781Y-115192988D01*
X134947327Y-114935343D01*
X134949100Y-114926567D01*
X134954420Y-114922251D01*
X135339392Y-114766529D01*
X135348346Y-114766603D01*
G37*
%TD.AperFunction*%
%TD*%
%TA.AperFunction,Conductor*%
%TO.N,STP_MS2*%
G36*
X136292986Y-90697781D02*
G01*
X136300446Y-90702733D01*
X136302219Y-90707014D01*
X136352672Y-90964655D01*
X136350899Y-90973432D01*
X136345577Y-90977749D01*
X135960607Y-91133470D01*
X135951653Y-91133396D01*
X135947947Y-91130897D01*
X135869102Y-91052052D01*
X135865675Y-91043779D01*
X135866529Y-91039392D01*
X135896760Y-90964655D01*
X136022251Y-90654420D01*
X136028529Y-90648037D01*
X136035344Y-90647327D01*
X136292986Y-90697781D01*
G37*
%TD.AperFunction*%
%TD*%
%TA.AperFunction,Conductor*%
%TO.N,TEMP_SENSE*%
G36*
X164224299Y-80640920D02*
G01*
X164229171Y-80648433D01*
X164229366Y-80650558D01*
X164229366Y-80760725D01*
X164228119Y-80765980D01*
X164038330Y-81143477D01*
X164031552Y-81149330D01*
X164022622Y-81148675D01*
X164021396Y-81147963D01*
X163908346Y-81072749D01*
X163803064Y-81002704D01*
X163798076Y-80995271D01*
X163747737Y-80737470D01*
X163749515Y-80728695D01*
X163756978Y-80723746D01*
X163756995Y-80723742D01*
X164215541Y-80639053D01*
X164224299Y-80640920D01*
G37*
%TD.AperFunction*%
%TD*%
%TA.AperFunction,Conductor*%
%TO.N,STP_RESET*%
G36*
X127492986Y-96397781D02*
G01*
X127500446Y-96402733D01*
X127502219Y-96407014D01*
X127552672Y-96664655D01*
X127550899Y-96673432D01*
X127545577Y-96677749D01*
X127160607Y-96833470D01*
X127151653Y-96833396D01*
X127147947Y-96830897D01*
X127069102Y-96752052D01*
X127065675Y-96743779D01*
X127066529Y-96739392D01*
X127096760Y-96664655D01*
X127222251Y-96354420D01*
X127228529Y-96348037D01*
X127235344Y-96347327D01*
X127492986Y-96397781D01*
G37*
%TD.AperFunction*%
%TD*%
%TA.AperFunction,Conductor*%
%TO.N,STP_RESET*%
G36*
X127584455Y-111239052D02*
G01*
X128042904Y-111323724D01*
X128050417Y-111328596D01*
X128052284Y-111337354D01*
X128052262Y-111337471D01*
X128001936Y-111595206D01*
X127996987Y-111602669D01*
X127996934Y-111602705D01*
X127778603Y-111747963D01*
X127769817Y-111749693D01*
X127762381Y-111744703D01*
X127761669Y-111743477D01*
X127571881Y-111365980D01*
X127570634Y-111360725D01*
X127570634Y-111250558D01*
X127574061Y-111242285D01*
X127582334Y-111238858D01*
X127584455Y-111239052D01*
G37*
%TD.AperFunction*%
%TD*%
%TA.AperFunction,Conductor*%
%TO.N,Net-(IC3-IO4)*%
G36*
X129464025Y-103149798D02*
G01*
X129466524Y-103153504D01*
X129628627Y-103535829D01*
X129628701Y-103544783D01*
X129624384Y-103550105D01*
X129406529Y-103696609D01*
X129397752Y-103698382D01*
X129393471Y-103696609D01*
X129175615Y-103550105D01*
X129170662Y-103542644D01*
X129171371Y-103535831D01*
X129333476Y-103153504D01*
X129339861Y-103147225D01*
X129344248Y-103146371D01*
X129455752Y-103146371D01*
X129464025Y-103149798D01*
G37*
%TD.AperFunction*%
%TD*%
%TA.AperFunction,Conductor*%
%TO.N,Net-(IC3-IO4)*%
G36*
X129792986Y-97951781D02*
G01*
X129800446Y-97956733D01*
X129802219Y-97961014D01*
X129852672Y-98218655D01*
X129850899Y-98227432D01*
X129845577Y-98231749D01*
X129460607Y-98387470D01*
X129451653Y-98387396D01*
X129447947Y-98384897D01*
X129369102Y-98306052D01*
X129365675Y-98297779D01*
X129366529Y-98293392D01*
X129396760Y-98218655D01*
X129522251Y-97908420D01*
X129528529Y-97902037D01*
X129535344Y-97901327D01*
X129792986Y-97951781D01*
G37*
%TD.AperFunction*%
%TD*%
M02*
