%TF.GenerationSoftware,KiCad,Pcbnew,9.0.6*%
%TF.CreationDate,2026-02-25T18:26:58-05:00*%
%TF.ProjectId,P1012202501-ESP32_Stepper_Controller,50313031-3232-4303-9235-30312d455350,rev?*%
%TF.SameCoordinates,Original*%
%TF.FileFunction,Copper,L6,Bot*%
%TF.FilePolarity,Positive*%
%FSLAX46Y46*%
G04 Gerber Fmt 4.6, Leading zero omitted, Abs format (unit mm)*
G04 Created by KiCad (PCBNEW 9.0.6) date 2026-02-25 18:26:58*
%MOMM*%
%LPD*%
G01*
G04 APERTURE LIST*
%ADD10C,0.300000*%
%TA.AperFunction,NonConductor*%
%ADD11C,0.300000*%
%TD*%
%TA.AperFunction,ComponentPad*%
%ADD12R,2.550000X2.550000*%
%TD*%
%TA.AperFunction,ComponentPad*%
%ADD13C,2.550000*%
%TD*%
%TA.AperFunction,ComponentPad*%
%ADD14R,1.530000X1.530000*%
%TD*%
%TA.AperFunction,ComponentPad*%
%ADD15C,1.530000*%
%TD*%
%TA.AperFunction,ComponentPad*%
%ADD16C,2.400000*%
%TD*%
%TA.AperFunction,ComponentPad*%
%ADD17O,2.100000X1.000000*%
%TD*%
%TA.AperFunction,ComponentPad*%
%ADD18O,1.800000X1.000000*%
%TD*%
%TA.AperFunction,ComponentPad*%
%ADD19C,8.000000*%
%TD*%
%TA.AperFunction,ComponentPad*%
%ADD20R,1.725000X1.725000*%
%TD*%
%TA.AperFunction,ComponentPad*%
%ADD21C,1.725000*%
%TD*%
%TA.AperFunction,SMDPad,CuDef*%
%ADD22R,0.650000X0.900000*%
%TD*%
%TA.AperFunction,SMDPad,CuDef*%
%ADD23R,0.900000X0.650000*%
%TD*%
%TA.AperFunction,SMDPad,CuDef*%
%ADD24R,1.250000X0.600000*%
%TD*%
%TA.AperFunction,SMDPad,CuDef*%
%ADD25R,1.100000X2.700000*%
%TD*%
%TA.AperFunction,SMDPad,CuDef*%
%ADD26R,1.500000X0.650000*%
%TD*%
%TA.AperFunction,SMDPad,CuDef*%
%ADD27R,0.970000X1.470000*%
%TD*%
%TA.AperFunction,SMDPad,CuDef*%
%ADD28R,1.150000X1.150000*%
%TD*%
%TA.AperFunction,SMDPad,CuDef*%
%ADD29C,1.000000*%
%TD*%
%TA.AperFunction,SMDPad,CuDef*%
%ADD30R,0.940000X0.830000*%
%TD*%
%TA.AperFunction,SMDPad,CuDef*%
%ADD31R,0.400000X1.050000*%
%TD*%
%TA.AperFunction,SMDPad,CuDef*%
%ADD32R,0.600000X1.250000*%
%TD*%
%TA.AperFunction,SMDPad,CuDef*%
%ADD33R,0.830000X0.940000*%
%TD*%
%TA.AperFunction,ViaPad*%
%ADD34C,0.559000*%
%TD*%
%TA.AperFunction,ViaPad*%
%ADD35C,0.813000*%
%TD*%
%TA.AperFunction,Conductor*%
%ADD36C,0.254000*%
%TD*%
%TA.AperFunction,Conductor*%
%ADD37C,0.127000*%
%TD*%
%TA.AperFunction,Conductor*%
%ADD38C,0.200000*%
%TD*%
G04 APERTURE END LIST*
D10*
D11*
X146445489Y-54300828D02*
X146445489Y-52800828D01*
X146445489Y-52800828D02*
X145874060Y-52800828D01*
X145874060Y-52800828D02*
X145731203Y-52872257D01*
X145731203Y-52872257D02*
X145659774Y-52943685D01*
X145659774Y-52943685D02*
X145588346Y-53086542D01*
X145588346Y-53086542D02*
X145588346Y-53300828D01*
X145588346Y-53300828D02*
X145659774Y-53443685D01*
X145659774Y-53443685D02*
X145731203Y-53515114D01*
X145731203Y-53515114D02*
X145874060Y-53586542D01*
X145874060Y-53586542D02*
X146445489Y-53586542D01*
X144159774Y-54300828D02*
X145016917Y-54300828D01*
X144588346Y-54300828D02*
X144588346Y-52800828D01*
X144588346Y-52800828D02*
X144731203Y-53015114D01*
X144731203Y-53015114D02*
X144874060Y-53157971D01*
X144874060Y-53157971D02*
X145016917Y-53229400D01*
X143231203Y-52800828D02*
X143088346Y-52800828D01*
X143088346Y-52800828D02*
X142945489Y-52872257D01*
X142945489Y-52872257D02*
X142874061Y-52943685D01*
X142874061Y-52943685D02*
X142802632Y-53086542D01*
X142802632Y-53086542D02*
X142731203Y-53372257D01*
X142731203Y-53372257D02*
X142731203Y-53729400D01*
X142731203Y-53729400D02*
X142802632Y-54015114D01*
X142802632Y-54015114D02*
X142874061Y-54157971D01*
X142874061Y-54157971D02*
X142945489Y-54229400D01*
X142945489Y-54229400D02*
X143088346Y-54300828D01*
X143088346Y-54300828D02*
X143231203Y-54300828D01*
X143231203Y-54300828D02*
X143374061Y-54229400D01*
X143374061Y-54229400D02*
X143445489Y-54157971D01*
X143445489Y-54157971D02*
X143516918Y-54015114D01*
X143516918Y-54015114D02*
X143588346Y-53729400D01*
X143588346Y-53729400D02*
X143588346Y-53372257D01*
X143588346Y-53372257D02*
X143516918Y-53086542D01*
X143516918Y-53086542D02*
X143445489Y-52943685D01*
X143445489Y-52943685D02*
X143374061Y-52872257D01*
X143374061Y-52872257D02*
X143231203Y-52800828D01*
X141302632Y-54300828D02*
X142159775Y-54300828D01*
X141731204Y-54300828D02*
X141731204Y-52800828D01*
X141731204Y-52800828D02*
X141874061Y-53015114D01*
X141874061Y-53015114D02*
X142016918Y-53157971D01*
X142016918Y-53157971D02*
X142159775Y-53229400D01*
X140731204Y-52943685D02*
X140659776Y-52872257D01*
X140659776Y-52872257D02*
X140516919Y-52800828D01*
X140516919Y-52800828D02*
X140159776Y-52800828D01*
X140159776Y-52800828D02*
X140016919Y-52872257D01*
X140016919Y-52872257D02*
X139945490Y-52943685D01*
X139945490Y-52943685D02*
X139874061Y-53086542D01*
X139874061Y-53086542D02*
X139874061Y-53229400D01*
X139874061Y-53229400D02*
X139945490Y-53443685D01*
X139945490Y-53443685D02*
X140802633Y-54300828D01*
X140802633Y-54300828D02*
X139874061Y-54300828D01*
X139302633Y-52943685D02*
X139231205Y-52872257D01*
X139231205Y-52872257D02*
X139088348Y-52800828D01*
X139088348Y-52800828D02*
X138731205Y-52800828D01*
X138731205Y-52800828D02*
X138588348Y-52872257D01*
X138588348Y-52872257D02*
X138516919Y-52943685D01*
X138516919Y-52943685D02*
X138445490Y-53086542D01*
X138445490Y-53086542D02*
X138445490Y-53229400D01*
X138445490Y-53229400D02*
X138516919Y-53443685D01*
X138516919Y-53443685D02*
X139374062Y-54300828D01*
X139374062Y-54300828D02*
X138445490Y-54300828D01*
X137516919Y-52800828D02*
X137374062Y-52800828D01*
X137374062Y-52800828D02*
X137231205Y-52872257D01*
X137231205Y-52872257D02*
X137159777Y-52943685D01*
X137159777Y-52943685D02*
X137088348Y-53086542D01*
X137088348Y-53086542D02*
X137016919Y-53372257D01*
X137016919Y-53372257D02*
X137016919Y-53729400D01*
X137016919Y-53729400D02*
X137088348Y-54015114D01*
X137088348Y-54015114D02*
X137159777Y-54157971D01*
X137159777Y-54157971D02*
X137231205Y-54229400D01*
X137231205Y-54229400D02*
X137374062Y-54300828D01*
X137374062Y-54300828D02*
X137516919Y-54300828D01*
X137516919Y-54300828D02*
X137659777Y-54229400D01*
X137659777Y-54229400D02*
X137731205Y-54157971D01*
X137731205Y-54157971D02*
X137802634Y-54015114D01*
X137802634Y-54015114D02*
X137874062Y-53729400D01*
X137874062Y-53729400D02*
X137874062Y-53372257D01*
X137874062Y-53372257D02*
X137802634Y-53086542D01*
X137802634Y-53086542D02*
X137731205Y-52943685D01*
X137731205Y-52943685D02*
X137659777Y-52872257D01*
X137659777Y-52872257D02*
X137516919Y-52800828D01*
X136445491Y-52943685D02*
X136374063Y-52872257D01*
X136374063Y-52872257D02*
X136231206Y-52800828D01*
X136231206Y-52800828D02*
X135874063Y-52800828D01*
X135874063Y-52800828D02*
X135731206Y-52872257D01*
X135731206Y-52872257D02*
X135659777Y-52943685D01*
X135659777Y-52943685D02*
X135588348Y-53086542D01*
X135588348Y-53086542D02*
X135588348Y-53229400D01*
X135588348Y-53229400D02*
X135659777Y-53443685D01*
X135659777Y-53443685D02*
X136516920Y-54300828D01*
X136516920Y-54300828D02*
X135588348Y-54300828D01*
X134231206Y-52800828D02*
X134945492Y-52800828D01*
X134945492Y-52800828D02*
X135016920Y-53515114D01*
X135016920Y-53515114D02*
X134945492Y-53443685D01*
X134945492Y-53443685D02*
X134802635Y-53372257D01*
X134802635Y-53372257D02*
X134445492Y-53372257D01*
X134445492Y-53372257D02*
X134302635Y-53443685D01*
X134302635Y-53443685D02*
X134231206Y-53515114D01*
X134231206Y-53515114D02*
X134159777Y-53657971D01*
X134159777Y-53657971D02*
X134159777Y-54015114D01*
X134159777Y-54015114D02*
X134231206Y-54157971D01*
X134231206Y-54157971D02*
X134302635Y-54229400D01*
X134302635Y-54229400D02*
X134445492Y-54300828D01*
X134445492Y-54300828D02*
X134802635Y-54300828D01*
X134802635Y-54300828D02*
X134945492Y-54229400D01*
X134945492Y-54229400D02*
X135016920Y-54157971D01*
X133231206Y-52800828D02*
X133088349Y-52800828D01*
X133088349Y-52800828D02*
X132945492Y-52872257D01*
X132945492Y-52872257D02*
X132874064Y-52943685D01*
X132874064Y-52943685D02*
X132802635Y-53086542D01*
X132802635Y-53086542D02*
X132731206Y-53372257D01*
X132731206Y-53372257D02*
X132731206Y-53729400D01*
X132731206Y-53729400D02*
X132802635Y-54015114D01*
X132802635Y-54015114D02*
X132874064Y-54157971D01*
X132874064Y-54157971D02*
X132945492Y-54229400D01*
X132945492Y-54229400D02*
X133088349Y-54300828D01*
X133088349Y-54300828D02*
X133231206Y-54300828D01*
X133231206Y-54300828D02*
X133374064Y-54229400D01*
X133374064Y-54229400D02*
X133445492Y-54157971D01*
X133445492Y-54157971D02*
X133516921Y-54015114D01*
X133516921Y-54015114D02*
X133588349Y-53729400D01*
X133588349Y-53729400D02*
X133588349Y-53372257D01*
X133588349Y-53372257D02*
X133516921Y-53086542D01*
X133516921Y-53086542D02*
X133445492Y-52943685D01*
X133445492Y-52943685D02*
X133374064Y-52872257D01*
X133374064Y-52872257D02*
X133231206Y-52800828D01*
X131302635Y-54300828D02*
X132159778Y-54300828D01*
X131731207Y-54300828D02*
X131731207Y-52800828D01*
X131731207Y-52800828D02*
X131874064Y-53015114D01*
X131874064Y-53015114D02*
X132016921Y-53157971D01*
X132016921Y-53157971D02*
X132159778Y-53229400D01*
X130659779Y-53729400D02*
X129516922Y-53729400D01*
X128802636Y-54300828D02*
X128802636Y-52800828D01*
X128802636Y-52800828D02*
X128231207Y-52800828D01*
X128231207Y-52800828D02*
X128088350Y-52872257D01*
X128088350Y-52872257D02*
X128016921Y-52943685D01*
X128016921Y-52943685D02*
X127945493Y-53086542D01*
X127945493Y-53086542D02*
X127945493Y-53300828D01*
X127945493Y-53300828D02*
X128016921Y-53443685D01*
X128016921Y-53443685D02*
X128088350Y-53515114D01*
X128088350Y-53515114D02*
X128231207Y-53586542D01*
X128231207Y-53586542D02*
X128802636Y-53586542D01*
X126445493Y-54157971D02*
X126516921Y-54229400D01*
X126516921Y-54229400D02*
X126731207Y-54300828D01*
X126731207Y-54300828D02*
X126874064Y-54300828D01*
X126874064Y-54300828D02*
X127088350Y-54229400D01*
X127088350Y-54229400D02*
X127231207Y-54086542D01*
X127231207Y-54086542D02*
X127302636Y-53943685D01*
X127302636Y-53943685D02*
X127374064Y-53657971D01*
X127374064Y-53657971D02*
X127374064Y-53443685D01*
X127374064Y-53443685D02*
X127302636Y-53157971D01*
X127302636Y-53157971D02*
X127231207Y-53015114D01*
X127231207Y-53015114D02*
X127088350Y-52872257D01*
X127088350Y-52872257D02*
X126874064Y-52800828D01*
X126874064Y-52800828D02*
X126731207Y-52800828D01*
X126731207Y-52800828D02*
X126516921Y-52872257D01*
X126516921Y-52872257D02*
X126445493Y-52943685D01*
X125302636Y-53515114D02*
X125088350Y-53586542D01*
X125088350Y-53586542D02*
X125016921Y-53657971D01*
X125016921Y-53657971D02*
X124945493Y-53800828D01*
X124945493Y-53800828D02*
X124945493Y-54015114D01*
X124945493Y-54015114D02*
X125016921Y-54157971D01*
X125016921Y-54157971D02*
X125088350Y-54229400D01*
X125088350Y-54229400D02*
X125231207Y-54300828D01*
X125231207Y-54300828D02*
X125802636Y-54300828D01*
X125802636Y-54300828D02*
X125802636Y-52800828D01*
X125802636Y-52800828D02*
X125302636Y-52800828D01*
X125302636Y-52800828D02*
X125159779Y-52872257D01*
X125159779Y-52872257D02*
X125088350Y-52943685D01*
X125088350Y-52943685D02*
X125016921Y-53086542D01*
X125016921Y-53086542D02*
X125016921Y-53229400D01*
X125016921Y-53229400D02*
X125088350Y-53372257D01*
X125088350Y-53372257D02*
X125159779Y-53443685D01*
X125159779Y-53443685D02*
X125302636Y-53515114D01*
X125302636Y-53515114D02*
X125802636Y-53515114D01*
X124302636Y-53729400D02*
X123159779Y-53729400D01*
X122159778Y-52800828D02*
X122016921Y-52800828D01*
X122016921Y-52800828D02*
X121874064Y-52872257D01*
X121874064Y-52872257D02*
X121802636Y-52943685D01*
X121802636Y-52943685D02*
X121731207Y-53086542D01*
X121731207Y-53086542D02*
X121659778Y-53372257D01*
X121659778Y-53372257D02*
X121659778Y-53729400D01*
X121659778Y-53729400D02*
X121731207Y-54015114D01*
X121731207Y-54015114D02*
X121802636Y-54157971D01*
X121802636Y-54157971D02*
X121874064Y-54229400D01*
X121874064Y-54229400D02*
X122016921Y-54300828D01*
X122016921Y-54300828D02*
X122159778Y-54300828D01*
X122159778Y-54300828D02*
X122302636Y-54229400D01*
X122302636Y-54229400D02*
X122374064Y-54157971D01*
X122374064Y-54157971D02*
X122445493Y-54015114D01*
X122445493Y-54015114D02*
X122516921Y-53729400D01*
X122516921Y-53729400D02*
X122516921Y-53372257D01*
X122516921Y-53372257D02*
X122445493Y-53086542D01*
X122445493Y-53086542D02*
X122374064Y-52943685D01*
X122374064Y-52943685D02*
X122302636Y-52872257D01*
X122302636Y-52872257D02*
X122159778Y-52800828D01*
X121088350Y-52943685D02*
X121016922Y-52872257D01*
X121016922Y-52872257D02*
X120874065Y-52800828D01*
X120874065Y-52800828D02*
X120516922Y-52800828D01*
X120516922Y-52800828D02*
X120374065Y-52872257D01*
X120374065Y-52872257D02*
X120302636Y-52943685D01*
X120302636Y-52943685D02*
X120231207Y-53086542D01*
X120231207Y-53086542D02*
X120231207Y-53229400D01*
X120231207Y-53229400D02*
X120302636Y-53443685D01*
X120302636Y-53443685D02*
X121159779Y-54300828D01*
X121159779Y-54300828D02*
X120231207Y-54300828D01*
D12*
%TO.P,CN7,1,1*%
%TO.N,Net-(IC6-AOUT1)*%
X182500000Y-80500000D03*
D13*
%TO.P,CN7,2,2*%
%TO.N,Net-(IC6-AOUT2)*%
X182500000Y-75500000D03*
%TO.P,CN7,3,3*%
%TO.N,Net-(IC6-BOUT2)*%
X182500000Y-70500000D03*
%TO.P,CN7,4,4*%
%TO.N,Net-(IC6-BOUT1)*%
X182500000Y-65500000D03*
%TD*%
D14*
%TO.P,J2,1,1*%
%TO.N,/Limit Switches/LMT_C*%
X91000000Y-102000000D03*
D15*
%TO.P,J2,2,2*%
%TO.N,GND*%
X93540000Y-102000000D03*
%TD*%
D16*
%TO.P,TP13,1,1*%
%TO.N,GND*%
X112000000Y-93500000D03*
%TD*%
%TO.P,TP33,1,1*%
%TO.N,STP_MS2*%
X172000000Y-89500000D03*
%TD*%
%TO.P,TP31,1,1*%
%TO.N,STP_MS0*%
X162000000Y-89500000D03*
%TD*%
%TO.P,TP4,1,1*%
%TO.N,485_RX*%
X159000000Y-96500000D03*
%TD*%
%TO.P,TP28,1,1*%
%TO.N,STP_RESET*%
X152000000Y-82500000D03*
%TD*%
%TO.P,TP23,1,1*%
%TO.N,/USB UART/USB_D_N*%
X176000000Y-128000000D03*
%TD*%
%TO.P,TP19,1,1*%
%TO.N,/USB UART/DTR*%
X157000000Y-105500000D03*
%TD*%
D17*
%TO.P,CN5,SH1,SHELL_GND*%
%TO.N,GND*%
X183820000Y-123820000D03*
%TO.P,CN5,SH2,SHELL_GND__1*%
X183820000Y-115180000D03*
D18*
%TO.P,CN5,SH3,SHELL_GND__2*%
X188000000Y-123820000D03*
%TO.P,CN5,SH4,SHELL_GND__3*%
X188000000Y-115180000D03*
%TD*%
D16*
%TO.P,TP20,1,1*%
%TO.N,BOOT_MODE*%
X157000000Y-120500000D03*
%TD*%
D12*
%TO.P,CN3,1,1*%
%TO.N,Net-(CN3-Pad1)*%
X79500000Y-87000000D03*
D13*
%TO.P,CN3,2,2*%
%TO.N,Net-(CN3-Pad2)*%
X79500000Y-92000000D03*
%TO.P,CN3,3,3*%
%TO.N,Net-(CN3-Pad3)*%
X79500000Y-97000000D03*
%TO.P,CN3,4,4*%
%TO.N,/Limit Switches/LMT_C*%
X79500000Y-102000000D03*
%TD*%
D16*
%TO.P,TP7,1,1*%
%TO.N,GND*%
X154000000Y-96500000D03*
%TD*%
%TO.P,TP3,1,1*%
%TO.N,GND*%
X131000000Y-74000000D03*
%TD*%
D19*
%TO.P,MH2,1,1*%
%TO.N,unconnected-(MH2-Pad1)*%
X76050000Y-55550000D03*
%TD*%
%TO.P,MH4,1,1*%
%TO.N,unconnected-(MH4-Pad1)*%
X186050000Y-55550000D03*
%TD*%
D16*
%TO.P,TP21,1,1*%
%TO.N,ESP_EN*%
X157000000Y-110500000D03*
%TD*%
%TO.P,TP10,1,1*%
%TO.N,LIMIT_1*%
X103000000Y-93500000D03*
%TD*%
%TO.P,TP18,1,1*%
%TO.N,/USB UART/RTS*%
X157000000Y-115500000D03*
%TD*%
%TO.P,TP26,1,1*%
%TO.N,TEMP_SENSE*%
X172000000Y-83500000D03*
%TD*%
%TO.P,TP12,1,1*%
%TO.N,LIMIT_3*%
X103000000Y-103500000D03*
%TD*%
D19*
%TO.P,MH1,1,1*%
%TO.N,unconnected-(MH1-Pad1)*%
X76050000Y-130550000D03*
%TD*%
D16*
%TO.P,TP1,1,1*%
%TO.N,+3V3*%
X131000000Y-65500000D03*
%TD*%
D12*
%TO.P,CN2,1,1*%
%TO.N,Net-(IC4-B)*%
X182500000Y-108500000D03*
D13*
%TO.P,CN2,2,2*%
%TO.N,Net-(IC4-A)*%
X182500000Y-103500000D03*
%TO.P,CN2,3,3*%
%TO.N,GND*%
X182500000Y-98500000D03*
%TD*%
D16*
%TO.P,TP6,1,1*%
%TO.N,485_TX*%
X169000000Y-96500000D03*
%TD*%
%TO.P,TP24,1,1*%
%TO.N,VBUS*%
X166000000Y-128000000D03*
%TD*%
%TO.P,TP35,1,1*%
%TO.N,FAN_TACH*%
X129000000Y-58000000D03*
%TD*%
%TO.P,TP15,1,1*%
%TO.N,INPUT_2*%
X103000000Y-115500000D03*
%TD*%
%TO.P,TP5,1,1*%
%TO.N,485_DIR*%
X164000000Y-96500000D03*
%TD*%
%TO.P,TP36,1,1*%
%TO.N,FAN_PWM*%
X134000000Y-58000000D03*
%TD*%
D19*
%TO.P,MH3,1,1*%
%TO.N,unconnected-(MH3-Pad1)*%
X186050000Y-130550000D03*
%TD*%
D16*
%TO.P,TP22,1,1*%
%TO.N,/USB UART/USB_D_P*%
X171000000Y-128000000D03*
%TD*%
D14*
%TO.P,J1,1,1*%
%TO.N,Net-(J1-Pad1)*%
X185000000Y-92500000D03*
D15*
%TO.P,J1,2,2*%
%TO.N,Net-(IC4-A)*%
X187540000Y-92500000D03*
%TD*%
D16*
%TO.P,TP30,1,1*%
%TO.N,STP_STEP*%
X152000000Y-89500000D03*
%TD*%
%TO.P,TP32,1,1*%
%TO.N,STP_MS1*%
X167000000Y-89500000D03*
%TD*%
%TO.P,TP14,1,1*%
%TO.N,INPUT_1*%
X103000000Y-110500000D03*
%TD*%
%TO.P,TP27,1,1*%
%TO.N,STP_ENABLE*%
X147000000Y-82500000D03*
%TD*%
D12*
%TO.P,CN4,1,1*%
%TO.N,Net-(CN4-Pad1)*%
X79500000Y-107500000D03*
D13*
%TO.P,CN4,2,2*%
%TO.N,Net-(CN4-Pad2)*%
X79500000Y-112500000D03*
%TO.P,CN4,3,3*%
%TO.N,Net-(CN4-Pad3)*%
X79500000Y-117500000D03*
%TO.P,CN4,4,4*%
%TO.N,/Control Inputs/INPUT_C*%
X79500000Y-122500000D03*
%TD*%
D16*
%TO.P,TP8,1,1*%
%TO.N,ESP_RX*%
X165000000Y-110500000D03*
%TD*%
%TO.P,TP29,1,1*%
%TO.N,STP_DIR*%
X147000000Y-89500000D03*
%TD*%
%TO.P,TP2,1,1*%
%TO.N,+5V*%
X131000000Y-82500000D03*
%TD*%
D20*
%TO.P,J4,1,1*%
%TO.N,GND*%
X123000000Y-105500000D03*
D21*
%TO.P,J4,2,2*%
%TO.N,unconnected-(J4-Pad2)*%
X123000000Y-108040000D03*
%TO.P,J4,3,3*%
%TO.N,unconnected-(J4-Pad3)*%
X123000000Y-110580000D03*
%TO.P,J4,4,4*%
%TO.N,/ESP32/UART_RX*%
X123000000Y-113120000D03*
%TO.P,J4,5,5*%
%TO.N,/ESP32/UART_TX*%
X123000000Y-115660000D03*
%TO.P,J4,6,6*%
%TO.N,unconnected-(J4-Pad6)*%
X123000000Y-118200000D03*
%TD*%
D16*
%TO.P,TP34,1,1*%
%TO.N,STP_FLT*%
X157000000Y-89500000D03*
%TD*%
%TO.P,TP16,1,1*%
%TO.N,INPUT_3*%
X103000000Y-120500000D03*
%TD*%
%TO.P,TP25,1,1*%
%TO.N,GND*%
X161000000Y-128000000D03*
%TD*%
%TO.P,TP9,1,1*%
%TO.N,ESP_TX*%
X165000000Y-115500000D03*
%TD*%
D14*
%TO.P,J3,1,1*%
%TO.N,/Control Inputs/INPUT_C*%
X91000000Y-124000000D03*
D15*
%TO.P,J3,2,2*%
%TO.N,GND*%
X93540000Y-124000000D03*
%TD*%
D16*
%TO.P,TP17,1,1*%
%TO.N,GND*%
X112000000Y-110500000D03*
%TD*%
D12*
%TO.P,CN1,1,1*%
%TO.N,Net-(D3-A)*%
X79500000Y-68500000D03*
D13*
%TO.P,CN1,2,2*%
%TO.N,GND*%
X79500000Y-73500000D03*
%TD*%
D16*
%TO.P,TP11,1,1*%
%TO.N,LIMIT_2*%
X103000000Y-98500000D03*
%TD*%
D22*
%TO.P,R4,1,1*%
%TO.N,+3V3*%
X127275000Y-124500000D03*
%TO.P,R4,2,2*%
%TO.N,BOOT_MODE*%
X128725000Y-124500000D03*
%TD*%
D23*
%TO.P,R19,1,1*%
%TO.N,Net-(IC5-VBUS)*%
X173500000Y-116225000D03*
%TO.P,R19,2,2*%
%TO.N,GND*%
X173500000Y-114775000D03*
%TD*%
%TO.P,R20,1,1*%
%TO.N,Net-(Q7-B2)*%
X151500000Y-113775000D03*
%TO.P,R20,2,2*%
%TO.N,/USB UART/RTS*%
X151500000Y-115225000D03*
%TD*%
D22*
%TO.P,R15,1,1*%
%TO.N,INPUT_1*%
X92725000Y-108000000D03*
%TO.P,R15,2,2*%
%TO.N,GND*%
X91275000Y-108000000D03*
%TD*%
D24*
%TO.P,D4,1,1*%
%TO.N,Net-(IC4-A)*%
X185500000Y-106450000D03*
%TO.P,D4,2,2*%
%TO.N,Net-(IC4-B)*%
X185500000Y-104550000D03*
%TO.P,D4,3,3*%
%TO.N,GND*%
X187500000Y-105500000D03*
%TD*%
D25*
%TO.P,R7,1,1*%
%TO.N,Net-(CN3-Pad2)*%
X76500000Y-92000000D03*
%TO.P,R7,2,2*%
%TO.N,Net-(Q2-A)*%
X73500000Y-92000000D03*
%TD*%
D26*
%TO.P,IC4,1,RO*%
%TO.N,485_RX*%
X166300000Y-107405000D03*
%TO.P,IC4,2,~{RE}*%
%TO.N,485_DIR*%
X166300000Y-106135000D03*
%TO.P,IC4,3,DE*%
X166300000Y-104865000D03*
%TO.P,IC4,4,DI*%
%TO.N,485_TX*%
X166300000Y-103595000D03*
%TO.P,IC4,5,GND*%
%TO.N,GND*%
X171700000Y-103595000D03*
%TO.P,IC4,6,A*%
%TO.N,Net-(IC4-A)*%
X171700000Y-104865000D03*
%TO.P,IC4,7,B*%
%TO.N,Net-(IC4-B)*%
X171700000Y-106135000D03*
%TO.P,IC4,8,VCC*%
%TO.N,+3V3*%
X171700000Y-107405000D03*
%TD*%
D22*
%TO.P,R18,1,1*%
%TO.N,VBUS*%
X181225000Y-117500000D03*
%TO.P,R18,2,2*%
%TO.N,Net-(IC5-VBUS)*%
X179775000Y-117500000D03*
%TD*%
D23*
%TO.P,R30,1,1*%
%TO.N,+3V3*%
X137500000Y-120775000D03*
%TO.P,R30,2,2*%
%TO.N,STP_FLT*%
X137500000Y-122225000D03*
%TD*%
D22*
%TO.P,R11,1,1*%
%TO.N,LIMIT_3*%
X92725000Y-97500000D03*
%TO.P,R11,2,2*%
%TO.N,GND*%
X91275000Y-97500000D03*
%TD*%
D25*
%TO.P,R12,1,1*%
%TO.N,Net-(CN4-Pad1)*%
X76500000Y-107500000D03*
%TO.P,R12,2,2*%
%TO.N,Net-(Q4-A)*%
X73500000Y-107500000D03*
%TD*%
D27*
%TO.P,C16,1,1*%
%TO.N,+3V3*%
X171670000Y-111500000D03*
%TO.P,C16,2,2*%
%TO.N,GND*%
X173330000Y-111500000D03*
%TD*%
%TO.P,C17,1,1*%
%TO.N,+3V3*%
X171670000Y-109500000D03*
%TO.P,C17,2,2*%
%TO.N,GND*%
X173330000Y-109500000D03*
%TD*%
D28*
%TO.P,R5,1,1*%
%TO.N,Net-(IC4-B)*%
X187000000Y-100675000D03*
%TO.P,R5,2,2*%
%TO.N,Net-(J1-Pad1)*%
X187000000Y-98325000D03*
%TD*%
D22*
%TO.P,R17,1,1*%
%TO.N,INPUT_3*%
X92725000Y-119500000D03*
%TO.P,R17,2,2*%
%TO.N,GND*%
X91275000Y-119500000D03*
%TD*%
%TO.P,R22,1,1*%
%TO.N,+3V3*%
X169275000Y-117500000D03*
%TO.P,R22,2,2*%
%TO.N,Net-(IC5-RSTB)*%
X170725000Y-117500000D03*
%TD*%
%TO.P,R10,1,1*%
%TO.N,LIMIT_2*%
X92725000Y-92500000D03*
%TO.P,R10,2,2*%
%TO.N,GND*%
X91275000Y-92500000D03*
%TD*%
D29*
%TO.P,FID5,1,1*%
%TO.N,unconnected-(FID5-Pad1)*%
X179000000Y-132500000D03*
%TD*%
D22*
%TO.P,R24,1,1*%
%TO.N,+3V3*%
X133725000Y-111000000D03*
%TO.P,R24,2,2*%
%TO.N,STP_RESET*%
X132275000Y-111000000D03*
%TD*%
D25*
%TO.P,R8,1,1*%
%TO.N,Net-(CN3-Pad3)*%
X76500000Y-97000000D03*
%TO.P,R8,2,2*%
%TO.N,Net-(Q3-A)*%
X73500000Y-97000000D03*
%TD*%
D23*
%TO.P,R21,1,1*%
%TO.N,/USB UART/DTR*%
X145500000Y-113775000D03*
%TO.P,R21,2,2*%
%TO.N,Net-(Q7-B1)*%
X145500000Y-115225000D03*
%TD*%
D22*
%TO.P,R16,1,1*%
%TO.N,INPUT_2*%
X92725000Y-113500000D03*
%TO.P,R16,2,2*%
%TO.N,GND*%
X91275000Y-113500000D03*
%TD*%
D30*
%TO.P,C19,1,1*%
%TO.N,Net-(IC5-VBUS)*%
X175000000Y-116160000D03*
%TO.P,C19,2,2*%
%TO.N,GND*%
X175000000Y-114840000D03*
%TD*%
D31*
%TO.P,Q7,1,E2*%
%TO.N,/USB UART/DTR*%
X147850000Y-113550000D03*
%TO.P,Q7,2,B2*%
%TO.N,Net-(Q7-B2)*%
X148500000Y-113550000D03*
%TO.P,Q7,3,C1*%
%TO.N,ESP_EN*%
X149150000Y-113550000D03*
%TO.P,Q7,4,E1*%
%TO.N,/USB UART/RTS*%
X149150000Y-115450000D03*
%TO.P,Q7,5,B1*%
%TO.N,Net-(Q7-B1)*%
X148500000Y-115450000D03*
%TO.P,Q7,6,C2*%
%TO.N,BOOT_MODE*%
X147850000Y-115450000D03*
%TD*%
D32*
%TO.P,D6,1,1*%
%TO.N,VBUS*%
X187050000Y-118500000D03*
%TO.P,D6,2,2*%
%TO.N,unconnected-(D6-Pad2)*%
X188950000Y-118500000D03*
%TO.P,D6,3,3*%
%TO.N,GND*%
X188000000Y-120500000D03*
%TD*%
D23*
%TO.P,R23,1,1*%
%TO.N,+3V3*%
X132500000Y-102775000D03*
%TO.P,R23,2,2*%
%TO.N,STP_ENABLE*%
X132500000Y-104225000D03*
%TD*%
D24*
%TO.P,D8,1,1*%
%TO.N,/ESP32/UART_TX*%
X117000000Y-115450000D03*
%TO.P,D8,2,2*%
%TO.N,/ESP32/UART_RX*%
X117000000Y-113550000D03*
%TO.P,D8,3,3*%
%TO.N,GND*%
X119000000Y-114500000D03*
%TD*%
D29*
%TO.P,FID6,1,1*%
%TO.N,unconnected-(FID6-Pad1)*%
X83000000Y-54500000D03*
%TD*%
D32*
%TO.P,D5,1,1*%
%TO.N,/USB UART/USB_D_P*%
X178550000Y-123500000D03*
%TO.P,D5,2,2*%
%TO.N,/USB UART/USB_D_N*%
X180450000Y-123500000D03*
%TO.P,D5,3,3*%
%TO.N,GND*%
X179500000Y-125500000D03*
%TD*%
D33*
%TO.P,C15,1,1*%
%TO.N,+3V3*%
X171840000Y-113250000D03*
%TO.P,C15,2,2*%
%TO.N,GND*%
X173160000Y-113250000D03*
%TD*%
D22*
%TO.P,R9,1,1*%
%TO.N,LIMIT_1*%
X92725000Y-87000000D03*
%TO.P,R9,2,2*%
%TO.N,GND*%
X91275000Y-87000000D03*
%TD*%
D28*
%TO.P,R27,1,1*%
%TO.N,Net-(IC6-ISENB)*%
X172175000Y-72500000D03*
%TO.P,R27,2,2*%
%TO.N,GND*%
X169825000Y-72500000D03*
%TD*%
D25*
%TO.P,R6,1,1*%
%TO.N,Net-(CN3-Pad1)*%
X76500000Y-87000000D03*
%TO.P,R6,2,2*%
%TO.N,Net-(Q1-A)*%
X73500000Y-87000000D03*
%TD*%
%TO.P,R13,1,1*%
%TO.N,Net-(CN4-Pad2)*%
X76500000Y-112500000D03*
%TO.P,R13,2,2*%
%TO.N,Net-(Q5-A)*%
X73500000Y-112500000D03*
%TD*%
D28*
%TO.P,R26,1,1*%
%TO.N,Net-(IC6-ISENA)*%
X172175000Y-74500000D03*
%TO.P,R26,2,2*%
%TO.N,GND*%
X169825000Y-74500000D03*
%TD*%
D29*
%TO.P,FID4,1,1*%
%TO.N,unconnected-(FID4-Pad1)*%
X83000000Y-133000000D03*
%TD*%
D30*
%TO.P,C18,1,1*%
%TO.N,Net-(IC5-VBUS)*%
X176500000Y-116160000D03*
%TO.P,C18,2,2*%
%TO.N,GND*%
X176500000Y-114840000D03*
%TD*%
D25*
%TO.P,R14,1,1*%
%TO.N,Net-(CN4-Pad3)*%
X76500000Y-117500000D03*
%TO.P,R14,2,2*%
%TO.N,Net-(Q6-A)*%
X73500000Y-117500000D03*
%TD*%
D34*
%TO.N,TEMP_SENSE*%
X138800000Y-108400000D03*
%TO.N,GND*%
X135110000Y-104500000D03*
D35*
%TO.N,+24V*%
X170100000Y-76500000D03*
X169200000Y-70800000D03*
%TO.N,GND*%
X107900000Y-72000000D03*
X140300000Y-111300000D03*
X102500000Y-80400000D03*
X163800000Y-69400000D03*
X110500000Y-89100000D03*
X147300000Y-60500000D03*
X110400000Y-72000000D03*
X163900000Y-75600000D03*
X176200000Y-121100000D03*
X100400000Y-77900000D03*
X158200000Y-83100000D03*
X112700000Y-70000000D03*
X119100000Y-90800000D03*
X143100000Y-114000000D03*
X163900000Y-71700000D03*
X103400000Y-82100000D03*
X155300000Y-58600000D03*
X172400000Y-68800000D03*
X119000000Y-87400000D03*
X173900000Y-121100000D03*
X107900000Y-70300000D03*
X119100000Y-89200000D03*
X179200000Y-112800000D03*
X112700000Y-74000000D03*
X128500000Y-109800000D03*
X147700000Y-122800000D03*
X137600000Y-114000000D03*
X100400000Y-74200000D03*
X105000000Y-85400000D03*
X112700000Y-75700000D03*
X162000000Y-71700000D03*
X189100000Y-105400000D03*
X119000000Y-72200000D03*
X149500000Y-122800000D03*
X107900000Y-74000000D03*
X110500000Y-90800000D03*
X115000000Y-72200000D03*
X155300000Y-60000000D03*
X115300000Y-113400000D03*
X163900000Y-77500000D03*
X105000000Y-87100000D03*
X100400000Y-75800000D03*
X110400000Y-70200000D03*
X101200000Y-65900000D03*
X180800000Y-125700000D03*
X179600000Y-126900000D03*
X100400000Y-80400000D03*
X147300000Y-63300000D03*
X115000000Y-89100000D03*
X176400000Y-111600000D03*
X176100000Y-118900000D03*
X137600000Y-116600000D03*
X112800000Y-87100000D03*
X117000000Y-89100000D03*
X105000000Y-89100000D03*
X117000000Y-90800000D03*
X173300000Y-103600000D03*
X186000000Y-115900000D03*
D34*
X115900000Y-59200000D03*
D35*
X102500000Y-64100000D03*
D34*
X91300000Y-95700000D03*
D35*
X103200000Y-75700000D03*
X103000000Y-89200000D03*
X103300000Y-78100000D03*
X104900000Y-72000000D03*
D34*
X91300000Y-106200000D03*
X141000000Y-101900000D03*
D35*
X110400000Y-74000000D03*
X168300000Y-81800000D03*
X174600000Y-111600000D03*
X176300000Y-113500000D03*
X147300000Y-61900000D03*
X104900000Y-70300000D03*
X112800000Y-89100000D03*
X188000000Y-106600000D03*
X151000000Y-133500000D03*
X167500000Y-82500000D03*
D34*
X91300000Y-90600000D03*
D35*
X128000000Y-108800000D03*
X110500000Y-87100000D03*
X146500000Y-99800000D03*
X110500000Y-85300000D03*
X107000000Y-64500000D03*
X144400000Y-67300000D03*
X117000000Y-87400000D03*
X128000000Y-133600000D03*
X149400000Y-133500000D03*
X162000000Y-72900000D03*
X176400000Y-109700000D03*
X152600000Y-133500000D03*
X149700000Y-108100000D03*
X139400000Y-67300000D03*
X112800000Y-90800000D03*
X108000000Y-90800000D03*
X113100000Y-78400000D03*
X110400000Y-75700000D03*
X147900000Y-108100000D03*
X100500000Y-90800000D03*
X108000000Y-89100000D03*
X171400000Y-102300000D03*
X107000000Y-79400000D03*
X114900000Y-90800000D03*
X158200000Y-85400000D03*
X103000000Y-91000000D03*
X186800000Y-120800000D03*
X100400000Y-82100000D03*
X116900000Y-72200000D03*
X100000000Y-67600000D03*
X105000000Y-90800000D03*
X143000000Y-116600000D03*
X108000000Y-84000000D03*
X100000000Y-64100000D03*
X108000000Y-85400000D03*
X172400000Y-66700000D03*
X103200000Y-74200000D03*
X104900000Y-74000000D03*
X107900000Y-68900000D03*
X188000000Y-104400000D03*
X113800000Y-63900000D03*
D34*
X91300000Y-111500000D03*
D35*
X143100000Y-111300000D03*
X142400000Y-131400000D03*
X108000000Y-87100000D03*
X173300000Y-102300000D03*
X114800000Y-78400000D03*
X149700000Y-106400000D03*
X148500000Y-99800000D03*
D34*
X132000000Y-97000000D03*
D35*
X115300000Y-114500000D03*
X163800000Y-67500000D03*
X137500000Y-111300000D03*
D34*
X91300000Y-85000000D03*
D35*
X149500000Y-124600000D03*
X141200000Y-130100000D03*
X173900000Y-118900000D03*
X115300000Y-115700000D03*
X180800000Y-126900000D03*
X163900000Y-74400000D03*
X162000000Y-74400000D03*
X112800000Y-85100000D03*
X150500000Y-99800000D03*
X163900000Y-72900000D03*
D34*
X91300000Y-117800000D03*
D35*
X162000000Y-77500000D03*
X158200000Y-84300000D03*
X162000000Y-69400000D03*
X155300000Y-61300000D03*
X115000000Y-87400000D03*
X100500000Y-89200000D03*
X168300000Y-83100000D03*
X162000000Y-75600000D03*
X142400000Y-130100000D03*
X141700000Y-67300000D03*
X172400000Y-67800000D03*
X126500000Y-133600000D03*
X102400000Y-67600000D03*
X127500000Y-109800000D03*
X186000000Y-123100000D03*
X112700000Y-72000000D03*
X107900000Y-75700000D03*
X146700000Y-67300000D03*
X140300000Y-116600000D03*
X129800000Y-133600000D03*
X104900000Y-75700000D03*
X146400000Y-64900000D03*
D34*
%TO.N,+3V3*%
X95200000Y-106000000D03*
D35*
X180100000Y-116300000D03*
D34*
X95200000Y-90600000D03*
X95200000Y-95600000D03*
D35*
X116700000Y-65600000D03*
X169700000Y-113300000D03*
D34*
X95200000Y-111500000D03*
D35*
X148500000Y-104400000D03*
X169500000Y-111500000D03*
X113900000Y-65600000D03*
D34*
X135000000Y-111000000D03*
D35*
X154200000Y-70600000D03*
X161700000Y-85100000D03*
X155000000Y-70200000D03*
D34*
X132500000Y-101400000D03*
D35*
X150500000Y-104400000D03*
X118300000Y-65600000D03*
X162600000Y-83600000D03*
X179000000Y-116300000D03*
X169400000Y-109400000D03*
X146500000Y-104400000D03*
D34*
X95200000Y-85000000D03*
X125800000Y-124500000D03*
X137500000Y-119500000D03*
D35*
X120000000Y-65600000D03*
D34*
X138700000Y-57500000D03*
D35*
X178700000Y-118600000D03*
D34*
X169300000Y-116300000D03*
D35*
X155000000Y-71100000D03*
X169400000Y-107500000D03*
D34*
X143300000Y-101800000D03*
D35*
X161700000Y-83600000D03*
D34*
X95200000Y-117600000D03*
D35*
X115200000Y-65600000D03*
D34*
%TO.N,ESP_EN*%
X149500000Y-111254000D03*
X150950000Y-126750000D03*
%TO.N,Net-(IC5-VBUS)*%
X177500000Y-116200000D03*
%TO.N,Net-(IC4-A)*%
X185000000Y-108100000D03*
%TO.N,VBUS*%
X181500000Y-116100000D03*
X181800000Y-121900000D03*
%TO.N,/USB UART/USB_D_N*%
X184700000Y-120700000D03*
X184548634Y-119250405D03*
%TO.N,/USB UART/USB_D_P*%
X179600000Y-120900000D03*
%TO.N,FAN_TACH*%
X141300000Y-64200000D03*
X145100000Y-122300000D03*
%TO.N,FAN_PWM*%
X144000000Y-58700000D03*
X146400000Y-121400000D03*
%TO.N,ESP_RX*%
X153400000Y-123400000D03*
X159800000Y-124700000D03*
%TO.N,STP_MS1*%
X133700000Y-114300000D03*
X135200000Y-89800000D03*
%TO.N,LIMIT_2*%
X95000000Y-94400000D03*
X143800000Y-108400000D03*
%TO.N,STP_MS0*%
X129000000Y-92900000D03*
X127500000Y-103700000D03*
%TO.N,STP_STEP*%
X133600000Y-87600000D03*
X130500000Y-103600000D03*
%TO.N,485_RX*%
X136200000Y-108200000D03*
%TO.N,STP_FLT*%
X137500000Y-125700000D03*
X138700000Y-81400000D03*
%TO.N,STP_ENABLE*%
X152200000Y-73200000D03*
X132500000Y-105300000D03*
%TO.N,STP_DIR*%
X157700000Y-72500000D03*
X146100000Y-110700000D03*
%TO.N,STP_MS2*%
X135000000Y-115200000D03*
X136300000Y-90700000D03*
%TO.N,LIMIT_1*%
X94700000Y-89400000D03*
%TO.N,BOOT_MODE*%
X130300000Y-129400000D03*
X131100000Y-122700000D03*
%TO.N,TEMP_SENSE*%
X163800000Y-81000000D03*
%TO.N,ESP_TX*%
X159200000Y-124000000D03*
X145500000Y-119900000D03*
%TO.N,LIMIT_3*%
X94600000Y-99600000D03*
X142600000Y-108200000D03*
%TO.N,485_DIR*%
X133600000Y-108300000D03*
X162900000Y-103700000D03*
%TO.N,INPUT_1*%
X94700000Y-110000000D03*
%TO.N,INPUT_2*%
X137600000Y-108400000D03*
X94900000Y-115500000D03*
%TO.N,STP_RESET*%
X127500000Y-96400000D03*
X128000000Y-111600000D03*
%TO.N,485_TX*%
X165000000Y-102700000D03*
X134900000Y-108100000D03*
%TO.N,INPUT_3*%
X124500000Y-100200000D03*
X94700000Y-121400000D03*
%TO.N,/USB UART/DTR*%
X147900000Y-111800000D03*
%TO.N,/USB UART/RTS*%
X172200000Y-123300000D03*
%TO.N,Net-(IC5-RSTB)*%
X171900000Y-117400000D03*
%TO.N,Net-(IC6-ISENA)*%
X173700000Y-74800000D03*
%TO.N,Net-(IC6-ISENB)*%
X173700000Y-72000000D03*
%TO.N,Net-(Q1-A)*%
X86900000Y-83900000D03*
%TO.N,Net-(Q2-A)*%
X87300000Y-89900000D03*
%TO.N,Net-(Q3-A)*%
X87000000Y-94700000D03*
%TO.N,Net-(Q4-A)*%
X87000000Y-105100000D03*
%TO.N,Net-(Q5-A)*%
X87100000Y-110700000D03*
%TO.N,Net-(Q6-A)*%
X87100000Y-115100000D03*
%TO.N,Net-(IC3-IO4)*%
X129800000Y-97954000D03*
X129400000Y-103700000D03*
%TD*%
D36*
%TO.N,GND*%
X169825000Y-74500000D02*
X164000000Y-74500000D01*
D37*
X91275000Y-106225000D02*
X91300000Y-106200000D01*
X91275000Y-111525000D02*
X91300000Y-111500000D01*
X91275000Y-90625000D02*
X91300000Y-90600000D01*
X91275000Y-108000000D02*
X91275000Y-106225000D01*
D36*
X164300000Y-72500000D02*
X163900000Y-72900000D01*
D37*
X91275000Y-119500000D02*
X91275000Y-117825000D01*
D36*
X169825000Y-72500000D02*
X164300000Y-72500000D01*
D37*
X91275000Y-117825000D02*
X91300000Y-117800000D01*
X91275000Y-113500000D02*
X91275000Y-111525000D01*
X164000000Y-74500000D02*
X163900000Y-74400000D01*
X91275000Y-87000000D02*
X91275000Y-85025000D01*
X91275000Y-95725000D02*
X91300000Y-95700000D01*
X91275000Y-85025000D02*
X91300000Y-85000000D01*
X91275000Y-97500000D02*
X91275000Y-95725000D01*
X91275000Y-92500000D02*
X91275000Y-90625000D01*
%TO.N,+3V3*%
X127275000Y-124500000D02*
X125800000Y-124500000D01*
X132500000Y-102775000D02*
X132500000Y-101400000D01*
X169275000Y-116325000D02*
X169300000Y-116300000D01*
X169275000Y-117500000D02*
X169275000Y-116325000D01*
X133725000Y-111000000D02*
X135000000Y-111000000D01*
X137500000Y-120775000D02*
X137500000Y-119500000D01*
%TO.N,ESP_EN*%
X149500000Y-111254000D02*
X149500000Y-111600000D01*
X149150000Y-111950000D02*
X149150000Y-113550000D01*
X149500000Y-111600000D02*
X149150000Y-111950000D01*
%TO.N,Net-(IC5-VBUS)*%
X176500000Y-116160000D02*
X175000000Y-116160000D01*
X176900000Y-117500000D02*
X176500000Y-117100000D01*
X176540000Y-116200000D02*
X176500000Y-116160000D01*
X176500000Y-117100000D02*
X176500000Y-116160000D01*
X173500000Y-116225000D02*
X174935000Y-116225000D01*
X174935000Y-116225000D02*
X175000000Y-116160000D01*
X179775000Y-117500000D02*
X176900000Y-117500000D01*
X177500000Y-116200000D02*
X176540000Y-116200000D01*
%TO.N,Net-(IC4-B)*%
X175035000Y-106135000D02*
X171700000Y-106135000D01*
X187000000Y-101800000D02*
X185000000Y-103800000D01*
X185000000Y-104550000D02*
X184150000Y-104550000D01*
X177400000Y-108500000D02*
X175035000Y-106135000D01*
X187000000Y-100675000D02*
X187000000Y-101800000D01*
X182200000Y-108500000D02*
X177400000Y-108500000D01*
X183200000Y-107500000D02*
X182200000Y-108500000D01*
X184150000Y-104550000D02*
X183200000Y-105500000D01*
X185000000Y-103800000D02*
X185000000Y-104550000D01*
X183200000Y-105500000D02*
X183200000Y-107500000D01*
%TO.N,Net-(IC4-A)*%
X177300000Y-103500000D02*
X182500000Y-103500000D01*
X175935000Y-104865000D02*
X177300000Y-103500000D01*
X185000000Y-106450000D02*
X185000000Y-108100000D01*
X171700000Y-104865000D02*
X175935000Y-104865000D01*
D36*
%TO.N,Net-(CN3-Pad2)*%
X79500000Y-92000000D02*
X76500000Y-92000000D01*
%TO.N,Net-(CN3-Pad3)*%
X79500000Y-97000000D02*
X76500000Y-97000000D01*
%TO.N,Net-(CN3-Pad1)*%
X79500000Y-87000000D02*
X76500000Y-87000000D01*
%TO.N,/Limit Switches/LMT_C*%
X79500000Y-102000000D02*
X91000000Y-102000000D01*
%TO.N,Net-(CN4-Pad3)*%
X79500000Y-117500000D02*
X76500000Y-117500000D01*
%TO.N,/Control Inputs/INPUT_C*%
X86500000Y-122500000D02*
X88000000Y-124000000D01*
X88000000Y-124000000D02*
X91000000Y-124000000D01*
X79500000Y-122500000D02*
X86500000Y-122500000D01*
%TO.N,Net-(CN4-Pad1)*%
X79500000Y-107500000D02*
X76500000Y-107500000D01*
%TO.N,Net-(CN4-Pad2)*%
X79500000Y-112500000D02*
X76500000Y-112500000D01*
D37*
%TO.N,VBUS*%
X181225000Y-118775000D02*
X181225000Y-117500000D01*
X181500000Y-116100000D02*
X181225000Y-116375000D01*
X181225000Y-119625000D02*
X181225000Y-118775000D01*
X181800000Y-120200000D02*
X181225000Y-119625000D01*
X181800000Y-121900000D02*
X181800000Y-120200000D01*
X181225000Y-116375000D02*
X181225000Y-117500000D01*
X185000000Y-118000000D02*
X185500000Y-118500000D01*
X183200000Y-117500000D02*
X183700000Y-118000000D01*
X181225000Y-117500000D02*
X183200000Y-117500000D01*
X185500000Y-118500000D02*
X187050000Y-118500000D01*
X183700000Y-118000000D02*
X185000000Y-118000000D01*
D38*
%TO.N,/USB UART/USB_D_N*%
X184548634Y-119250405D02*
X185000000Y-119701771D01*
X176000000Y-127600000D02*
X180100000Y-123500000D01*
X181900000Y-123500000D02*
X184700000Y-120700000D01*
X185000000Y-119701771D02*
X185000000Y-119800000D01*
X185000000Y-120400000D02*
X184700000Y-120700000D01*
X176000000Y-128000000D02*
X176000000Y-127600000D01*
X180100000Y-123500000D02*
X180450000Y-123500000D01*
X180450000Y-123500000D02*
X181900000Y-123500000D01*
X185000000Y-119800000D02*
X185000000Y-120400000D01*
%TO.N,/USB UART/USB_D_P*%
X171000000Y-128000000D02*
X173600000Y-125400000D01*
X178000000Y-123500000D02*
X178550000Y-123500000D01*
X177700000Y-124000000D02*
X177700000Y-123800000D01*
X178550000Y-123500000D02*
X178550000Y-121950000D01*
X178550000Y-121950000D02*
X179600000Y-120900000D01*
X176300000Y-125400000D02*
X177700000Y-124000000D01*
X173600000Y-125400000D02*
X176300000Y-125400000D01*
X177700000Y-123800000D02*
X178000000Y-123500000D01*
D37*
%TO.N,ESP_RX*%
X159800000Y-124700000D02*
X154700000Y-124700000D01*
X154700000Y-124700000D02*
X153400000Y-123400000D01*
%TO.N,STP_MS1*%
X159500000Y-92100000D02*
X158600000Y-93000000D01*
X158600000Y-93000000D02*
X136400000Y-93000000D01*
X135200000Y-91800000D02*
X135200000Y-89800000D01*
X164800000Y-87300000D02*
X160500000Y-87300000D01*
X160500000Y-87300000D02*
X159500000Y-88300000D01*
X136400000Y-93000000D02*
X135200000Y-91800000D01*
X167000000Y-89500000D02*
X164800000Y-87300000D01*
X159500000Y-88300000D02*
X159500000Y-92100000D01*
%TO.N,LIMIT_2*%
X103000000Y-98500000D02*
X136000000Y-98500000D01*
X136000000Y-98500000D02*
X139300000Y-101800000D01*
X93300000Y-94400000D02*
X95000000Y-94400000D01*
X92725000Y-92500000D02*
X92725000Y-93825000D01*
X92725000Y-93825000D02*
X93100000Y-94200000D01*
X143800000Y-106300000D02*
X143800000Y-108200000D01*
X143800000Y-108200000D02*
X143800000Y-108400000D01*
X139300000Y-101800000D02*
X143800000Y-106300000D01*
X93100000Y-94200000D02*
X93300000Y-94400000D01*
%TO.N,STP_MS0*%
X162000000Y-89500000D02*
X162000000Y-92000000D01*
X159600000Y-94400000D02*
X130500000Y-94400000D01*
X162000000Y-92000000D02*
X159600000Y-94400000D01*
X130500000Y-94400000D02*
X129000000Y-92900000D01*
%TO.N,STP_STEP*%
X134600000Y-86600000D02*
X133600000Y-87600000D01*
X152000000Y-89500000D02*
X152000000Y-87700000D01*
X152000000Y-87700000D02*
X150900000Y-86600000D01*
X150900000Y-86600000D02*
X134600000Y-86600000D01*
%TO.N,485_RX*%
X159000000Y-102400000D02*
X159000000Y-96500000D01*
X164005000Y-107405000D02*
X159000000Y-102400000D01*
X150300000Y-109600000D02*
X136800000Y-109600000D01*
X164005000Y-107405000D02*
X152495000Y-107405000D01*
X136200000Y-109000000D02*
X136200000Y-108200000D01*
X152495000Y-107405000D02*
X150300000Y-109600000D01*
X136800000Y-109600000D02*
X136200000Y-109000000D01*
X166300000Y-107405000D02*
X164005000Y-107405000D01*
%TO.N,STP_FLT*%
X154400000Y-86900000D02*
X154400000Y-81700000D01*
X143500000Y-80000000D02*
X142100000Y-81400000D01*
X157000000Y-89500000D02*
X154400000Y-86900000D01*
X154400000Y-81700000D02*
X152700000Y-80000000D01*
X142100000Y-81400000D02*
X138700000Y-81400000D01*
X137500000Y-122225000D02*
X137500000Y-125700000D01*
X152700000Y-80000000D02*
X143500000Y-80000000D01*
%TO.N,STP_ENABLE*%
X132500000Y-104225000D02*
X132500000Y-105300000D01*
%TO.N,STP_MS2*%
X159000000Y-87900000D02*
X159000000Y-90400000D01*
X139400000Y-90700000D02*
X136300000Y-90700000D01*
X168800000Y-86300000D02*
X160600000Y-86300000D01*
X172000000Y-89500000D02*
X168800000Y-86300000D01*
X140400000Y-91700000D02*
X139400000Y-90700000D01*
X157700000Y-91700000D02*
X140400000Y-91700000D01*
X160600000Y-86300000D02*
X159000000Y-87900000D01*
X159000000Y-90400000D02*
X157700000Y-91700000D01*
%TO.N,LIMIT_1*%
X92725000Y-88625000D02*
X93100000Y-89000000D01*
X93100000Y-89000000D02*
X93500000Y-89400000D01*
X92725000Y-87000000D02*
X92725000Y-88625000D01*
X93500000Y-89400000D02*
X94700000Y-89400000D01*
%TO.N,BOOT_MODE*%
X130300000Y-129400000D02*
X131100000Y-128600000D01*
X129500000Y-122700000D02*
X131100000Y-122700000D01*
X154700000Y-118200000D02*
X145800000Y-118200000D01*
X128725000Y-123475000D02*
X129500000Y-122700000D01*
X131100000Y-121700000D02*
X131100000Y-122700000D01*
X157000000Y-120500000D02*
X154700000Y-118200000D01*
X131100000Y-128600000D02*
X131100000Y-122700000D01*
X134600000Y-118200000D02*
X131100000Y-121700000D01*
X145800000Y-118200000D02*
X134600000Y-118200000D01*
X147850000Y-116150000D02*
X145800000Y-118200000D01*
X147850000Y-115450000D02*
X147850000Y-116150000D01*
X128725000Y-124500000D02*
X128725000Y-123475000D01*
%TO.N,ESP_TX*%
X159200000Y-124000000D02*
X157500000Y-124000000D01*
X153400000Y-119900000D02*
X145500000Y-119900000D01*
X157500000Y-124000000D02*
X153400000Y-119900000D01*
%TO.N,LIMIT_3*%
X135862896Y-98831000D02*
X142600000Y-105568104D01*
X142600000Y-105568104D02*
X142600000Y-108200000D01*
X110669000Y-98831000D02*
X135862896Y-98831000D01*
X92725000Y-98825000D02*
X93500000Y-99600000D01*
X93500000Y-99600000D02*
X94600000Y-99600000D01*
X103000000Y-103500000D02*
X106000000Y-103500000D01*
X106000000Y-103500000D02*
X110669000Y-98831000D01*
X92725000Y-97500000D02*
X92725000Y-98825000D01*
D36*
%TO.N,/ESP32/UART_TX*%
X117000000Y-115450000D02*
X122790000Y-115450000D01*
D37*
X122790000Y-115450000D02*
X123000000Y-115660000D01*
%TO.N,485_DIR*%
X165165000Y-104865000D02*
X164450000Y-104150000D01*
X166300000Y-104865000D02*
X165165000Y-104865000D01*
X164450000Y-104150000D02*
X164050000Y-103750000D01*
X164400000Y-105800000D02*
X164400000Y-104200000D01*
X164735000Y-106135000D02*
X164400000Y-105800000D01*
X164400000Y-104200000D02*
X164450000Y-104150000D01*
X164000000Y-103700000D02*
X162900000Y-103700000D01*
X166300000Y-106135000D02*
X164735000Y-106135000D01*
X164000000Y-103700000D02*
X164000000Y-96500000D01*
X164050000Y-103750000D02*
X164000000Y-103700000D01*
%TO.N,INPUT_1*%
X93400000Y-110000000D02*
X94700000Y-110000000D01*
X92725000Y-109325000D02*
X93400000Y-110000000D01*
X92725000Y-108000000D02*
X92725000Y-109325000D01*
%TO.N,INPUT_2*%
X111300000Y-101700000D02*
X113469000Y-99531000D01*
X103000000Y-115500000D02*
X106300000Y-112200000D01*
X93400000Y-115500000D02*
X94900000Y-115500000D01*
X92725000Y-114825000D02*
X93100000Y-115200000D01*
X106300000Y-112200000D02*
X106300000Y-108500000D01*
X137500000Y-103000000D02*
X137500000Y-106800000D01*
X113469000Y-99531000D02*
X133600000Y-99531000D01*
X136400000Y-101900000D02*
X137500000Y-103000000D01*
X137500000Y-106800000D02*
X137500000Y-108300000D01*
X92725000Y-113500000D02*
X92725000Y-114825000D01*
X134031000Y-99531000D02*
X136400000Y-101900000D01*
X106300000Y-108500000D02*
X106300000Y-106700000D01*
X137500000Y-108300000D02*
X137600000Y-108400000D01*
X93100000Y-115200000D02*
X93400000Y-115500000D01*
X133600000Y-99531000D02*
X134031000Y-99531000D01*
X106300000Y-106700000D02*
X111300000Y-101700000D01*
%TO.N,STP_RESET*%
X131900000Y-85600000D02*
X127500000Y-90000000D01*
X148800000Y-85600000D02*
X131900000Y-85600000D01*
X128300000Y-111300000D02*
X128000000Y-111600000D01*
X132275000Y-111000000D02*
X128600000Y-111000000D01*
X128600000Y-111000000D02*
X128300000Y-111300000D01*
X151900000Y-82500000D02*
X148800000Y-85600000D01*
X127500000Y-90000000D02*
X127500000Y-96400000D01*
%TO.N,485_TX*%
X166300000Y-102700000D02*
X165000000Y-102700000D01*
X166300000Y-102200000D02*
X169000000Y-99500000D01*
X166300000Y-102700000D02*
X166300000Y-102200000D01*
X169000000Y-99500000D02*
X169000000Y-96500000D01*
X166300000Y-103595000D02*
X166300000Y-102700000D01*
%TO.N,/ESP32/UART_RX*%
X122570000Y-113550000D02*
X123000000Y-113120000D01*
D36*
X117000000Y-113550000D02*
X122570000Y-113550000D01*
D37*
%TO.N,INPUT_3*%
X107400000Y-116100000D02*
X107400000Y-107000000D01*
X92725000Y-119500000D02*
X92725000Y-120525000D01*
X103000000Y-120500000D02*
X107400000Y-116100000D01*
X113050000Y-101350000D02*
X114200000Y-100200000D01*
X107400000Y-107000000D02*
X113050000Y-101350000D01*
X93200000Y-121000000D02*
X93600000Y-121400000D01*
X114200000Y-100200000D02*
X124500000Y-100200000D01*
X92725000Y-120525000D02*
X93200000Y-121000000D01*
X93600000Y-121400000D02*
X94700000Y-121400000D01*
%TO.N,/USB UART/DTR*%
X145500000Y-112600000D02*
X145500000Y-113775000D01*
X147850000Y-113550000D02*
X147850000Y-112650000D01*
X145600000Y-112500000D02*
X145500000Y-112600000D01*
X147700000Y-112500000D02*
X145600000Y-112500000D01*
X147850000Y-111850000D02*
X147850000Y-113550000D01*
X147900000Y-111800000D02*
X147850000Y-111850000D01*
X147850000Y-112650000D02*
X147700000Y-112500000D01*
%TO.N,/USB UART/RTS*%
X151500000Y-116800000D02*
X151500000Y-115225000D01*
X162000000Y-117000000D02*
X151300000Y-117000000D01*
X149150000Y-116750000D02*
X149400000Y-117000000D01*
X172200000Y-123300000D02*
X168300000Y-123300000D01*
X151500000Y-115225000D02*
X156725000Y-115225000D01*
X149150000Y-115450000D02*
X149150000Y-116750000D01*
X168300000Y-123300000D02*
X162000000Y-117000000D01*
X156725000Y-115225000D02*
X157000000Y-115500000D01*
X151300000Y-117000000D02*
X151500000Y-116800000D01*
X149400000Y-117000000D02*
X151300000Y-117000000D01*
%TO.N,Net-(IC5-RSTB)*%
X170825000Y-117400000D02*
X170725000Y-117500000D01*
X171900000Y-117400000D02*
X170825000Y-117400000D01*
D36*
%TO.N,Net-(IC6-ISENA)*%
X173400000Y-74500000D02*
X172175000Y-74500000D01*
X173700000Y-74800000D02*
X173400000Y-74500000D01*
%TO.N,Net-(IC6-ISENB)*%
X173200000Y-72500000D02*
X173700000Y-72000000D01*
X172175000Y-72500000D02*
X173200000Y-72500000D01*
D37*
%TO.N,Net-(J1-Pad1)*%
X185000000Y-95000000D02*
X187000000Y-97000000D01*
X185000000Y-92500000D02*
X185000000Y-95000000D01*
X187000000Y-97000000D02*
X187000000Y-98325000D01*
%TO.N,Net-(Q1-A)*%
X86900000Y-83900000D02*
X74700000Y-83900000D01*
X73500000Y-85100000D02*
X73500000Y-87000000D01*
X74700000Y-83900000D02*
X73500000Y-85100000D01*
%TO.N,Net-(Q2-A)*%
X73500000Y-90600000D02*
X73500000Y-92000000D01*
X87300000Y-89900000D02*
X74200000Y-89900000D01*
X74200000Y-89900000D02*
X73500000Y-90600000D01*
%TO.N,Net-(Q3-A)*%
X74000000Y-94700000D02*
X73500000Y-95200000D01*
X73500000Y-95200000D02*
X73500000Y-97000000D01*
X87000000Y-94700000D02*
X74000000Y-94700000D01*
%TO.N,Net-(Q4-A)*%
X87000000Y-105100000D02*
X86900000Y-105000000D01*
X73500000Y-105600000D02*
X73500000Y-107500000D01*
X74100000Y-105000000D02*
X73500000Y-105600000D01*
X86900000Y-105000000D02*
X74100000Y-105000000D01*
%TO.N,Net-(Q5-A)*%
X74000000Y-110100000D02*
X73500000Y-110600000D01*
X87100000Y-110700000D02*
X86500000Y-110100000D01*
X86500000Y-110100000D02*
X74000000Y-110100000D01*
X73500000Y-110600000D02*
X73500000Y-112500000D01*
%TO.N,Net-(Q6-A)*%
X74100000Y-115100000D02*
X73500000Y-115700000D01*
X73500000Y-115700000D02*
X73500000Y-117500000D01*
X87100000Y-115100000D02*
X74100000Y-115100000D01*
%TO.N,Net-(Q7-B1)*%
X148500000Y-114700000D02*
X148300000Y-114500000D01*
X146375000Y-115225000D02*
X145500000Y-115225000D01*
X148300000Y-114500000D02*
X147100000Y-114500000D01*
X148500000Y-115450000D02*
X148500000Y-114700000D01*
X147100000Y-114500000D02*
X146375000Y-115225000D01*
%TO.N,Net-(Q7-B2)*%
X148700000Y-114400000D02*
X150100000Y-114400000D01*
X150725000Y-113775000D02*
X151500000Y-113775000D01*
X148500000Y-113550000D02*
X148500000Y-114200000D01*
X150100000Y-114400000D02*
X150725000Y-113775000D01*
X148500000Y-114200000D02*
X148700000Y-114400000D01*
%TD*%
%TA.AperFunction,Conductor*%
%TO.N,GND*%
G36*
X121343039Y-63319685D02*
G01*
X121388794Y-63372489D01*
X121400000Y-63424000D01*
X121400000Y-91476000D01*
X121380315Y-91543039D01*
X121327511Y-91588794D01*
X121276000Y-91600000D01*
X99224000Y-91600000D01*
X99156961Y-91580315D01*
X99111206Y-91527511D01*
X99100000Y-91476000D01*
X99100000Y-65539915D01*
X113290000Y-65539915D01*
X113290000Y-65660084D01*
X113313440Y-65777923D01*
X113313443Y-65777935D01*
X113359421Y-65888937D01*
X113359428Y-65888950D01*
X113426181Y-65988852D01*
X113426184Y-65988856D01*
X113511143Y-66073815D01*
X113511147Y-66073818D01*
X113611049Y-66140571D01*
X113611062Y-66140578D01*
X113722064Y-66186556D01*
X113722069Y-66186558D01*
X113839915Y-66209999D01*
X113839918Y-66210000D01*
X113839920Y-66210000D01*
X113960082Y-66210000D01*
X113960083Y-66209999D01*
X114077931Y-66186558D01*
X114188944Y-66140575D01*
X114288853Y-66073818D01*
X114373818Y-65988853D01*
X114440575Y-65888944D01*
X114440577Y-65888937D01*
X114440640Y-65888823D01*
X114440691Y-65888770D01*
X114443960Y-65883879D01*
X114444887Y-65884498D01*
X114489601Y-65838977D01*
X114557738Y-65823515D01*
X114623419Y-65847344D01*
X114655429Y-65884286D01*
X114656040Y-65883879D01*
X114659287Y-65888739D01*
X114659360Y-65888823D01*
X114659426Y-65888946D01*
X114726181Y-65988852D01*
X114726184Y-65988856D01*
X114811143Y-66073815D01*
X114811147Y-66073818D01*
X114911049Y-66140571D01*
X114911062Y-66140578D01*
X115022064Y-66186556D01*
X115022069Y-66186558D01*
X115139915Y-66209999D01*
X115139918Y-66210000D01*
X115139920Y-66210000D01*
X115260082Y-66210000D01*
X115260083Y-66209999D01*
X115377931Y-66186558D01*
X115488944Y-66140575D01*
X115588853Y-66073818D01*
X115673818Y-65988853D01*
X115740575Y-65888944D01*
X115786558Y-65777931D01*
X115810000Y-65660080D01*
X115810000Y-65539920D01*
X115810000Y-65539917D01*
X115809999Y-65539915D01*
X116090000Y-65539915D01*
X116090000Y-65660084D01*
X116113440Y-65777923D01*
X116113443Y-65777935D01*
X116159421Y-65888937D01*
X116159428Y-65888950D01*
X116226181Y-65988852D01*
X116226184Y-65988856D01*
X116311143Y-66073815D01*
X116311147Y-66073818D01*
X116411049Y-66140571D01*
X116411062Y-66140578D01*
X116522064Y-66186556D01*
X116522069Y-66186558D01*
X116639915Y-66209999D01*
X116639918Y-66210000D01*
X116639920Y-66210000D01*
X116760082Y-66210000D01*
X116760083Y-66209999D01*
X116877931Y-66186558D01*
X116988944Y-66140575D01*
X117088853Y-66073818D01*
X117173818Y-65988853D01*
X117240575Y-65888944D01*
X117286558Y-65777931D01*
X117310000Y-65660080D01*
X117310000Y-65539920D01*
X117310000Y-65539917D01*
X117309999Y-65539915D01*
X117690000Y-65539915D01*
X117690000Y-65660084D01*
X117713440Y-65777923D01*
X117713443Y-65777935D01*
X117759421Y-65888937D01*
X117759428Y-65888950D01*
X117826181Y-65988852D01*
X117826184Y-65988856D01*
X117911143Y-66073815D01*
X117911147Y-66073818D01*
X118011049Y-66140571D01*
X118011062Y-66140578D01*
X118122064Y-66186556D01*
X118122069Y-66186558D01*
X118239915Y-66209999D01*
X118239918Y-66210000D01*
X118239920Y-66210000D01*
X118360082Y-66210000D01*
X118360083Y-66209999D01*
X118477931Y-66186558D01*
X118588944Y-66140575D01*
X118688853Y-66073818D01*
X118773818Y-65988853D01*
X118840575Y-65888944D01*
X118886558Y-65777931D01*
X118910000Y-65660080D01*
X118910000Y-65539920D01*
X118910000Y-65539917D01*
X118909999Y-65539915D01*
X119390000Y-65539915D01*
X119390000Y-65660084D01*
X119413440Y-65777923D01*
X119413443Y-65777935D01*
X119459421Y-65888937D01*
X119459428Y-65888950D01*
X119526181Y-65988852D01*
X119526184Y-65988856D01*
X119611143Y-66073815D01*
X119611147Y-66073818D01*
X119711049Y-66140571D01*
X119711062Y-66140578D01*
X119822064Y-66186556D01*
X119822069Y-66186558D01*
X119939915Y-66209999D01*
X119939918Y-66210000D01*
X119939920Y-66210000D01*
X120060082Y-66210000D01*
X120060083Y-66209999D01*
X120177931Y-66186558D01*
X120288944Y-66140575D01*
X120388853Y-66073818D01*
X120473818Y-65988853D01*
X120540575Y-65888944D01*
X120586558Y-65777931D01*
X120610000Y-65660080D01*
X120610000Y-65539920D01*
X120610000Y-65539917D01*
X120609999Y-65539915D01*
X120586559Y-65422076D01*
X120586558Y-65422069D01*
X120567676Y-65376484D01*
X120540578Y-65311062D01*
X120540571Y-65311049D01*
X120473818Y-65211147D01*
X120473815Y-65211143D01*
X120388856Y-65126184D01*
X120388852Y-65126181D01*
X120288950Y-65059428D01*
X120288937Y-65059421D01*
X120177935Y-65013443D01*
X120177923Y-65013440D01*
X120060083Y-64990000D01*
X120060080Y-64990000D01*
X119939920Y-64990000D01*
X119939917Y-64990000D01*
X119822076Y-65013440D01*
X119822064Y-65013443D01*
X119711062Y-65059421D01*
X119711049Y-65059428D01*
X119611147Y-65126181D01*
X119611143Y-65126184D01*
X119526184Y-65211143D01*
X119526181Y-65211147D01*
X119459428Y-65311049D01*
X119459421Y-65311062D01*
X119413443Y-65422064D01*
X119413440Y-65422076D01*
X119390000Y-65539915D01*
X118909999Y-65539915D01*
X118886559Y-65422076D01*
X118886558Y-65422069D01*
X118867676Y-65376484D01*
X118840578Y-65311062D01*
X118840571Y-65311049D01*
X118773818Y-65211147D01*
X118773815Y-65211143D01*
X118688856Y-65126184D01*
X118688852Y-65126181D01*
X118588950Y-65059428D01*
X118588937Y-65059421D01*
X118477935Y-65013443D01*
X118477923Y-65013440D01*
X118360083Y-64990000D01*
X118360080Y-64990000D01*
X118239920Y-64990000D01*
X118239917Y-64990000D01*
X118122076Y-65013440D01*
X118122064Y-65013443D01*
X118011062Y-65059421D01*
X118011049Y-65059428D01*
X117911147Y-65126181D01*
X117911143Y-65126184D01*
X117826184Y-65211143D01*
X117826181Y-65211147D01*
X117759428Y-65311049D01*
X117759421Y-65311062D01*
X117713443Y-65422064D01*
X117713440Y-65422076D01*
X117690000Y-65539915D01*
X117309999Y-65539915D01*
X117286559Y-65422076D01*
X117286558Y-65422069D01*
X117267676Y-65376484D01*
X117240578Y-65311062D01*
X117240571Y-65311049D01*
X117173818Y-65211147D01*
X117173815Y-65211143D01*
X117088856Y-65126184D01*
X117088852Y-65126181D01*
X116988950Y-65059428D01*
X116988937Y-65059421D01*
X116877935Y-65013443D01*
X116877923Y-65013440D01*
X116760083Y-64990000D01*
X116760080Y-64990000D01*
X116639920Y-64990000D01*
X116639917Y-64990000D01*
X116522076Y-65013440D01*
X116522064Y-65013443D01*
X116411062Y-65059421D01*
X116411049Y-65059428D01*
X116311147Y-65126181D01*
X116311143Y-65126184D01*
X116226184Y-65211143D01*
X116226181Y-65211147D01*
X116159428Y-65311049D01*
X116159421Y-65311062D01*
X116113443Y-65422064D01*
X116113440Y-65422076D01*
X116090000Y-65539915D01*
X115809999Y-65539915D01*
X115786559Y-65422076D01*
X115786558Y-65422069D01*
X115767676Y-65376484D01*
X115740578Y-65311062D01*
X115740571Y-65311049D01*
X115673818Y-65211147D01*
X115673815Y-65211143D01*
X115588856Y-65126184D01*
X115588852Y-65126181D01*
X115488950Y-65059428D01*
X115488937Y-65059421D01*
X115377935Y-65013443D01*
X115377923Y-65013440D01*
X115260083Y-64990000D01*
X115260080Y-64990000D01*
X115139920Y-64990000D01*
X115139917Y-64990000D01*
X115022076Y-65013440D01*
X115022064Y-65013443D01*
X114911062Y-65059421D01*
X114911049Y-65059428D01*
X114811147Y-65126181D01*
X114811143Y-65126184D01*
X114726184Y-65211143D01*
X114726181Y-65211147D01*
X114659424Y-65311055D01*
X114659356Y-65311184D01*
X114659302Y-65311238D01*
X114656040Y-65316121D01*
X114655113Y-65315502D01*
X114610391Y-65361026D01*
X114542252Y-65376484D01*
X114476574Y-65352649D01*
X114444569Y-65315713D01*
X114443960Y-65316121D01*
X114440719Y-65311270D01*
X114440644Y-65311184D01*
X114440575Y-65311055D01*
X114373818Y-65211147D01*
X114373815Y-65211143D01*
X114288856Y-65126184D01*
X114288852Y-65126181D01*
X114188950Y-65059428D01*
X114188937Y-65059421D01*
X114077935Y-65013443D01*
X114077923Y-65013440D01*
X113960083Y-64990000D01*
X113960080Y-64990000D01*
X113839920Y-64990000D01*
X113839917Y-64990000D01*
X113722076Y-65013440D01*
X113722064Y-65013443D01*
X113611062Y-65059421D01*
X113611049Y-65059428D01*
X113511147Y-65126181D01*
X113511143Y-65126184D01*
X113426184Y-65211143D01*
X113426181Y-65211147D01*
X113359428Y-65311049D01*
X113359421Y-65311062D01*
X113313443Y-65422064D01*
X113313440Y-65422076D01*
X113290000Y-65539915D01*
X99100000Y-65539915D01*
X99100000Y-63424000D01*
X99119685Y-63356961D01*
X99172489Y-63311206D01*
X99224000Y-63300000D01*
X121276000Y-63300000D01*
X121343039Y-63319685D01*
G37*
%TD.AperFunction*%
%TD*%
%TA.AperFunction,Conductor*%
%TO.N,+3V3*%
G36*
X172443039Y-106919685D02*
G01*
X172488794Y-106972489D01*
X172500000Y-107024000D01*
X172500000Y-108656014D01*
X172498738Y-108673661D01*
X172491500Y-108724001D01*
X172491500Y-113776000D01*
X172471815Y-113843039D01*
X172419011Y-113888794D01*
X172367500Y-113900000D01*
X168924000Y-113900000D01*
X168856961Y-113880315D01*
X168811206Y-113827511D01*
X168800000Y-113776000D01*
X168800000Y-107024000D01*
X168819685Y-106956961D01*
X168872489Y-106911206D01*
X168924000Y-106900000D01*
X172376000Y-106900000D01*
X172443039Y-106919685D01*
G37*
%TD.AperFunction*%
%TD*%
%TA.AperFunction,Conductor*%
%TO.N,GND*%
G36*
X181343039Y-124819685D02*
G01*
X181388794Y-124872489D01*
X181400000Y-124924000D01*
X181400000Y-127376000D01*
X181380315Y-127443039D01*
X181327511Y-127488794D01*
X181276000Y-127500000D01*
X179224000Y-127500000D01*
X179156961Y-127480315D01*
X179111206Y-127427511D01*
X179100000Y-127376000D01*
X179100000Y-124980576D01*
X179108644Y-124951135D01*
X179115168Y-124921149D01*
X179118922Y-124916133D01*
X179119685Y-124913537D01*
X179136319Y-124892895D01*
X179192895Y-124836319D01*
X179254218Y-124802834D01*
X179280576Y-124800000D01*
X181276000Y-124800000D01*
X181343039Y-124819685D01*
G37*
%TD.AperFunction*%
%TD*%
%TA.AperFunction,Conductor*%
%TO.N,GND*%
G36*
X189943039Y-103919685D02*
G01*
X189988794Y-103972489D01*
X190000000Y-104024000D01*
X190000000Y-106976000D01*
X189980315Y-107043039D01*
X189927511Y-107088794D01*
X189876000Y-107100000D01*
X186924000Y-107100000D01*
X186856961Y-107080315D01*
X186811206Y-107027511D01*
X186800000Y-106976000D01*
X186800000Y-104024000D01*
X186819685Y-103956961D01*
X186872489Y-103911206D01*
X186924000Y-103900000D01*
X189876000Y-103900000D01*
X189943039Y-103919685D01*
G37*
%TD.AperFunction*%
%TD*%
%TA.AperFunction,Conductor*%
%TO.N,GND*%
G36*
X115943039Y-112919685D02*
G01*
X115988794Y-112972489D01*
X116000000Y-113024000D01*
X116000000Y-114100000D01*
X119676000Y-114100000D01*
X119743039Y-114119685D01*
X119788794Y-114172489D01*
X119800000Y-114224000D01*
X119800000Y-114776000D01*
X119780315Y-114843039D01*
X119727511Y-114888794D01*
X119676000Y-114900000D01*
X116000000Y-114900000D01*
X116000000Y-116076000D01*
X115980315Y-116143039D01*
X115927511Y-116188794D01*
X115876000Y-116200000D01*
X114924000Y-116200000D01*
X114856961Y-116180315D01*
X114811206Y-116127511D01*
X114800000Y-116076000D01*
X114800000Y-113024000D01*
X114819685Y-112956961D01*
X114872489Y-112911206D01*
X114924000Y-112900000D01*
X115876000Y-112900000D01*
X115943039Y-112919685D01*
G37*
%TD.AperFunction*%
%TD*%
%TA.AperFunction,Conductor*%
%TO.N,GND*%
G36*
X177138082Y-108619685D02*
G01*
X177158724Y-108636319D01*
X177163681Y-108641276D01*
X177197166Y-108702599D01*
X177200000Y-108728957D01*
X177200000Y-115276000D01*
X177180315Y-115343039D01*
X177127511Y-115388794D01*
X177076000Y-115400000D01*
X172824000Y-115400000D01*
X172756961Y-115380315D01*
X172711206Y-115327511D01*
X172700000Y-115276000D01*
X172700000Y-108724000D01*
X172719685Y-108656961D01*
X172772489Y-108611206D01*
X172824000Y-108600000D01*
X177071043Y-108600000D01*
X177138082Y-108619685D01*
G37*
%TD.AperFunction*%
%TD*%
%TA.AperFunction,Conductor*%
%TO.N,GND*%
G36*
X173943039Y-101719685D02*
G01*
X173988794Y-101772489D01*
X174000000Y-101824000D01*
X174000000Y-104076000D01*
X173980315Y-104143039D01*
X173927511Y-104188794D01*
X173876000Y-104200000D01*
X170824000Y-104200000D01*
X170756961Y-104180315D01*
X170711206Y-104127511D01*
X170700000Y-104076000D01*
X170700000Y-101824000D01*
X170719685Y-101756961D01*
X170772489Y-101711206D01*
X170824000Y-101700000D01*
X173876000Y-101700000D01*
X173943039Y-101719685D01*
G37*
%TD.AperFunction*%
%TD*%
%TA.AperFunction,Conductor*%
%TO.N,GND*%
G36*
X166843039Y-68419685D02*
G01*
X166888794Y-68472489D01*
X166900000Y-68524000D01*
X166900000Y-78576000D01*
X166880315Y-78643039D01*
X166827511Y-78688794D01*
X166776000Y-78700000D01*
X159224000Y-78700000D01*
X159156961Y-78680315D01*
X159111206Y-78627511D01*
X159100000Y-78576000D01*
X159100000Y-68524000D01*
X159119685Y-68456961D01*
X159172489Y-68411206D01*
X159224000Y-68400000D01*
X166776000Y-68400000D01*
X166843039Y-68419685D01*
G37*
%TD.AperFunction*%
%TD*%
%TA.AperFunction,Conductor*%
%TO.N,GND*%
G36*
X188843039Y-119619685D02*
G01*
X188888794Y-119672489D01*
X188900000Y-119724000D01*
X188900000Y-124776000D01*
X188880315Y-124843039D01*
X188827511Y-124888794D01*
X188776000Y-124900000D01*
X185324000Y-124900000D01*
X185256961Y-124880315D01*
X185211206Y-124827511D01*
X185200000Y-124776000D01*
X185200000Y-120730280D01*
X185203991Y-120699073D01*
X185222088Y-120629500D01*
X185239527Y-120593816D01*
X185238796Y-120593394D01*
X185261371Y-120554292D01*
X185261372Y-120554291D01*
X185282817Y-120517147D01*
X185303500Y-120439957D01*
X185303500Y-120307504D01*
X185304740Y-120294020D01*
X185303500Y-120286722D01*
X185303500Y-119760043D01*
X185303500Y-119724000D01*
X185323185Y-119656961D01*
X185375989Y-119611206D01*
X185427500Y-119600000D01*
X188776000Y-119600000D01*
X188843039Y-119619685D01*
G37*
%TD.AperFunction*%
%TD*%
%TA.AperFunction,Conductor*%
%TO.N,GND*%
G36*
X169257309Y-73932296D02*
G01*
X169817705Y-74491720D01*
X169821139Y-74499990D01*
X169817719Y-74508266D01*
X169817705Y-74508280D01*
X169257309Y-75067703D01*
X169249033Y-75071123D01*
X169241852Y-75068652D01*
X168679509Y-74630513D01*
X168675089Y-74622725D01*
X168675000Y-74621284D01*
X168675000Y-74378715D01*
X168678427Y-74370442D01*
X168679500Y-74369493D01*
X169241854Y-73931346D01*
X169250484Y-73928965D01*
X169257309Y-73932296D01*
G37*
%TD.AperFunction*%
%TD*%
%TA.AperFunction,Conductor*%
%TO.N,GND*%
G36*
X164696616Y-74373000D02*
G01*
X164696616Y-74627000D01*
X163979304Y-74798689D01*
X163899000Y-74400000D01*
X164125839Y-74062008D01*
X164696616Y-74373000D01*
G37*
%TD.AperFunction*%
%TD*%
%TA.AperFunction,Conductor*%
%TO.N,GND*%
G36*
X91303995Y-106201687D02*
G01*
X91304058Y-106201729D01*
X91401647Y-106267356D01*
X91523950Y-106349602D01*
X91528903Y-106357063D01*
X91527941Y-106364432D01*
X91341702Y-106747050D01*
X91335000Y-106752989D01*
X91331182Y-106753629D01*
X91219632Y-106753629D01*
X91211359Y-106750202D01*
X91208666Y-106746008D01*
X91030642Y-106267356D01*
X91030970Y-106258407D01*
X91037529Y-106252311D01*
X91039274Y-106251812D01*
X91295206Y-106199971D01*
X91303995Y-106201687D01*
G37*
%TD.AperFunction*%
%TD*%
%TA.AperFunction,Conductor*%
%TO.N,GND*%
G36*
X164539504Y-72627000D02*
G01*
X164237992Y-73125839D01*
X163899000Y-72900000D01*
X163820696Y-72501311D01*
X164539504Y-72373000D01*
X164539504Y-72627000D01*
G37*
%TD.AperFunction*%
%TD*%
%TA.AperFunction,Conductor*%
%TO.N,GND*%
G36*
X91303995Y-117801687D02*
G01*
X91304058Y-117801729D01*
X91401647Y-117867356D01*
X91523950Y-117949602D01*
X91528903Y-117957063D01*
X91527941Y-117964432D01*
X91341702Y-118347050D01*
X91335000Y-118352989D01*
X91331182Y-118353629D01*
X91219632Y-118353629D01*
X91211359Y-118350202D01*
X91208666Y-118346008D01*
X91030642Y-117867356D01*
X91030970Y-117858407D01*
X91037529Y-117852311D01*
X91039274Y-117851812D01*
X91295206Y-117799971D01*
X91303995Y-117801687D01*
G37*
%TD.AperFunction*%
%TD*%
%TA.AperFunction,Conductor*%
%TO.N,GND*%
G36*
X169257309Y-71932296D02*
G01*
X169817705Y-72491720D01*
X169821139Y-72499990D01*
X169817719Y-72508266D01*
X169817705Y-72508280D01*
X169257309Y-73067703D01*
X169249033Y-73071123D01*
X169241852Y-73068652D01*
X168679509Y-72630513D01*
X168675089Y-72622725D01*
X168675000Y-72621284D01*
X168675000Y-72378715D01*
X168678427Y-72370442D01*
X168679500Y-72369493D01*
X169241854Y-71931346D01*
X169250484Y-71928965D01*
X169257309Y-71932296D01*
G37*
%TD.AperFunction*%
%TD*%
%TA.AperFunction,Conductor*%
%TO.N,GND*%
G36*
X91303995Y-111501687D02*
G01*
X91304058Y-111501729D01*
X91401647Y-111567356D01*
X91523950Y-111649602D01*
X91528903Y-111657063D01*
X91527941Y-111664432D01*
X91341702Y-112047050D01*
X91335000Y-112052989D01*
X91331182Y-112053629D01*
X91219632Y-112053629D01*
X91211359Y-112050202D01*
X91208666Y-112046008D01*
X91030642Y-111567356D01*
X91030970Y-111558407D01*
X91037529Y-111552311D01*
X91039274Y-111551812D01*
X91295206Y-111499971D01*
X91303995Y-111501687D01*
G37*
%TD.AperFunction*%
%TD*%
%TA.AperFunction,Conductor*%
%TO.N,GND*%
G36*
X91303995Y-85001687D02*
G01*
X91304058Y-85001729D01*
X91401647Y-85067356D01*
X91523950Y-85149602D01*
X91528903Y-85157063D01*
X91527941Y-85164432D01*
X91341702Y-85547050D01*
X91335000Y-85552989D01*
X91331182Y-85553629D01*
X91219632Y-85553629D01*
X91211359Y-85550202D01*
X91208666Y-85546008D01*
X91030642Y-85067356D01*
X91030970Y-85058407D01*
X91037529Y-85052311D01*
X91039274Y-85051812D01*
X91295206Y-84999971D01*
X91303995Y-85001687D01*
G37*
%TD.AperFunction*%
%TD*%
%TA.AperFunction,Conductor*%
%TO.N,GND*%
G36*
X91303995Y-95701687D02*
G01*
X91304058Y-95701729D01*
X91401647Y-95767356D01*
X91523950Y-95849602D01*
X91528903Y-95857063D01*
X91527941Y-95864432D01*
X91341702Y-96247050D01*
X91335000Y-96252989D01*
X91331182Y-96253629D01*
X91219632Y-96253629D01*
X91211359Y-96250202D01*
X91208666Y-96246008D01*
X91030642Y-95767356D01*
X91030970Y-95758407D01*
X91037529Y-95752311D01*
X91039274Y-95751812D01*
X91295206Y-95699971D01*
X91303995Y-95701687D01*
G37*
%TD.AperFunction*%
%TD*%
%TA.AperFunction,Conductor*%
%TO.N,GND*%
G36*
X91303995Y-90601687D02*
G01*
X91304058Y-90601729D01*
X91401647Y-90667356D01*
X91523950Y-90749602D01*
X91528903Y-90757063D01*
X91527941Y-90764432D01*
X91341702Y-91147050D01*
X91335000Y-91152989D01*
X91331182Y-91153629D01*
X91219632Y-91153629D01*
X91211359Y-91150202D01*
X91208666Y-91146008D01*
X91030642Y-90667356D01*
X91030970Y-90658407D01*
X91037529Y-90652311D01*
X91039274Y-90651812D01*
X91295206Y-90599971D01*
X91303995Y-90601687D01*
G37*
%TD.AperFunction*%
%TD*%
%TA.AperFunction,Conductor*%
%TO.N,+3V3*%
G36*
X126957425Y-124182403D02*
G01*
X127267688Y-124491714D01*
X127271128Y-124499982D01*
X127267714Y-124508260D01*
X127267688Y-124508286D01*
X126957425Y-124817596D01*
X126949147Y-124821010D01*
X126941830Y-124818426D01*
X126629365Y-124567012D01*
X126625068Y-124559155D01*
X126625000Y-124557896D01*
X126625000Y-124442103D01*
X126628427Y-124433830D01*
X126629355Y-124432995D01*
X126941831Y-124181572D01*
X126950424Y-124179057D01*
X126957425Y-124182403D01*
G37*
%TD.AperFunction*%
%TD*%
%TA.AperFunction,Conductor*%
%TO.N,+3V3*%
G36*
X125964168Y-124271371D02*
G01*
X126346497Y-124433476D01*
X126352775Y-124439860D01*
X126353629Y-124444247D01*
X126353629Y-124555752D01*
X126350202Y-124564025D01*
X126346496Y-124566524D01*
X125964170Y-124728627D01*
X125955216Y-124728701D01*
X125949894Y-124724384D01*
X125843736Y-124566524D01*
X125803389Y-124506527D01*
X125801617Y-124497752D01*
X125803388Y-124493473D01*
X125949895Y-124275614D01*
X125957355Y-124270662D01*
X125964168Y-124271371D01*
G37*
%TD.AperFunction*%
%TD*%
%TA.AperFunction,Conductor*%
%TO.N,+3V3*%
G36*
X132566169Y-102128427D02*
G01*
X132567012Y-102129365D01*
X132818426Y-102441830D01*
X132820942Y-102450424D01*
X132817596Y-102457425D01*
X132508286Y-102767688D01*
X132500018Y-102771128D01*
X132491740Y-102767714D01*
X132491714Y-102767688D01*
X132182403Y-102457425D01*
X132178989Y-102449147D01*
X132181572Y-102441831D01*
X132432988Y-102129365D01*
X132440845Y-102125068D01*
X132442104Y-102125000D01*
X132557896Y-102125000D01*
X132566169Y-102128427D01*
G37*
%TD.AperFunction*%
%TD*%
%TA.AperFunction,Conductor*%
%TO.N,+3V3*%
G36*
X132506526Y-101403388D02*
G01*
X132724384Y-101549894D01*
X132729337Y-101557355D01*
X132728627Y-101564170D01*
X132566524Y-101946496D01*
X132560139Y-101952775D01*
X132555752Y-101953629D01*
X132444248Y-101953629D01*
X132435975Y-101950202D01*
X132433476Y-101946496D01*
X132271372Y-101564170D01*
X132271298Y-101555216D01*
X132275613Y-101549895D01*
X132493472Y-101403389D01*
X132502248Y-101401617D01*
X132506526Y-101403388D01*
G37*
%TD.AperFunction*%
%TD*%
%TA.AperFunction,Conductor*%
%TO.N,+3V3*%
G36*
X169341169Y-116728427D02*
G01*
X169342012Y-116729365D01*
X169594412Y-117043056D01*
X169596928Y-117051650D01*
X169594788Y-117057231D01*
X169284492Y-117487828D01*
X169276875Y-117492537D01*
X169268160Y-117490480D01*
X169265508Y-117487828D01*
X168955211Y-117057231D01*
X168953154Y-117048516D01*
X168955587Y-117043056D01*
X169207988Y-116729365D01*
X169215845Y-116725068D01*
X169217104Y-116725000D01*
X169332896Y-116725000D01*
X169341169Y-116728427D01*
G37*
%TD.AperFunction*%
%TD*%
%TA.AperFunction,Conductor*%
%TO.N,+3V3*%
G36*
X169303995Y-116301687D02*
G01*
X169304058Y-116301729D01*
X169401647Y-116367356D01*
X169523950Y-116449602D01*
X169528903Y-116457063D01*
X169527941Y-116464432D01*
X169341702Y-116847050D01*
X169335000Y-116852989D01*
X169331182Y-116853629D01*
X169219632Y-116853629D01*
X169211359Y-116850202D01*
X169208666Y-116846008D01*
X169030642Y-116367356D01*
X169030970Y-116358407D01*
X169037529Y-116352311D01*
X169039274Y-116351812D01*
X169295206Y-116299971D01*
X169303995Y-116301687D01*
G37*
%TD.AperFunction*%
%TD*%
%TA.AperFunction,Conductor*%
%TO.N,+3V3*%
G36*
X134058169Y-110681573D02*
G01*
X134370635Y-110932988D01*
X134374932Y-110940844D01*
X134375000Y-110942103D01*
X134375000Y-111057896D01*
X134371573Y-111066169D01*
X134370635Y-111067012D01*
X134058169Y-111318426D01*
X134049575Y-111320942D01*
X134042574Y-111317596D01*
X133791218Y-111067012D01*
X133732310Y-111008285D01*
X133728871Y-111000018D01*
X133732285Y-110991740D01*
X133732311Y-110991714D01*
X134042574Y-110682403D01*
X134050852Y-110678989D01*
X134058169Y-110681573D01*
G37*
%TD.AperFunction*%
%TD*%
%TA.AperFunction,Conductor*%
%TO.N,+3V3*%
G36*
X134850105Y-110775615D02*
G01*
X134996609Y-110993471D01*
X134998382Y-111002248D01*
X134996609Y-111006529D01*
X134850105Y-111224384D01*
X134842644Y-111229337D01*
X134835829Y-111228627D01*
X134453504Y-111066524D01*
X134447225Y-111060139D01*
X134446371Y-111055752D01*
X134446371Y-110944247D01*
X134449798Y-110935974D01*
X134453501Y-110933476D01*
X134835831Y-110771371D01*
X134844783Y-110771298D01*
X134850105Y-110775615D01*
G37*
%TD.AperFunction*%
%TD*%
%TA.AperFunction,Conductor*%
%TO.N,+3V3*%
G36*
X137566169Y-120128427D02*
G01*
X137567012Y-120129365D01*
X137818426Y-120441830D01*
X137820942Y-120450424D01*
X137817596Y-120457425D01*
X137508286Y-120767688D01*
X137500018Y-120771128D01*
X137491740Y-120767714D01*
X137491714Y-120767688D01*
X137182403Y-120457425D01*
X137178989Y-120449147D01*
X137181572Y-120441831D01*
X137432988Y-120129365D01*
X137440845Y-120125068D01*
X137442104Y-120125000D01*
X137557896Y-120125000D01*
X137566169Y-120128427D01*
G37*
%TD.AperFunction*%
%TD*%
%TA.AperFunction,Conductor*%
%TO.N,+3V3*%
G36*
X137506526Y-119503388D02*
G01*
X137724384Y-119649894D01*
X137729337Y-119657355D01*
X137728627Y-119664170D01*
X137566524Y-120046496D01*
X137560139Y-120052775D01*
X137555752Y-120053629D01*
X137444248Y-120053629D01*
X137435975Y-120050202D01*
X137433476Y-120046496D01*
X137271372Y-119664170D01*
X137271298Y-119655216D01*
X137275613Y-119649895D01*
X137493472Y-119503389D01*
X137502248Y-119501617D01*
X137506526Y-119503388D01*
G37*
%TD.AperFunction*%
%TD*%
%TA.AperFunction,Conductor*%
%TO.N,ESP_EN*%
G36*
X149504705Y-111255985D02*
G01*
X149504758Y-111256021D01*
X149721386Y-111401869D01*
X149726335Y-111409332D01*
X149724557Y-111418108D01*
X149723661Y-111419274D01*
X149406320Y-111782296D01*
X149398295Y-111786270D01*
X149389811Y-111783405D01*
X149389238Y-111782869D01*
X149310746Y-111704377D01*
X149307568Y-111698503D01*
X149228289Y-111320071D01*
X149229946Y-111311273D01*
X149237341Y-111306223D01*
X149237355Y-111306219D01*
X149495919Y-111254255D01*
X149504705Y-111255985D01*
G37*
%TD.AperFunction*%
%TD*%
%TA.AperFunction,Conductor*%
%TO.N,ESP_EN*%
G36*
X149215592Y-112828427D02*
G01*
X149216983Y-112830104D01*
X149346557Y-113019955D01*
X149348390Y-113028721D01*
X149347829Y-113030709D01*
X149160936Y-113522238D01*
X149154793Y-113528753D01*
X149145842Y-113529016D01*
X149139327Y-113522873D01*
X149139064Y-113522238D01*
X149112124Y-113451386D01*
X148952170Y-113030707D01*
X148952433Y-113021758D01*
X148953436Y-113019964D01*
X149083017Y-112830104D01*
X149090511Y-112825203D01*
X149092681Y-112825000D01*
X149207319Y-112825000D01*
X149215592Y-112828427D01*
G37*
%TD.AperFunction*%
%TD*%
%TA.AperFunction,Conductor*%
%TO.N,Net-(IC5-VBUS)*%
G36*
X175477713Y-115751533D02*
G01*
X175880862Y-116092995D01*
X175884960Y-116100957D01*
X175885000Y-116101923D01*
X175885000Y-116218076D01*
X175881573Y-116226349D01*
X175880862Y-116227004D01*
X175477713Y-116568466D01*
X175469185Y-116571198D01*
X175462416Y-116568317D01*
X175209484Y-116345459D01*
X175008962Y-116168778D01*
X175005021Y-116160738D01*
X175007919Y-116152265D01*
X175008958Y-116151225D01*
X175462416Y-115751681D01*
X175470889Y-115748784D01*
X175477713Y-115751533D01*
G37*
%TD.AperFunction*%
%TD*%
%TA.AperFunction,Conductor*%
%TO.N,Net-(IC5-VBUS)*%
G36*
X176037583Y-115751682D02*
G01*
X176491036Y-116151221D01*
X176494978Y-116159262D01*
X176492080Y-116167735D01*
X176491036Y-116168779D01*
X176037583Y-116568317D01*
X176029110Y-116571215D01*
X176022286Y-116568466D01*
X175619138Y-116227004D01*
X175615040Y-116219042D01*
X175615000Y-116218076D01*
X175615000Y-116101923D01*
X175618427Y-116093650D01*
X175619138Y-116092995D01*
X176022287Y-115751532D01*
X176030814Y-115748801D01*
X176037583Y-115751682D01*
G37*
%TD.AperFunction*%
%TD*%
%TA.AperFunction,Conductor*%
%TO.N,Net-(IC5-VBUS)*%
G36*
X176508261Y-116167281D02*
G01*
X176907402Y-116567384D01*
X176910819Y-116575660D01*
X176908047Y-116583208D01*
X176567005Y-116985862D01*
X176559043Y-116989960D01*
X176558077Y-116990000D01*
X176441923Y-116990000D01*
X176433650Y-116986573D01*
X176432995Y-116985862D01*
X176091952Y-116583208D01*
X176089220Y-116574680D01*
X176092595Y-116567386D01*
X176491718Y-116167301D01*
X176499986Y-116163865D01*
X176508261Y-116167281D01*
G37*
%TD.AperFunction*%
%TD*%
%TA.AperFunction,Conductor*%
%TO.N,Net-(IC5-VBUS)*%
G36*
X174537863Y-115784808D02*
G01*
X174990240Y-116151283D01*
X174994511Y-116159153D01*
X174991966Y-116167739D01*
X174990610Y-116169153D01*
X174536858Y-116568957D01*
X174528385Y-116571855D01*
X174522476Y-116569806D01*
X174521246Y-116568957D01*
X174356055Y-116454915D01*
X174120053Y-116291988D01*
X174115191Y-116284468D01*
X174115000Y-116282360D01*
X174115000Y-116166622D01*
X174118427Y-116158349D01*
X174118746Y-116158041D01*
X174522564Y-115785300D01*
X174530966Y-115782208D01*
X174537863Y-115784808D01*
G37*
%TD.AperFunction*%
%TD*%
%TA.AperFunction,Conductor*%
%TO.N,Net-(IC5-VBUS)*%
G36*
X173956943Y-115905587D02*
G01*
X174080570Y-116005059D01*
X174270635Y-116157988D01*
X174274932Y-116165844D01*
X174275000Y-116167103D01*
X174275000Y-116282896D01*
X174271573Y-116291169D01*
X174270635Y-116292012D01*
X173956943Y-116544412D01*
X173948349Y-116546928D01*
X173942768Y-116544788D01*
X173770203Y-116420434D01*
X173512170Y-116234490D01*
X173507462Y-116226875D01*
X173509519Y-116218160D01*
X173512168Y-116215510D01*
X173942769Y-115905210D01*
X173951483Y-115903154D01*
X173956943Y-115905587D01*
G37*
%TD.AperFunction*%
%TD*%
%TA.AperFunction,Conductor*%
%TO.N,Net-(IC5-VBUS)*%
G36*
X179457425Y-117182403D02*
G01*
X179767688Y-117491714D01*
X179771128Y-117499982D01*
X179767714Y-117508260D01*
X179767688Y-117508286D01*
X179457425Y-117817596D01*
X179449147Y-117821010D01*
X179441830Y-117818426D01*
X179129365Y-117567012D01*
X179125068Y-117559155D01*
X179125000Y-117557896D01*
X179125000Y-117442103D01*
X179128427Y-117433830D01*
X179129355Y-117432995D01*
X179441831Y-117181572D01*
X179450424Y-117179057D01*
X179457425Y-117182403D01*
G37*
%TD.AperFunction*%
%TD*%
%TA.AperFunction,Conductor*%
%TO.N,Net-(IC5-VBUS)*%
G36*
X176977545Y-115772580D02*
G01*
X177381094Y-116133011D01*
X177384981Y-116141078D01*
X177385000Y-116141737D01*
X177385000Y-116257652D01*
X177381573Y-116265925D01*
X177380324Y-116267009D01*
X176977615Y-116569283D01*
X176968941Y-116571509D01*
X176962856Y-116568705D01*
X176509223Y-116169007D01*
X176505281Y-116160966D01*
X176508179Y-116152493D01*
X176509443Y-116151259D01*
X176962242Y-115772332D01*
X176970786Y-115769652D01*
X176977545Y-115772580D01*
G37*
%TD.AperFunction*%
%TD*%
%TA.AperFunction,Conductor*%
%TO.N,Net-(IC5-VBUS)*%
G36*
X177350105Y-115975615D02*
G01*
X177496609Y-116193471D01*
X177498382Y-116202248D01*
X177496609Y-116206529D01*
X177350105Y-116424384D01*
X177342644Y-116429337D01*
X177335829Y-116428627D01*
X176953504Y-116266524D01*
X176947225Y-116260139D01*
X176946371Y-116255752D01*
X176946371Y-116144247D01*
X176949798Y-116135974D01*
X176953501Y-116133476D01*
X177335831Y-115971371D01*
X177344783Y-115971298D01*
X177350105Y-115975615D01*
G37*
%TD.AperFunction*%
%TD*%
%TA.AperFunction,Conductor*%
%TO.N,Net-(IC4-B)*%
G36*
X172455500Y-105814425D02*
G01*
X172770635Y-106067988D01*
X172774932Y-106075844D01*
X172775000Y-106077103D01*
X172775000Y-106192896D01*
X172771573Y-106201169D01*
X172770635Y-106202012D01*
X172455501Y-106455573D01*
X172446907Y-106458089D01*
X172443519Y-106457195D01*
X171723813Y-106145738D01*
X171717582Y-106139307D01*
X171717722Y-106130353D01*
X171723813Y-106124262D01*
X172443520Y-105812803D01*
X172452473Y-105812664D01*
X172455500Y-105814425D01*
G37*
%TD.AperFunction*%
%TD*%
%TA.AperFunction,Conductor*%
%TO.N,Net-(IC4-B)*%
G36*
X184881573Y-104253150D02*
G01*
X185478983Y-104539449D01*
X185484963Y-104546115D01*
X185484478Y-104555056D01*
X185478983Y-104560551D01*
X184881573Y-104846849D01*
X184872632Y-104847334D01*
X184869274Y-104845486D01*
X184579457Y-104617013D01*
X184575081Y-104609200D01*
X184575000Y-104607825D01*
X184575000Y-104492174D01*
X184578427Y-104483901D01*
X184579453Y-104482989D01*
X184869275Y-104254512D01*
X184877892Y-104252082D01*
X184881573Y-104253150D01*
G37*
%TD.AperFunction*%
%TD*%
%TA.AperFunction,Conductor*%
%TO.N,Net-(IC4-B)*%
G36*
X187008907Y-100682638D02*
G01*
X187008979Y-100682710D01*
X187558895Y-101242237D01*
X187562250Y-101250539D01*
X187559332Y-101258169D01*
X187035461Y-101853219D01*
X187027422Y-101857164D01*
X187018948Y-101854270D01*
X187018406Y-101853761D01*
X186937454Y-101772809D01*
X186937372Y-101772726D01*
X186433108Y-101258272D01*
X186429764Y-101249965D01*
X186433189Y-101241810D01*
X186992362Y-100682637D01*
X187000634Y-100679211D01*
X187008907Y-100682638D01*
G37*
%TD.AperFunction*%
%TD*%
%TA.AperFunction,Conductor*%
%TO.N,Net-(IC4-B)*%
G36*
X181232892Y-107506185D02*
G01*
X182084138Y-108173306D01*
X182489249Y-108490791D01*
X182493647Y-108498592D01*
X182491241Y-108507217D01*
X182489249Y-108509209D01*
X181232894Y-109493813D01*
X181224269Y-109496219D01*
X181217679Y-109493144D01*
X180228702Y-108566966D01*
X180225006Y-108558809D01*
X180225000Y-108558426D01*
X180225000Y-108441573D01*
X180228427Y-108433300D01*
X180228702Y-108433033D01*
X181217680Y-107506854D01*
X181226060Y-107503701D01*
X181232892Y-107506185D01*
G37*
%TD.AperFunction*%
%TD*%
%TA.AperFunction,Conductor*%
%TO.N,Net-(IC4-B)*%
G36*
X185066039Y-103951321D02*
G01*
X185629910Y-104244836D01*
X185635665Y-104251694D01*
X185635118Y-104260142D01*
X185504998Y-104540239D01*
X185498404Y-104546299D01*
X185489458Y-104545921D01*
X185489310Y-104545851D01*
X184883216Y-104253957D01*
X184877249Y-104247280D01*
X184876831Y-104241066D01*
X184934583Y-103959350D01*
X184939602Y-103951934D01*
X184946045Y-103950000D01*
X185060638Y-103950000D01*
X185066039Y-103951321D01*
G37*
%TD.AperFunction*%
%TD*%
%TA.AperFunction,Conductor*%
%TO.N,Net-(IC4-B)*%
G36*
X183264616Y-106228427D02*
G01*
X183266759Y-106231372D01*
X183771124Y-107217422D01*
X183771841Y-107226348D01*
X183768984Y-107231020D01*
X182511360Y-108489631D01*
X182503089Y-108493061D01*
X182494814Y-108489637D01*
X182492671Y-108486696D01*
X181850641Y-107233637D01*
X181849919Y-107224712D01*
X181853885Y-107219055D01*
X183133336Y-106227451D01*
X183140503Y-106225000D01*
X183256343Y-106225000D01*
X183264616Y-106228427D01*
G37*
%TD.AperFunction*%
%TD*%
%TA.AperFunction,Conductor*%
%TO.N,Net-(IC4-A)*%
G36*
X181718841Y-102508290D02*
G01*
X182495285Y-103492755D01*
X182497717Y-103501373D01*
X182495285Y-103507245D01*
X181718841Y-104491709D01*
X181711027Y-104496083D01*
X181703387Y-104494344D01*
X180241341Y-103566946D01*
X180236190Y-103559621D01*
X180235908Y-103557066D01*
X180235908Y-103442933D01*
X180239335Y-103434660D01*
X180241336Y-103433056D01*
X181703388Y-102505654D01*
X181712209Y-102504117D01*
X181718841Y-102508290D01*
G37*
%TD.AperFunction*%
%TD*%
%TA.AperFunction,Conductor*%
%TO.N,Net-(IC4-A)*%
G36*
X185504928Y-106459612D02*
G01*
X185504998Y-106459760D01*
X185635118Y-106739857D01*
X185635496Y-106748803D01*
X185629909Y-106755164D01*
X185297366Y-106928264D01*
X185081463Y-107040650D01*
X185066040Y-107048678D01*
X185060638Y-107050000D01*
X184946045Y-107050000D01*
X184937772Y-107046573D01*
X184934583Y-107040650D01*
X184876831Y-106758933D01*
X184878527Y-106750140D01*
X184883213Y-106746044D01*
X185489310Y-106454147D01*
X185498251Y-106453645D01*
X185504928Y-106459612D01*
G37*
%TD.AperFunction*%
%TD*%
%TA.AperFunction,Conductor*%
%TO.N,Net-(IC4-A)*%
G36*
X185064025Y-107549798D02*
G01*
X185066524Y-107553504D01*
X185228627Y-107935829D01*
X185228701Y-107944783D01*
X185224384Y-107950105D01*
X185006529Y-108096609D01*
X184997752Y-108098382D01*
X184993471Y-108096609D01*
X184775615Y-107950105D01*
X184770662Y-107942644D01*
X184771371Y-107935831D01*
X184933476Y-107553504D01*
X184939861Y-107547225D01*
X184944248Y-107546371D01*
X185055752Y-107546371D01*
X185064025Y-107549798D01*
G37*
%TD.AperFunction*%
%TD*%
%TA.AperFunction,Conductor*%
%TO.N,Net-(IC4-A)*%
G36*
X172455500Y-104544425D02*
G01*
X172770635Y-104797988D01*
X172774932Y-104805844D01*
X172775000Y-104807103D01*
X172775000Y-104922896D01*
X172771573Y-104931169D01*
X172770635Y-104932012D01*
X172455501Y-105185573D01*
X172446907Y-105188089D01*
X172443519Y-105187195D01*
X171723813Y-104875738D01*
X171717582Y-104869307D01*
X171717722Y-104860353D01*
X171723813Y-104854262D01*
X172443520Y-104542803D01*
X172452473Y-104542664D01*
X172455500Y-104544425D01*
G37*
%TD.AperFunction*%
%TD*%
%TA.AperFunction,Conductor*%
%TO.N,Net-(CN3-Pad2)*%
G36*
X77058135Y-91456257D02*
G01*
X77295748Y-91639003D01*
X77595433Y-91869488D01*
X77599902Y-91877247D01*
X77600000Y-91878761D01*
X77600000Y-92121238D01*
X77596573Y-92129511D01*
X77595433Y-92130512D01*
X77058135Y-92543742D01*
X77049488Y-92546070D01*
X77042736Y-92542749D01*
X76507296Y-92008281D01*
X76503862Y-92000011D01*
X76507281Y-91991734D01*
X76507296Y-91991719D01*
X76629750Y-91869487D01*
X77042737Y-91457249D01*
X77051013Y-91453831D01*
X77058135Y-91456257D01*
G37*
%TD.AperFunction*%
%TD*%
%TA.AperFunction,Conductor*%
%TO.N,Net-(CN3-Pad2)*%
G36*
X78718638Y-91008033D02*
G01*
X79495285Y-91992755D01*
X79497717Y-92001373D01*
X79495285Y-92007245D01*
X78718638Y-92991966D01*
X78710824Y-92996340D01*
X78703496Y-92994792D01*
X77241653Y-92130397D01*
X77236276Y-92123236D01*
X77235908Y-92120326D01*
X77235908Y-91879673D01*
X77239335Y-91871400D01*
X77241647Y-91869606D01*
X78703497Y-91005206D01*
X78712361Y-91003946D01*
X78718638Y-91008033D01*
G37*
%TD.AperFunction*%
%TD*%
%TA.AperFunction,Conductor*%
%TO.N,Net-(CN3-Pad3)*%
G36*
X77058135Y-96456257D02*
G01*
X77295748Y-96639003D01*
X77595433Y-96869488D01*
X77599902Y-96877247D01*
X77600000Y-96878761D01*
X77600000Y-97121238D01*
X77596573Y-97129511D01*
X77595433Y-97130512D01*
X77058135Y-97543742D01*
X77049488Y-97546070D01*
X77042736Y-97542749D01*
X76507296Y-97008281D01*
X76503862Y-97000011D01*
X76507281Y-96991734D01*
X76507296Y-96991719D01*
X76629750Y-96869487D01*
X77042737Y-96457249D01*
X77051013Y-96453831D01*
X77058135Y-96456257D01*
G37*
%TD.AperFunction*%
%TD*%
%TA.AperFunction,Conductor*%
%TO.N,Net-(CN3-Pad3)*%
G36*
X78718638Y-96008033D02*
G01*
X79495285Y-96992755D01*
X79497717Y-97001373D01*
X79495285Y-97007245D01*
X78718638Y-97991966D01*
X78710824Y-97996340D01*
X78703496Y-97994792D01*
X77241653Y-97130397D01*
X77236276Y-97123236D01*
X77235908Y-97120326D01*
X77235908Y-96879673D01*
X77239335Y-96871400D01*
X77241647Y-96869606D01*
X78703497Y-96005206D01*
X78712361Y-96003946D01*
X78718638Y-96008033D01*
G37*
%TD.AperFunction*%
%TD*%
%TA.AperFunction,Conductor*%
%TO.N,Net-(CN3-Pad1)*%
G36*
X77058135Y-86456257D02*
G01*
X77295748Y-86639003D01*
X77595433Y-86869488D01*
X77599902Y-86877247D01*
X77600000Y-86878761D01*
X77600000Y-87121238D01*
X77596573Y-87129511D01*
X77595433Y-87130512D01*
X77058135Y-87543742D01*
X77049488Y-87546070D01*
X77042736Y-87542749D01*
X76507296Y-87008281D01*
X76503862Y-87000011D01*
X76507281Y-86991734D01*
X76507296Y-86991719D01*
X76629750Y-86869487D01*
X77042737Y-86457249D01*
X77051013Y-86453831D01*
X77058135Y-86456257D01*
G37*
%TD.AperFunction*%
%TD*%
%TA.AperFunction,Conductor*%
%TO.N,Net-(CN3-Pad1)*%
G36*
X78232619Y-86005971D02*
G01*
X79489249Y-86990791D01*
X79493647Y-86998592D01*
X79491241Y-87007217D01*
X79489249Y-87009209D01*
X78232619Y-87994028D01*
X78223994Y-87996434D01*
X78217707Y-87993633D01*
X77229005Y-87130496D01*
X77225027Y-87122474D01*
X77225000Y-87121682D01*
X77225000Y-86878317D01*
X77228427Y-86870044D01*
X77228994Y-86869512D01*
X78217708Y-86006365D01*
X78226194Y-86003507D01*
X78232619Y-86005971D01*
G37*
%TD.AperFunction*%
%TD*%
%TA.AperFunction,Conductor*%
%TO.N,/Limit Switches/LMT_C*%
G36*
X90242557Y-101242548D02*
G01*
X90992710Y-101991721D01*
X90996142Y-101999992D01*
X90992721Y-102008268D01*
X90992710Y-102008279D01*
X90242557Y-102757451D01*
X90234281Y-102760872D01*
X90226795Y-102758157D01*
X89474206Y-102130507D01*
X89470048Y-102122577D01*
X89470000Y-102121522D01*
X89470000Y-101878477D01*
X89473427Y-101870204D01*
X89474206Y-101869492D01*
X90226796Y-101241841D01*
X90235344Y-101239175D01*
X90242557Y-101242548D01*
G37*
%TD.AperFunction*%
%TD*%
%TA.AperFunction,Conductor*%
%TO.N,/Limit Switches/LMT_C*%
G36*
X80296502Y-101005206D02*
G01*
X81758348Y-101869603D01*
X81763724Y-101876763D01*
X81764092Y-101879673D01*
X81764092Y-102120326D01*
X81760665Y-102128599D01*
X81758347Y-102130397D01*
X80296503Y-102994792D01*
X80287638Y-102996053D01*
X80281361Y-102991966D01*
X79600426Y-102128599D01*
X79504713Y-102007244D01*
X79502282Y-101998627D01*
X79504714Y-101992755D01*
X80281361Y-101008032D01*
X80289175Y-101003659D01*
X80296502Y-101005206D01*
G37*
%TD.AperFunction*%
%TD*%
%TA.AperFunction,Conductor*%
%TO.N,Net-(CN4-Pad3)*%
G36*
X77058135Y-116956257D02*
G01*
X77295748Y-117139003D01*
X77595433Y-117369488D01*
X77599902Y-117377247D01*
X77600000Y-117378761D01*
X77600000Y-117621238D01*
X77596573Y-117629511D01*
X77595433Y-117630512D01*
X77058135Y-118043742D01*
X77049488Y-118046070D01*
X77042736Y-118042749D01*
X76507296Y-117508281D01*
X76503862Y-117500011D01*
X76507281Y-117491734D01*
X76507296Y-117491719D01*
X76629750Y-117369487D01*
X77042737Y-116957249D01*
X77051013Y-116953831D01*
X77058135Y-116956257D01*
G37*
%TD.AperFunction*%
%TD*%
%TA.AperFunction,Conductor*%
%TO.N,Net-(CN4-Pad3)*%
G36*
X78718638Y-116508033D02*
G01*
X79495285Y-117492755D01*
X79497717Y-117501373D01*
X79495285Y-117507245D01*
X78718638Y-118491966D01*
X78710824Y-118496340D01*
X78703496Y-118494792D01*
X77241653Y-117630397D01*
X77236276Y-117623236D01*
X77235908Y-117620326D01*
X77235908Y-117379673D01*
X77239335Y-117371400D01*
X77241647Y-117369606D01*
X78703497Y-116505206D01*
X78712361Y-116503946D01*
X78718638Y-116508033D01*
G37*
%TD.AperFunction*%
%TD*%
%TA.AperFunction,Conductor*%
%TO.N,/Control Inputs/INPUT_C*%
G36*
X90242557Y-123242548D02*
G01*
X90992710Y-123991721D01*
X90996142Y-123999992D01*
X90992721Y-124008268D01*
X90992710Y-124008279D01*
X90242557Y-124757451D01*
X90234281Y-124760872D01*
X90226795Y-124758157D01*
X89474206Y-124130507D01*
X89470048Y-124122577D01*
X89470000Y-124121522D01*
X89470000Y-123878477D01*
X89473427Y-123870204D01*
X89474206Y-123869492D01*
X90226796Y-123241841D01*
X90235344Y-123239175D01*
X90242557Y-123242548D01*
G37*
%TD.AperFunction*%
%TD*%
%TA.AperFunction,Conductor*%
%TO.N,/Control Inputs/INPUT_C*%
G36*
X80296502Y-121505206D02*
G01*
X81758348Y-122369603D01*
X81763724Y-122376763D01*
X81764092Y-122379673D01*
X81764092Y-122620326D01*
X81760665Y-122628599D01*
X81758347Y-122630397D01*
X80296503Y-123494792D01*
X80287638Y-123496053D01*
X80281361Y-123491966D01*
X79600426Y-122628599D01*
X79504713Y-122507244D01*
X79502282Y-122498627D01*
X79504714Y-122492755D01*
X80281361Y-121508032D01*
X80289175Y-121503659D01*
X80296502Y-121505206D01*
G37*
%TD.AperFunction*%
%TD*%
%TA.AperFunction,Conductor*%
%TO.N,Net-(CN4-Pad1)*%
G36*
X78232619Y-106505971D02*
G01*
X79489249Y-107490791D01*
X79493647Y-107498592D01*
X79491241Y-107507217D01*
X79489249Y-107509209D01*
X78232619Y-108494028D01*
X78223994Y-108496434D01*
X78217707Y-108493633D01*
X77229005Y-107630496D01*
X77225027Y-107622474D01*
X77225000Y-107621682D01*
X77225000Y-107378317D01*
X77228427Y-107370044D01*
X77228994Y-107369512D01*
X78217708Y-106506365D01*
X78226194Y-106503507D01*
X78232619Y-106505971D01*
G37*
%TD.AperFunction*%
%TD*%
%TA.AperFunction,Conductor*%
%TO.N,Net-(CN4-Pad1)*%
G36*
X77058135Y-106956257D02*
G01*
X77295748Y-107139003D01*
X77595433Y-107369488D01*
X77599902Y-107377247D01*
X77600000Y-107378761D01*
X77600000Y-107621238D01*
X77596573Y-107629511D01*
X77595433Y-107630512D01*
X77058135Y-108043742D01*
X77049488Y-108046070D01*
X77042736Y-108042749D01*
X76507296Y-107508281D01*
X76503862Y-107500011D01*
X76507281Y-107491734D01*
X76507296Y-107491719D01*
X76629750Y-107369487D01*
X77042737Y-106957249D01*
X77051013Y-106953831D01*
X77058135Y-106956257D01*
G37*
%TD.AperFunction*%
%TD*%
%TA.AperFunction,Conductor*%
%TO.N,Net-(CN4-Pad2)*%
G36*
X77058135Y-111956257D02*
G01*
X77295748Y-112139003D01*
X77595433Y-112369488D01*
X77599902Y-112377247D01*
X77600000Y-112378761D01*
X77600000Y-112621238D01*
X77596573Y-112629511D01*
X77595433Y-112630512D01*
X77058135Y-113043742D01*
X77049488Y-113046070D01*
X77042736Y-113042749D01*
X76507296Y-112508281D01*
X76503862Y-112500011D01*
X76507281Y-112491734D01*
X76507296Y-112491719D01*
X76629750Y-112369487D01*
X77042737Y-111957249D01*
X77051013Y-111953831D01*
X77058135Y-111956257D01*
G37*
%TD.AperFunction*%
%TD*%
%TA.AperFunction,Conductor*%
%TO.N,Net-(CN4-Pad2)*%
G36*
X78718638Y-111508033D02*
G01*
X79495285Y-112492755D01*
X79497717Y-112501373D01*
X79495285Y-112507245D01*
X78718638Y-113491966D01*
X78710824Y-113496340D01*
X78703496Y-113494792D01*
X77241653Y-112630397D01*
X77236276Y-112623236D01*
X77235908Y-112620326D01*
X77235908Y-112379673D01*
X77239335Y-112371400D01*
X77241647Y-112369606D01*
X78703497Y-111505206D01*
X78712361Y-111503946D01*
X78718638Y-111508033D01*
G37*
%TD.AperFunction*%
%TD*%
%TA.AperFunction,Conductor*%
%TO.N,VBUS*%
G36*
X181231840Y-117509519D02*
G01*
X181234489Y-117512168D01*
X181420434Y-117770203D01*
X181544788Y-117942768D01*
X181546845Y-117951483D01*
X181544412Y-117956943D01*
X181292012Y-118270635D01*
X181284155Y-118274932D01*
X181282896Y-118275000D01*
X181167104Y-118275000D01*
X181158831Y-118271573D01*
X181157988Y-118270635D01*
X180905587Y-117956943D01*
X180903071Y-117948349D01*
X180905210Y-117942769D01*
X181215509Y-117512170D01*
X181223125Y-117507462D01*
X181231840Y-117509519D01*
G37*
%TD.AperFunction*%
%TD*%
%TA.AperFunction,Conductor*%
%TO.N,VBUS*%
G36*
X181238077Y-116047855D02*
G01*
X181495207Y-116098064D01*
X181502669Y-116103012D01*
X181502705Y-116103065D01*
X181648312Y-116321921D01*
X181650042Y-116330707D01*
X181645052Y-116338143D01*
X181644328Y-116338587D01*
X181291180Y-116538206D01*
X181285423Y-116539721D01*
X181174823Y-116539721D01*
X181166550Y-116536294D01*
X181163123Y-116528021D01*
X181163221Y-116526510D01*
X181218377Y-116103012D01*
X181224261Y-116057831D01*
X181228728Y-116050071D01*
X181237374Y-116047741D01*
X181238077Y-116047855D01*
G37*
%TD.AperFunction*%
%TD*%
%TA.AperFunction,Conductor*%
%TO.N,VBUS*%
G36*
X181864025Y-121349798D02*
G01*
X181866524Y-121353504D01*
X182028627Y-121735829D01*
X182028701Y-121744783D01*
X182024384Y-121750105D01*
X181806529Y-121896609D01*
X181797752Y-121898382D01*
X181793471Y-121896609D01*
X181575615Y-121750105D01*
X181570662Y-121742644D01*
X181571371Y-121735831D01*
X181733476Y-121353504D01*
X181739861Y-121347225D01*
X181744248Y-121346371D01*
X181855752Y-121346371D01*
X181864025Y-121349798D01*
G37*
%TD.AperFunction*%
%TD*%
%TA.AperFunction,Conductor*%
%TO.N,VBUS*%
G36*
X181291169Y-116728427D02*
G01*
X181292012Y-116729365D01*
X181544412Y-117043056D01*
X181546928Y-117051650D01*
X181544788Y-117057231D01*
X181234492Y-117487828D01*
X181226875Y-117492537D01*
X181218160Y-117490480D01*
X181215508Y-117487828D01*
X180905211Y-117057231D01*
X180903154Y-117048516D01*
X180905587Y-117043056D01*
X181157988Y-116729365D01*
X181165845Y-116725068D01*
X181167104Y-116725000D01*
X181282896Y-116725000D01*
X181291169Y-116728427D01*
G37*
%TD.AperFunction*%
%TD*%
%TA.AperFunction,Conductor*%
%TO.N,VBUS*%
G36*
X181558169Y-117181573D02*
G01*
X181870635Y-117432988D01*
X181874932Y-117440844D01*
X181875000Y-117442103D01*
X181875000Y-117557896D01*
X181871573Y-117566169D01*
X181870635Y-117567012D01*
X181558169Y-117818426D01*
X181549575Y-117820942D01*
X181542574Y-117817596D01*
X181291218Y-117567012D01*
X181232310Y-117508285D01*
X181228871Y-117500018D01*
X181232285Y-117491740D01*
X181232311Y-117491714D01*
X181542574Y-117182403D01*
X181550852Y-117178989D01*
X181558169Y-117181573D01*
G37*
%TD.AperFunction*%
%TD*%
%TA.AperFunction,Conductor*%
%TO.N,VBUS*%
G36*
X186757349Y-118207325D02*
G01*
X186930340Y-118379741D01*
X187042685Y-118491713D01*
X187046126Y-118499981D01*
X187042713Y-118508259D01*
X187042685Y-118508287D01*
X186757351Y-118792673D01*
X186749073Y-118796086D01*
X186741849Y-118793574D01*
X186454457Y-118567013D01*
X186450081Y-118559200D01*
X186450000Y-118557825D01*
X186450000Y-118442174D01*
X186453427Y-118433901D01*
X186454453Y-118432989D01*
X186741850Y-118206424D01*
X186750467Y-118203994D01*
X186757349Y-118207325D01*
G37*
%TD.AperFunction*%
%TD*%
%TA.AperFunction,Conductor*%
%TO.N,/USB UART/USB_D_N*%
G36*
X184786072Y-119105817D02*
G01*
X184786858Y-119107197D01*
X185007207Y-119563686D01*
X185007717Y-119572626D01*
X185004943Y-119577045D01*
X184875274Y-119706714D01*
X184867001Y-119710141D01*
X184861915Y-119708978D01*
X184405426Y-119488629D01*
X184399465Y-119481946D01*
X184399975Y-119473006D01*
X184400752Y-119471640D01*
X184546618Y-119251671D01*
X184549900Y-119248389D01*
X184769857Y-119102531D01*
X184778644Y-119100816D01*
X184786072Y-119105817D01*
G37*
%TD.AperFunction*%
%TD*%
%TA.AperFunction,Conductor*%
%TO.N,/USB UART/USB_D_N*%
G36*
X177255518Y-126207807D02*
G01*
X177259236Y-126210311D01*
X177391163Y-126342238D01*
X177394590Y-126350511D01*
X177394510Y-126351878D01*
X177191047Y-128081358D01*
X177186677Y-128089174D01*
X177178527Y-128091656D01*
X176006900Y-128001293D01*
X175998915Y-127997240D01*
X175996762Y-127993509D01*
X175607049Y-126885105D01*
X175607538Y-126876163D01*
X175613686Y-126870383D01*
X177246566Y-126207743D01*
X177255518Y-126207807D01*
G37*
%TD.AperFunction*%
%TD*%
%TA.AperFunction,Conductor*%
%TO.N,/USB UART/USB_D_N*%
G36*
X184477398Y-120551341D02*
G01*
X184478770Y-120552122D01*
X184628636Y-120651501D01*
X184698731Y-120697983D01*
X184702016Y-120701268D01*
X184847872Y-120921221D01*
X184849588Y-120930010D01*
X184844587Y-120937438D01*
X184843207Y-120938224D01*
X184386718Y-121158573D01*
X184377778Y-121159083D01*
X184373359Y-121156309D01*
X184243690Y-121026640D01*
X184240263Y-121018367D01*
X184241426Y-121013281D01*
X184461776Y-120556790D01*
X184468458Y-120550831D01*
X184477398Y-120551341D01*
G37*
%TD.AperFunction*%
%TD*%
%TA.AperFunction,Conductor*%
%TO.N,/USB UART/USB_D_N*%
G36*
X185093141Y-120274061D02*
G01*
X185096568Y-120282334D01*
X185096191Y-120285279D01*
X184976898Y-120743881D01*
X184971499Y-120751025D01*
X184963333Y-120752419D01*
X184704793Y-120701936D01*
X184697330Y-120696987D01*
X184551744Y-120478165D01*
X184550015Y-120469380D01*
X184555005Y-120461944D01*
X184555796Y-120461461D01*
X184897354Y-120272101D01*
X184903027Y-120270634D01*
X185084868Y-120270634D01*
X185093141Y-120274061D01*
G37*
%TD.AperFunction*%
%TD*%
%TA.AperFunction,Conductor*%
%TO.N,/USB UART/USB_D_N*%
G36*
X180158398Y-123289960D02*
G01*
X180441171Y-123492464D01*
X180445902Y-123500067D01*
X180443871Y-123508788D01*
X180443854Y-123508812D01*
X180158383Y-123905353D01*
X180150769Y-123910065D01*
X180142052Y-123908012D01*
X180140281Y-123906442D01*
X179993933Y-123747486D01*
X179860463Y-123614016D01*
X179857036Y-123605743D01*
X179860140Y-123597807D01*
X180142993Y-123291532D01*
X180151121Y-123287781D01*
X180158398Y-123289960D01*
G37*
%TD.AperFunction*%
%TD*%
%TA.AperFunction,Conductor*%
%TO.N,/USB UART/USB_D_N*%
G36*
X180757966Y-123205310D02*
G01*
X181044790Y-123396527D01*
X181049773Y-123403966D01*
X181050000Y-123406261D01*
X181050000Y-123593738D01*
X181046573Y-123602011D01*
X181044790Y-123603473D01*
X180757967Y-123794688D01*
X180749182Y-123796426D01*
X180743218Y-123793240D01*
X180543050Y-123593738D01*
X180457313Y-123508285D01*
X180453873Y-123500019D01*
X180457285Y-123491741D01*
X180743218Y-123206758D01*
X180751496Y-123203346D01*
X180757966Y-123205310D01*
G37*
%TD.AperFunction*%
%TD*%
%TA.AperFunction,Conductor*%
%TO.N,/USB UART/USB_D_P*%
G36*
X172480040Y-126383832D02*
G01*
X172482414Y-126385663D01*
X172614336Y-126517585D01*
X172617763Y-126525858D01*
X172617379Y-126528831D01*
X172192352Y-128146664D01*
X172186935Y-128153795D01*
X172179517Y-128155292D01*
X171008207Y-128001874D01*
X171000448Y-127997402D01*
X170998125Y-127991792D01*
X170844707Y-126820482D01*
X170847030Y-126811834D01*
X170853333Y-126807648D01*
X172471170Y-126382620D01*
X172480040Y-126383832D01*
G37*
%TD.AperFunction*%
%TD*%
%TA.AperFunction,Conductor*%
%TO.N,/USB UART/USB_D_P*%
G36*
X178256905Y-123223706D02*
G01*
X178506678Y-123457994D01*
X178542153Y-123491269D01*
X178545843Y-123499428D01*
X178542682Y-123507806D01*
X178542664Y-123507826D01*
X178258221Y-123809640D01*
X178250053Y-123813311D01*
X178241682Y-123810131D01*
X178241478Y-123809935D01*
X178035355Y-123606066D01*
X178035373Y-123606046D01*
X178035309Y-123606020D01*
X177903829Y-123474540D01*
X177900402Y-123466267D01*
X177903829Y-123457994D01*
X177905421Y-123456662D01*
X178242226Y-123222630D01*
X178250974Y-123220724D01*
X178256905Y-123223706D01*
G37*
%TD.AperFunction*%
%TD*%
%TA.AperFunction,Conductor*%
%TO.N,/USB UART/USB_D_P*%
G36*
X178652011Y-122578427D02*
G01*
X178653473Y-122580210D01*
X178846306Y-122869459D01*
X178848044Y-122878244D01*
X178847122Y-122881005D01*
X178560551Y-123478983D01*
X178553885Y-123484963D01*
X178544944Y-123484478D01*
X178539449Y-123478983D01*
X178465247Y-123324149D01*
X178252876Y-122881003D01*
X178252392Y-122872064D01*
X178253690Y-122869464D01*
X178446527Y-122580210D01*
X178453967Y-122575227D01*
X178456262Y-122575000D01*
X178643738Y-122575000D01*
X178652011Y-122578427D01*
G37*
%TD.AperFunction*%
%TD*%
%TA.AperFunction,Conductor*%
%TO.N,/USB UART/USB_D_P*%
G36*
X179377398Y-120751341D02*
G01*
X179378770Y-120752122D01*
X179528636Y-120851501D01*
X179598731Y-120897983D01*
X179602016Y-120901268D01*
X179747872Y-121121221D01*
X179749588Y-121130010D01*
X179744587Y-121137438D01*
X179743207Y-121138224D01*
X179286718Y-121358573D01*
X179277778Y-121359083D01*
X179273359Y-121356309D01*
X179143690Y-121226640D01*
X179140263Y-121218367D01*
X179141426Y-121213281D01*
X179361776Y-120756790D01*
X179368458Y-120750831D01*
X179377398Y-120751341D01*
G37*
%TD.AperFunction*%
%TD*%
%TA.AperFunction,Conductor*%
%TO.N,ESP_RX*%
G36*
X159650105Y-124475615D02*
G01*
X159796609Y-124693471D01*
X159798382Y-124702248D01*
X159796609Y-124706529D01*
X159650105Y-124924384D01*
X159642644Y-124929337D01*
X159635829Y-124928627D01*
X159253504Y-124766524D01*
X159247225Y-124760139D01*
X159246371Y-124755752D01*
X159246371Y-124644247D01*
X159249798Y-124635974D01*
X159253501Y-124633476D01*
X159635831Y-124471371D01*
X159644783Y-124471298D01*
X159650105Y-124475615D01*
G37*
%TD.AperFunction*%
%TD*%
%TA.AperFunction,Conductor*%
%TO.N,ESP_RX*%
G36*
X153673432Y-123349100D02*
G01*
X153677749Y-123354422D01*
X153833470Y-123739392D01*
X153833396Y-123748346D01*
X153830897Y-123752052D01*
X153752052Y-123830897D01*
X153743779Y-123834324D01*
X153739392Y-123833470D01*
X153354422Y-123677749D01*
X153348037Y-123671470D01*
X153347327Y-123664655D01*
X153397781Y-123407011D01*
X153402733Y-123399553D01*
X153407009Y-123397781D01*
X153664655Y-123347327D01*
X153673432Y-123349100D01*
G37*
%TD.AperFunction*%
%TD*%
%TA.AperFunction,Conductor*%
%TO.N,STP_MS1*%
G36*
X135206526Y-89803388D02*
G01*
X135424384Y-89949894D01*
X135429337Y-89957355D01*
X135428627Y-89964170D01*
X135266524Y-90346496D01*
X135260139Y-90352775D01*
X135255752Y-90353629D01*
X135144248Y-90353629D01*
X135135975Y-90350202D01*
X135133476Y-90346496D01*
X134971372Y-89964170D01*
X134971298Y-89955216D01*
X134975613Y-89949895D01*
X135193472Y-89803389D01*
X135202248Y-89801617D01*
X135206526Y-89803388D01*
G37*
%TD.AperFunction*%
%TD*%
%TA.AperFunction,Conductor*%
%TO.N,LIMIT_2*%
G36*
X103739480Y-97553436D02*
G01*
X105184119Y-98433081D01*
X105189403Y-98440310D01*
X105189734Y-98443074D01*
X105189734Y-98556925D01*
X105186307Y-98565198D01*
X105184119Y-98566918D01*
X103739480Y-99446563D01*
X103730631Y-99447939D01*
X103724117Y-99443699D01*
X103050418Y-98566918D01*
X103004476Y-98507127D01*
X103002154Y-98498481D01*
X103004476Y-98492873D01*
X103724118Y-97556298D01*
X103731876Y-97551828D01*
X103739480Y-97553436D01*
G37*
%TD.AperFunction*%
%TD*%
%TA.AperFunction,Conductor*%
%TO.N,LIMIT_2*%
G36*
X94850105Y-94175615D02*
G01*
X94996609Y-94393471D01*
X94998382Y-94402248D01*
X94996609Y-94406529D01*
X94850105Y-94624384D01*
X94842644Y-94629337D01*
X94835829Y-94628627D01*
X94453504Y-94466524D01*
X94447225Y-94460139D01*
X94446371Y-94455752D01*
X94446371Y-94344247D01*
X94449798Y-94335974D01*
X94453501Y-94333476D01*
X94835831Y-94171371D01*
X94844783Y-94171298D01*
X94850105Y-94175615D01*
G37*
%TD.AperFunction*%
%TD*%
%TA.AperFunction,Conductor*%
%TO.N,LIMIT_2*%
G36*
X143864025Y-107849798D02*
G01*
X143866524Y-107853504D01*
X144028627Y-108235829D01*
X144028701Y-108244783D01*
X144024384Y-108250105D01*
X143806529Y-108396609D01*
X143797752Y-108398382D01*
X143793471Y-108396609D01*
X143575615Y-108250105D01*
X143570662Y-108242644D01*
X143571371Y-108235831D01*
X143733476Y-107853504D01*
X143739861Y-107847225D01*
X143744248Y-107846371D01*
X143855752Y-107846371D01*
X143864025Y-107849798D01*
G37*
%TD.AperFunction*%
%TD*%
%TA.AperFunction,Conductor*%
%TO.N,STP_MS0*%
G36*
X129273432Y-92849100D02*
G01*
X129277749Y-92854422D01*
X129433470Y-93239392D01*
X129433396Y-93248346D01*
X129430897Y-93252052D01*
X129352052Y-93330897D01*
X129343779Y-93334324D01*
X129339392Y-93333470D01*
X128954422Y-93177749D01*
X128948037Y-93171470D01*
X128947327Y-93164655D01*
X128997781Y-92907011D01*
X129002733Y-92899553D01*
X129007009Y-92897781D01*
X129264655Y-92847327D01*
X129273432Y-92849100D01*
G37*
%TD.AperFunction*%
%TD*%
%TA.AperFunction,Conductor*%
%TO.N,STP_STEP*%
G36*
X133948346Y-87166603D02*
G01*
X133952052Y-87169102D01*
X134030897Y-87247947D01*
X134034324Y-87256220D01*
X134033470Y-87260607D01*
X133877749Y-87645577D01*
X133871470Y-87651962D01*
X133864655Y-87652672D01*
X133607014Y-87602219D01*
X133599553Y-87597266D01*
X133597781Y-87592988D01*
X133547327Y-87335343D01*
X133549100Y-87326567D01*
X133554420Y-87322251D01*
X133939392Y-87166529D01*
X133948346Y-87166603D01*
G37*
%TD.AperFunction*%
%TD*%
%TA.AperFunction,Conductor*%
%TO.N,485_RX*%
G36*
X159007126Y-96504476D02*
G01*
X159943699Y-97224117D01*
X159948171Y-97231876D01*
X159946563Y-97239480D01*
X159066919Y-98684119D01*
X159059690Y-98689403D01*
X159056926Y-98689734D01*
X158943074Y-98689734D01*
X158934801Y-98686307D01*
X158933081Y-98684119D01*
X158053436Y-97239480D01*
X158052060Y-97230631D01*
X158056298Y-97224119D01*
X158992872Y-96504476D01*
X159001519Y-96502154D01*
X159007126Y-96504476D01*
G37*
%TD.AperFunction*%
%TD*%
%TA.AperFunction,Conductor*%
%TO.N,485_RX*%
G36*
X136206526Y-108203388D02*
G01*
X136424384Y-108349894D01*
X136429337Y-108357355D01*
X136428627Y-108364170D01*
X136266524Y-108746496D01*
X136260139Y-108752775D01*
X136255752Y-108753629D01*
X136144248Y-108753629D01*
X136135975Y-108750202D01*
X136133476Y-108746496D01*
X135971372Y-108364170D01*
X135971298Y-108355216D01*
X135975613Y-108349895D01*
X136193472Y-108203389D01*
X136202248Y-108201617D01*
X136206526Y-108203388D01*
G37*
%TD.AperFunction*%
%TD*%
%TA.AperFunction,Conductor*%
%TO.N,485_RX*%
G36*
X165556478Y-107082803D02*
G01*
X165834161Y-107202972D01*
X166276186Y-107394262D01*
X166282417Y-107400693D01*
X166282277Y-107409647D01*
X166276186Y-107415738D01*
X165556480Y-107727195D01*
X165547526Y-107727335D01*
X165544498Y-107725573D01*
X165229365Y-107472012D01*
X165225068Y-107464155D01*
X165225000Y-107462896D01*
X165225000Y-107347103D01*
X165228427Y-107338830D01*
X165229355Y-107337995D01*
X165544499Y-107084425D01*
X165553092Y-107081910D01*
X165556478Y-107082803D01*
G37*
%TD.AperFunction*%
%TD*%
%TA.AperFunction,Conductor*%
%TO.N,STP_FLT*%
G36*
X138864168Y-81171371D02*
G01*
X139246497Y-81333476D01*
X139252775Y-81339860D01*
X139253629Y-81344247D01*
X139253629Y-81455752D01*
X139250202Y-81464025D01*
X139246496Y-81466524D01*
X138864170Y-81628627D01*
X138855216Y-81628701D01*
X138849894Y-81624384D01*
X138743736Y-81466524D01*
X138703389Y-81406527D01*
X138701617Y-81397752D01*
X138703388Y-81393473D01*
X138849895Y-81175614D01*
X138857355Y-81170662D01*
X138864168Y-81171371D01*
G37*
%TD.AperFunction*%
%TD*%
%TA.AperFunction,Conductor*%
%TO.N,STP_FLT*%
G36*
X137508260Y-122232285D02*
G01*
X137508286Y-122232311D01*
X137817596Y-122542574D01*
X137821010Y-122550852D01*
X137818426Y-122558169D01*
X137567012Y-122870635D01*
X137559155Y-122874932D01*
X137557896Y-122875000D01*
X137442104Y-122875000D01*
X137433831Y-122871573D01*
X137432988Y-122870635D01*
X137181573Y-122558169D01*
X137179057Y-122549575D01*
X137182403Y-122542574D01*
X137491714Y-122232311D01*
X137499982Y-122228871D01*
X137508260Y-122232285D01*
G37*
%TD.AperFunction*%
%TD*%
%TA.AperFunction,Conductor*%
%TO.N,STP_FLT*%
G36*
X137564025Y-125149798D02*
G01*
X137566524Y-125153504D01*
X137728627Y-125535829D01*
X137728701Y-125544783D01*
X137724384Y-125550105D01*
X137506529Y-125696609D01*
X137497752Y-125698382D01*
X137493471Y-125696609D01*
X137275615Y-125550105D01*
X137270662Y-125542644D01*
X137271371Y-125535831D01*
X137433476Y-125153504D01*
X137439861Y-125147225D01*
X137444248Y-125146371D01*
X137555752Y-125146371D01*
X137564025Y-125149798D01*
G37*
%TD.AperFunction*%
%TD*%
%TA.AperFunction,Conductor*%
%TO.N,STP_ENABLE*%
G36*
X132508260Y-104232285D02*
G01*
X132508286Y-104232311D01*
X132817596Y-104542574D01*
X132821010Y-104550852D01*
X132818426Y-104558169D01*
X132567012Y-104870635D01*
X132559155Y-104874932D01*
X132557896Y-104875000D01*
X132442104Y-104875000D01*
X132433831Y-104871573D01*
X132432988Y-104870635D01*
X132181573Y-104558169D01*
X132179057Y-104549575D01*
X132182403Y-104542574D01*
X132491714Y-104232311D01*
X132499982Y-104228871D01*
X132508260Y-104232285D01*
G37*
%TD.AperFunction*%
%TD*%
%TA.AperFunction,Conductor*%
%TO.N,STP_ENABLE*%
G36*
X132564025Y-104749798D02*
G01*
X132566524Y-104753504D01*
X132728627Y-105135829D01*
X132728701Y-105144783D01*
X132724384Y-105150105D01*
X132506529Y-105296609D01*
X132497752Y-105298382D01*
X132493471Y-105296609D01*
X132275615Y-105150105D01*
X132270662Y-105142644D01*
X132271371Y-105135831D01*
X132433476Y-104753504D01*
X132439861Y-104747225D01*
X132444248Y-104746371D01*
X132555752Y-104746371D01*
X132564025Y-104749798D01*
G37*
%TD.AperFunction*%
%TD*%
%TA.AperFunction,Conductor*%
%TO.N,STP_MS2*%
G36*
X136464168Y-90471371D02*
G01*
X136846497Y-90633476D01*
X136852775Y-90639860D01*
X136853629Y-90644247D01*
X136853629Y-90755752D01*
X136850202Y-90764025D01*
X136846496Y-90766524D01*
X136464170Y-90928627D01*
X136455216Y-90928701D01*
X136449894Y-90924384D01*
X136343736Y-90766524D01*
X136303389Y-90706527D01*
X136301617Y-90697752D01*
X136303388Y-90693473D01*
X136449895Y-90475614D01*
X136457355Y-90470662D01*
X136464168Y-90471371D01*
G37*
%TD.AperFunction*%
%TD*%
%TA.AperFunction,Conductor*%
%TO.N,LIMIT_1*%
G36*
X94550105Y-89175615D02*
G01*
X94696609Y-89393471D01*
X94698382Y-89402248D01*
X94696609Y-89406529D01*
X94550105Y-89624384D01*
X94542644Y-89629337D01*
X94535829Y-89628627D01*
X94153504Y-89466524D01*
X94147225Y-89460139D01*
X94146371Y-89455752D01*
X94146371Y-89344247D01*
X94149798Y-89335974D01*
X94153501Y-89333476D01*
X94535831Y-89171371D01*
X94544783Y-89171298D01*
X94550105Y-89175615D01*
G37*
%TD.AperFunction*%
%TD*%
%TA.AperFunction,Conductor*%
%TO.N,BOOT_MODE*%
G36*
X130648346Y-128966603D02*
G01*
X130652052Y-128969102D01*
X130730897Y-129047947D01*
X130734324Y-129056220D01*
X130733470Y-129060607D01*
X130577749Y-129445577D01*
X130571470Y-129451962D01*
X130564655Y-129452672D01*
X130307014Y-129402219D01*
X130299553Y-129397266D01*
X130297781Y-129392988D01*
X130247327Y-129135343D01*
X130249100Y-129126567D01*
X130254420Y-129122251D01*
X130639392Y-128966529D01*
X130648346Y-128966603D01*
G37*
%TD.AperFunction*%
%TD*%
%TA.AperFunction,Conductor*%
%TO.N,BOOT_MODE*%
G36*
X130950105Y-122475615D02*
G01*
X131096609Y-122693471D01*
X131098382Y-122702248D01*
X131096609Y-122706529D01*
X130950105Y-122924384D01*
X130942644Y-122929337D01*
X130935829Y-122928627D01*
X130553504Y-122766524D01*
X130547225Y-122760139D01*
X130546371Y-122755752D01*
X130546371Y-122644247D01*
X130549798Y-122635974D01*
X130553501Y-122633476D01*
X130935831Y-122471371D01*
X130944783Y-122471298D01*
X130950105Y-122475615D01*
G37*
%TD.AperFunction*%
%TD*%
%TA.AperFunction,Conductor*%
%TO.N,BOOT_MODE*%
G36*
X131164025Y-122149798D02*
G01*
X131166524Y-122153504D01*
X131328627Y-122535829D01*
X131328701Y-122544783D01*
X131324384Y-122550105D01*
X131106529Y-122696609D01*
X131097752Y-122698382D01*
X131093471Y-122696609D01*
X130875615Y-122550105D01*
X130870662Y-122542644D01*
X130871371Y-122535831D01*
X131033476Y-122153504D01*
X131039861Y-122147225D01*
X131044248Y-122146371D01*
X131155752Y-122146371D01*
X131164025Y-122149798D01*
G37*
%TD.AperFunction*%
%TD*%
%TA.AperFunction,Conductor*%
%TO.N,BOOT_MODE*%
G36*
X155502907Y-118908274D02*
G01*
X157146430Y-119307786D01*
X157153659Y-119313070D01*
X157155267Y-119320674D01*
X157001874Y-120491792D01*
X156997402Y-120499551D01*
X156991792Y-120501874D01*
X155820674Y-120655267D01*
X155812026Y-120652944D01*
X155807786Y-120646430D01*
X155772647Y-120501874D01*
X155408275Y-119002911D01*
X155409651Y-118994065D01*
X155411367Y-118991881D01*
X155491878Y-118911370D01*
X155500150Y-118907944D01*
X155502907Y-118908274D01*
G37*
%TD.AperFunction*%
%TD*%
%TA.AperFunction,Conductor*%
%TO.N,BOOT_MODE*%
G36*
X131106526Y-122703388D02*
G01*
X131324384Y-122849894D01*
X131329337Y-122857355D01*
X131328627Y-122864170D01*
X131166524Y-123246496D01*
X131160139Y-123252775D01*
X131155752Y-123253629D01*
X131044248Y-123253629D01*
X131035975Y-123250202D01*
X131033476Y-123246496D01*
X130871372Y-122864170D01*
X130871298Y-122855216D01*
X130875613Y-122849895D01*
X131093472Y-122703389D01*
X131102248Y-122701617D01*
X131106526Y-122703388D01*
G37*
%TD.AperFunction*%
%TD*%
%TA.AperFunction,Conductor*%
%TO.N,BOOT_MODE*%
G36*
X147860987Y-115478363D02*
G01*
X147861333Y-115479227D01*
X148035346Y-115969440D01*
X148034884Y-115978383D01*
X148034023Y-115979892D01*
X147885158Y-116200802D01*
X147877692Y-116205748D01*
X147868917Y-116203967D01*
X147867182Y-116202537D01*
X147787584Y-116122939D01*
X147787289Y-116122634D01*
X147654960Y-115980334D01*
X147651836Y-115971941D01*
X147652597Y-115968197D01*
X147839377Y-115478967D01*
X147845529Y-115472461D01*
X147854480Y-115472211D01*
X147860987Y-115478363D01*
G37*
%TD.AperFunction*%
%TD*%
%TA.AperFunction,Conductor*%
%TO.N,BOOT_MODE*%
G36*
X128791169Y-123728427D02*
G01*
X128792012Y-123729365D01*
X129044412Y-124043056D01*
X129046928Y-124051650D01*
X129044788Y-124057231D01*
X128734492Y-124487828D01*
X128726875Y-124492537D01*
X128718160Y-124490480D01*
X128715508Y-124487828D01*
X128405211Y-124057231D01*
X128403154Y-124048516D01*
X128405587Y-124043056D01*
X128657988Y-123729365D01*
X128665845Y-123725068D01*
X128667104Y-123725000D01*
X128782896Y-123725000D01*
X128791169Y-123728427D01*
G37*
%TD.AperFunction*%
%TD*%
%TA.AperFunction,Conductor*%
%TO.N,ESP_TX*%
G36*
X159050105Y-123775615D02*
G01*
X159196609Y-123993471D01*
X159198382Y-124002248D01*
X159196609Y-124006529D01*
X159050105Y-124224384D01*
X159042644Y-124229337D01*
X159035829Y-124228627D01*
X158653504Y-124066524D01*
X158647225Y-124060139D01*
X158646371Y-124055752D01*
X158646371Y-123944247D01*
X158649798Y-123935974D01*
X158653501Y-123933476D01*
X159035831Y-123771371D01*
X159044783Y-123771298D01*
X159050105Y-123775615D01*
G37*
%TD.AperFunction*%
%TD*%
%TA.AperFunction,Conductor*%
%TO.N,ESP_TX*%
G36*
X145664168Y-119671371D02*
G01*
X146046497Y-119833476D01*
X146052775Y-119839860D01*
X146053629Y-119844247D01*
X146053629Y-119955752D01*
X146050202Y-119964025D01*
X146046496Y-119966524D01*
X145664170Y-120128627D01*
X145655216Y-120128701D01*
X145649894Y-120124384D01*
X145543736Y-119966524D01*
X145503389Y-119906527D01*
X145501617Y-119897752D01*
X145503388Y-119893473D01*
X145649895Y-119675614D01*
X145657355Y-119670662D01*
X145664168Y-119671371D01*
G37*
%TD.AperFunction*%
%TD*%
%TA.AperFunction,Conductor*%
%TO.N,LIMIT_3*%
G36*
X142664025Y-107649798D02*
G01*
X142666524Y-107653504D01*
X142828627Y-108035829D01*
X142828701Y-108044783D01*
X142824384Y-108050105D01*
X142606529Y-108196609D01*
X142597752Y-108198382D01*
X142593471Y-108196609D01*
X142375615Y-108050105D01*
X142370662Y-108042644D01*
X142371371Y-108035831D01*
X142533476Y-107653504D01*
X142539861Y-107647225D01*
X142544248Y-107646371D01*
X142655752Y-107646371D01*
X142664025Y-107649798D01*
G37*
%TD.AperFunction*%
%TD*%
%TA.AperFunction,Conductor*%
%TO.N,LIMIT_3*%
G36*
X94450105Y-99375615D02*
G01*
X94596609Y-99593471D01*
X94598382Y-99602248D01*
X94596609Y-99606529D01*
X94450105Y-99824384D01*
X94442644Y-99829337D01*
X94435829Y-99828627D01*
X94053504Y-99666524D01*
X94047225Y-99660139D01*
X94046371Y-99655752D01*
X94046371Y-99544247D01*
X94049798Y-99535974D01*
X94053501Y-99533476D01*
X94435831Y-99371371D01*
X94444783Y-99371298D01*
X94450105Y-99375615D01*
G37*
%TD.AperFunction*%
%TD*%
%TA.AperFunction,Conductor*%
%TO.N,LIMIT_3*%
G36*
X103739480Y-102553436D02*
G01*
X105184119Y-103433081D01*
X105189403Y-103440310D01*
X105189734Y-103443074D01*
X105189734Y-103556925D01*
X105186307Y-103565198D01*
X105184119Y-103566918D01*
X103739480Y-104446563D01*
X103730631Y-104447939D01*
X103724117Y-104443699D01*
X103050418Y-103566918D01*
X103004476Y-103507127D01*
X103002154Y-103498481D01*
X103004476Y-103492873D01*
X103724118Y-102556298D01*
X103731876Y-102551828D01*
X103739480Y-102553436D01*
G37*
%TD.AperFunction*%
%TD*%
%TA.AperFunction,Conductor*%
%TO.N,/ESP32/UART_TX*%
G36*
X117630332Y-115153075D02*
G01*
X117919147Y-115319624D01*
X117924600Y-115326724D01*
X117925000Y-115329758D01*
X117925000Y-115570241D01*
X117921573Y-115578514D01*
X117919148Y-115580374D01*
X117640870Y-115740848D01*
X117630341Y-115746920D01*
X117621462Y-115748084D01*
X117619440Y-115747335D01*
X117021016Y-115460551D01*
X117015036Y-115453885D01*
X117015521Y-115444944D01*
X117021016Y-115439449D01*
X117619441Y-115152663D01*
X117628381Y-115152179D01*
X117630332Y-115153075D01*
G37*
%TD.AperFunction*%
%TD*%
%TA.AperFunction,Conductor*%
%TO.N,/ESP32/UART_TX*%
G36*
X122828088Y-114818904D02*
G01*
X122833961Y-114825665D01*
X122834337Y-114827077D01*
X123000046Y-115655233D01*
X122998309Y-115664018D01*
X122998295Y-115664039D01*
X122527288Y-116367484D01*
X122519838Y-116372451D01*
X122511120Y-116370738D01*
X121314114Y-115580468D01*
X121309098Y-115573050D01*
X121308860Y-115570704D01*
X121308860Y-115331426D01*
X121312287Y-115323153D01*
X121316851Y-115320329D01*
X122819157Y-114818276D01*
X122828088Y-114818904D01*
G37*
%TD.AperFunction*%
%TD*%
%TA.AperFunction,Conductor*%
%TO.N,485_DIR*%
G36*
X165556478Y-104542803D02*
G01*
X165834161Y-104662972D01*
X166276186Y-104854262D01*
X166282417Y-104860693D01*
X166282277Y-104869647D01*
X166276186Y-104875738D01*
X165556480Y-105187195D01*
X165547526Y-105187335D01*
X165544498Y-105185573D01*
X165229365Y-104932012D01*
X165225068Y-104924155D01*
X165225000Y-104922896D01*
X165225000Y-104807103D01*
X165228427Y-104798830D01*
X165229355Y-104797995D01*
X165544499Y-104544425D01*
X165553092Y-104541910D01*
X165556478Y-104542803D01*
G37*
%TD.AperFunction*%
%TD*%
%TA.AperFunction,Conductor*%
%TO.N,485_DIR*%
G36*
X163064168Y-103471371D02*
G01*
X163446497Y-103633476D01*
X163452775Y-103639860D01*
X163453629Y-103644247D01*
X163453629Y-103755752D01*
X163450202Y-103764025D01*
X163446496Y-103766524D01*
X163064170Y-103928627D01*
X163055216Y-103928701D01*
X163049894Y-103924384D01*
X162943736Y-103766524D01*
X162903389Y-103706527D01*
X162901617Y-103697752D01*
X162903388Y-103693473D01*
X163049895Y-103475614D01*
X163057355Y-103470662D01*
X163064168Y-103471371D01*
G37*
%TD.AperFunction*%
%TD*%
%TA.AperFunction,Conductor*%
%TO.N,485_DIR*%
G36*
X165556478Y-105812803D02*
G01*
X165834161Y-105932972D01*
X166276186Y-106124262D01*
X166282417Y-106130693D01*
X166282277Y-106139647D01*
X166276186Y-106145738D01*
X165556480Y-106457195D01*
X165547526Y-106457335D01*
X165544498Y-106455573D01*
X165229365Y-106202012D01*
X165225068Y-106194155D01*
X165225000Y-106192896D01*
X165225000Y-106077103D01*
X165228427Y-106068830D01*
X165229355Y-106067995D01*
X165544499Y-105814425D01*
X165553092Y-105811910D01*
X165556478Y-105812803D01*
G37*
%TD.AperFunction*%
%TD*%
%TA.AperFunction,Conductor*%
%TO.N,485_DIR*%
G36*
X164007126Y-96504476D02*
G01*
X164943699Y-97224117D01*
X164948171Y-97231876D01*
X164946563Y-97239480D01*
X164066919Y-98684119D01*
X164059690Y-98689403D01*
X164056926Y-98689734D01*
X163943074Y-98689734D01*
X163934801Y-98686307D01*
X163933081Y-98684119D01*
X163053436Y-97239480D01*
X163052060Y-97230631D01*
X163056298Y-97224119D01*
X163992872Y-96504476D01*
X164001519Y-96502154D01*
X164007126Y-96504476D01*
G37*
%TD.AperFunction*%
%TD*%
%TA.AperFunction,Conductor*%
%TO.N,INPUT_1*%
G36*
X94550105Y-109775615D02*
G01*
X94696609Y-109993471D01*
X94698382Y-110002248D01*
X94696609Y-110006529D01*
X94550105Y-110224384D01*
X94542644Y-110229337D01*
X94535829Y-110228627D01*
X94153504Y-110066524D01*
X94147225Y-110060139D01*
X94146371Y-110055752D01*
X94146371Y-109944247D01*
X94149798Y-109935974D01*
X94153501Y-109933476D01*
X94535831Y-109771371D01*
X94544783Y-109771298D01*
X94550105Y-109775615D01*
G37*
%TD.AperFunction*%
%TD*%
%TA.AperFunction,Conductor*%
%TO.N,INPUT_2*%
G36*
X104505934Y-113909651D02*
G01*
X104508122Y-113911371D01*
X104588628Y-113991877D01*
X104592055Y-114000150D01*
X104591724Y-114002914D01*
X104192213Y-115646430D01*
X104186929Y-115653659D01*
X104179325Y-115655267D01*
X103008207Y-115501874D01*
X103000448Y-115497402D01*
X102998125Y-115491792D01*
X102844732Y-114320674D01*
X102847055Y-114312026D01*
X102853567Y-114307786D01*
X104497087Y-113908275D01*
X104505934Y-113909651D01*
G37*
%TD.AperFunction*%
%TD*%
%TA.AperFunction,Conductor*%
%TO.N,INPUT_2*%
G36*
X94750105Y-115275615D02*
G01*
X94896609Y-115493471D01*
X94898382Y-115502248D01*
X94896609Y-115506529D01*
X94750105Y-115724384D01*
X94742644Y-115729337D01*
X94735829Y-115728627D01*
X94353504Y-115566524D01*
X94347225Y-115560139D01*
X94346371Y-115555752D01*
X94346371Y-115444247D01*
X94349798Y-115435974D01*
X94353501Y-115433476D01*
X94735831Y-115271371D01*
X94744783Y-115271298D01*
X94750105Y-115275615D01*
G37*
%TD.AperFunction*%
%TD*%
%TA.AperFunction,Conductor*%
%TO.N,INPUT_2*%
G36*
X137565723Y-107868633D02*
G01*
X137566997Y-107870142D01*
X137825464Y-108234935D01*
X137827450Y-108243667D01*
X137822681Y-108251246D01*
X137822446Y-108251408D01*
X137604058Y-108398270D01*
X137595281Y-108400043D01*
X137595206Y-108400028D01*
X137337645Y-108347857D01*
X137330217Y-108342856D01*
X137328501Y-108334067D01*
X137328550Y-108333838D01*
X137434410Y-107874280D01*
X137439606Y-107866987D01*
X137445811Y-107865206D01*
X137557450Y-107865206D01*
X137565723Y-107868633D01*
G37*
%TD.AperFunction*%
%TD*%
%TA.AperFunction,Conductor*%
%TO.N,STP_RESET*%
G36*
X128348346Y-111166603D02*
G01*
X128352052Y-111169102D01*
X128430897Y-111247947D01*
X128434324Y-111256220D01*
X128433470Y-111260607D01*
X128277749Y-111645577D01*
X128271470Y-111651962D01*
X128264655Y-111652672D01*
X128007014Y-111602219D01*
X127999553Y-111597266D01*
X127997781Y-111592988D01*
X127947327Y-111335343D01*
X127949100Y-111326567D01*
X127954420Y-111322251D01*
X128339392Y-111166529D01*
X128348346Y-111166603D01*
G37*
%TD.AperFunction*%
%TD*%
%TA.AperFunction,Conductor*%
%TO.N,STP_RESET*%
G36*
X131957425Y-110682403D02*
G01*
X132267688Y-110991714D01*
X132271128Y-110999982D01*
X132267714Y-111008260D01*
X132267688Y-111008286D01*
X131957425Y-111317596D01*
X131949147Y-111321010D01*
X131941830Y-111318426D01*
X131629365Y-111067012D01*
X131625068Y-111059155D01*
X131625000Y-111057896D01*
X131625000Y-110942103D01*
X131628427Y-110933830D01*
X131629355Y-110932995D01*
X131941831Y-110681572D01*
X131950424Y-110679057D01*
X131957425Y-110682403D01*
G37*
%TD.AperFunction*%
%TD*%
%TA.AperFunction,Conductor*%
%TO.N,STP_RESET*%
G36*
X127564025Y-95849798D02*
G01*
X127566524Y-95853504D01*
X127728627Y-96235829D01*
X127728701Y-96244783D01*
X127724384Y-96250105D01*
X127506529Y-96396609D01*
X127497752Y-96398382D01*
X127493471Y-96396609D01*
X127275615Y-96250105D01*
X127270662Y-96242644D01*
X127271371Y-96235831D01*
X127433476Y-95853504D01*
X127439861Y-95847225D01*
X127444248Y-95846371D01*
X127555752Y-95846371D01*
X127564025Y-95849798D01*
G37*
%TD.AperFunction*%
%TD*%
%TA.AperFunction,Conductor*%
%TO.N,485_TX*%
G36*
X165164168Y-102471371D02*
G01*
X165546497Y-102633476D01*
X165552775Y-102639860D01*
X165553629Y-102644247D01*
X165553629Y-102755752D01*
X165550202Y-102764025D01*
X165546496Y-102766524D01*
X165164170Y-102928627D01*
X165155216Y-102928701D01*
X165149894Y-102924384D01*
X165043736Y-102766524D01*
X165003389Y-102706527D01*
X165001617Y-102697752D01*
X165003388Y-102693473D01*
X165149895Y-102475614D01*
X165157355Y-102470662D01*
X165164168Y-102471371D01*
G37*
%TD.AperFunction*%
%TD*%
%TA.AperFunction,Conductor*%
%TO.N,485_TX*%
G36*
X169007126Y-96504476D02*
G01*
X169943699Y-97224117D01*
X169948171Y-97231876D01*
X169946563Y-97239480D01*
X169066919Y-98684119D01*
X169059690Y-98689403D01*
X169056926Y-98689734D01*
X168943074Y-98689734D01*
X168934801Y-98686307D01*
X168933081Y-98684119D01*
X168053436Y-97239480D01*
X168052060Y-97230631D01*
X168056298Y-97224119D01*
X168992872Y-96504476D01*
X169001519Y-96502154D01*
X169007126Y-96504476D01*
G37*
%TD.AperFunction*%
%TD*%
%TA.AperFunction,Conductor*%
%TO.N,485_TX*%
G36*
X166366169Y-102948427D02*
G01*
X166367012Y-102949365D01*
X166618426Y-103261830D01*
X166620942Y-103270424D01*
X166617596Y-103277425D01*
X166308286Y-103587688D01*
X166300018Y-103591128D01*
X166291740Y-103587714D01*
X166291714Y-103587688D01*
X165982403Y-103277425D01*
X165978989Y-103269147D01*
X165981572Y-103261831D01*
X166232988Y-102949365D01*
X166240845Y-102945068D01*
X166242104Y-102945000D01*
X166357896Y-102945000D01*
X166366169Y-102948427D01*
G37*
%TD.AperFunction*%
%TD*%
%TA.AperFunction,Conductor*%
%TO.N,/ESP32/UART_RX*%
G36*
X117630332Y-113253075D02*
G01*
X117919147Y-113419624D01*
X117924600Y-113426724D01*
X117925000Y-113429758D01*
X117925000Y-113670241D01*
X117921573Y-113678514D01*
X117919148Y-113680374D01*
X117640870Y-113840848D01*
X117630341Y-113846920D01*
X117621462Y-113848084D01*
X117619440Y-113847335D01*
X117021016Y-113560551D01*
X117015036Y-113553885D01*
X117015521Y-113544944D01*
X117021016Y-113539449D01*
X117619441Y-113252663D01*
X117628381Y-113252179D01*
X117630332Y-113253075D01*
G37*
%TD.AperFunction*%
%TD*%
%TA.AperFunction,Conductor*%
%TO.N,/ESP32/UART_RX*%
G36*
X122527306Y-112412775D02*
G01*
X122528375Y-112414140D01*
X122998295Y-113115960D01*
X123000050Y-113124741D01*
X123000046Y-113124766D01*
X122834034Y-113954435D01*
X122829050Y-113961875D01*
X122820265Y-113963612D01*
X122820247Y-113963608D01*
X121409373Y-113678894D01*
X121401941Y-113673898D01*
X121399987Y-113667425D01*
X121399987Y-113428171D01*
X121403414Y-113419898D01*
X121403798Y-113419531D01*
X122510779Y-112411996D01*
X122519203Y-112408963D01*
X122527306Y-112412775D01*
G37*
%TD.AperFunction*%
%TD*%
%TA.AperFunction,Conductor*%
%TO.N,INPUT_3*%
G36*
X104505934Y-118909651D02*
G01*
X104508122Y-118911371D01*
X104588628Y-118991877D01*
X104592055Y-119000150D01*
X104591724Y-119002914D01*
X104192213Y-120646430D01*
X104186929Y-120653659D01*
X104179325Y-120655267D01*
X103008207Y-120501874D01*
X103000448Y-120497402D01*
X102998125Y-120491792D01*
X102844732Y-119320674D01*
X102847055Y-119312026D01*
X102853567Y-119307786D01*
X104497087Y-118908275D01*
X104505934Y-118909651D01*
G37*
%TD.AperFunction*%
%TD*%
%TA.AperFunction,Conductor*%
%TO.N,INPUT_3*%
G36*
X124350105Y-99975615D02*
G01*
X124496609Y-100193471D01*
X124498382Y-100202248D01*
X124496609Y-100206529D01*
X124350105Y-100424384D01*
X124342644Y-100429337D01*
X124335829Y-100428627D01*
X123953504Y-100266524D01*
X123947225Y-100260139D01*
X123946371Y-100255752D01*
X123946371Y-100144247D01*
X123949798Y-100135974D01*
X123953501Y-100133476D01*
X124335831Y-99971371D01*
X124344783Y-99971298D01*
X124350105Y-99975615D01*
G37*
%TD.AperFunction*%
%TD*%
%TA.AperFunction,Conductor*%
%TO.N,INPUT_3*%
G36*
X94550105Y-121175615D02*
G01*
X94696609Y-121393471D01*
X94698382Y-121402248D01*
X94696609Y-121406529D01*
X94550105Y-121624384D01*
X94542644Y-121629337D01*
X94535829Y-121628627D01*
X94153504Y-121466524D01*
X94147225Y-121460139D01*
X94146371Y-121455752D01*
X94146371Y-121344247D01*
X94149798Y-121335974D01*
X94153501Y-121333476D01*
X94535831Y-121171371D01*
X94544783Y-121171298D01*
X94550105Y-121175615D01*
G37*
%TD.AperFunction*%
%TD*%
%TA.AperFunction,Conductor*%
%TO.N,/USB UART/DTR*%
G36*
X145566169Y-113128427D02*
G01*
X145567012Y-113129365D01*
X145818426Y-113441830D01*
X145820942Y-113450424D01*
X145817596Y-113457425D01*
X145508286Y-113767688D01*
X145500018Y-113771128D01*
X145491740Y-113767714D01*
X145491714Y-113767688D01*
X145182403Y-113457425D01*
X145178989Y-113449147D01*
X145181572Y-113441831D01*
X145432988Y-113129365D01*
X145440845Y-113125068D01*
X145442104Y-113125000D01*
X145557896Y-113125000D01*
X145566169Y-113128427D01*
G37*
%TD.AperFunction*%
%TD*%
%TA.AperFunction,Conductor*%
%TO.N,/USB UART/DTR*%
G36*
X147915592Y-112828427D02*
G01*
X147916983Y-112830104D01*
X148046557Y-113019955D01*
X148048390Y-113028721D01*
X148047829Y-113030709D01*
X147860936Y-113522238D01*
X147854793Y-113528753D01*
X147845842Y-113529016D01*
X147839327Y-113522873D01*
X147839064Y-113522238D01*
X147812124Y-113451386D01*
X147652170Y-113030707D01*
X147652433Y-113021758D01*
X147653436Y-113019964D01*
X147783017Y-112830104D01*
X147790511Y-112825203D01*
X147792681Y-112825000D01*
X147907319Y-112825000D01*
X147915592Y-112828427D01*
G37*
%TD.AperFunction*%
%TD*%
%TA.AperFunction,Conductor*%
%TO.N,/USB UART/DTR*%
G36*
X147915592Y-112828427D02*
G01*
X147916983Y-112830104D01*
X148046557Y-113019955D01*
X148048390Y-113028721D01*
X148047829Y-113030709D01*
X147860936Y-113522238D01*
X147854793Y-113528753D01*
X147845842Y-113529016D01*
X147839327Y-113522873D01*
X147839064Y-113522238D01*
X147812124Y-113451386D01*
X147652170Y-113030707D01*
X147652433Y-113021758D01*
X147653436Y-113019964D01*
X147783017Y-112830104D01*
X147790511Y-112825203D01*
X147792681Y-112825000D01*
X147907319Y-112825000D01*
X147915592Y-112828427D01*
G37*
%TD.AperFunction*%
%TD*%
%TA.AperFunction,Conductor*%
%TO.N,/USB UART/DTR*%
G36*
X147903995Y-111801687D02*
G01*
X147904058Y-111801729D01*
X148123519Y-111949312D01*
X148128472Y-111956773D01*
X148127244Y-111964656D01*
X147916833Y-112347564D01*
X147909845Y-112353164D01*
X147906579Y-112353629D01*
X147795025Y-112353629D01*
X147786752Y-112350202D01*
X147783888Y-112345513D01*
X147629879Y-111866981D01*
X147630606Y-111858056D01*
X147637432Y-111852260D01*
X147638680Y-111851933D01*
X147895206Y-111799971D01*
X147903995Y-111801687D01*
G37*
%TD.AperFunction*%
%TD*%
%TA.AperFunction,Conductor*%
%TO.N,/USB UART/RTS*%
G36*
X151508260Y-115232285D02*
G01*
X151508286Y-115232311D01*
X151817596Y-115542574D01*
X151821010Y-115550852D01*
X151818426Y-115558169D01*
X151567012Y-115870635D01*
X151559155Y-115874932D01*
X151557896Y-115875000D01*
X151442104Y-115875000D01*
X151433831Y-115871573D01*
X151432988Y-115870635D01*
X151181573Y-115558169D01*
X151179057Y-115549575D01*
X151182403Y-115542574D01*
X151491714Y-115232311D01*
X151499982Y-115228871D01*
X151508260Y-115232285D01*
G37*
%TD.AperFunction*%
%TD*%
%TA.AperFunction,Conductor*%
%TO.N,/USB UART/RTS*%
G36*
X172050105Y-123075615D02*
G01*
X172196609Y-123293471D01*
X172198382Y-123302248D01*
X172196609Y-123306529D01*
X172050105Y-123524384D01*
X172042644Y-123529337D01*
X172035829Y-123528627D01*
X171653504Y-123366524D01*
X171647225Y-123360139D01*
X171646371Y-123355752D01*
X171646371Y-123244247D01*
X171649798Y-123235974D01*
X171653501Y-123233476D01*
X172035831Y-123071371D01*
X172044783Y-123071298D01*
X172050105Y-123075615D01*
G37*
%TD.AperFunction*%
%TD*%
%TA.AperFunction,Conductor*%
%TO.N,/USB UART/RTS*%
G36*
X151956943Y-114905587D02*
G01*
X152080570Y-115005059D01*
X152270635Y-115157988D01*
X152274932Y-115165844D01*
X152275000Y-115167103D01*
X152275000Y-115282896D01*
X152271573Y-115291169D01*
X152270635Y-115292012D01*
X151956943Y-115544412D01*
X151948349Y-115546928D01*
X151942768Y-115544788D01*
X151770203Y-115420434D01*
X151512170Y-115234490D01*
X151507462Y-115226875D01*
X151509519Y-115218160D01*
X151512168Y-115215510D01*
X151942769Y-114905210D01*
X151951483Y-114903154D01*
X151956943Y-114905587D01*
G37*
%TD.AperFunction*%
%TD*%
%TA.AperFunction,Conductor*%
%TO.N,/USB UART/RTS*%
G36*
X156486195Y-114435950D02*
G01*
X156997676Y-115493131D01*
X156998194Y-115502071D01*
X156996054Y-115505810D01*
X156234345Y-116400792D01*
X156226373Y-116404871D01*
X156218074Y-116402303D01*
X154846322Y-115292011D01*
X154842047Y-115284143D01*
X154841983Y-115282917D01*
X154841983Y-115169072D01*
X154845410Y-115160799D01*
X154848888Y-115158400D01*
X156470873Y-114430371D01*
X156479823Y-114430111D01*
X156486195Y-114435950D01*
G37*
%TD.AperFunction*%
%TD*%
%TA.AperFunction,Conductor*%
%TO.N,/USB UART/RTS*%
G36*
X149160673Y-115477126D02*
G01*
X149160936Y-115477761D01*
X149347829Y-115969290D01*
X149347566Y-115978241D01*
X149346557Y-115980044D01*
X149216983Y-116169896D01*
X149209489Y-116174797D01*
X149207319Y-116175000D01*
X149092681Y-116175000D01*
X149084408Y-116171573D01*
X149083017Y-116169896D01*
X149021436Y-116079669D01*
X148953441Y-115980042D01*
X148951609Y-115971278D01*
X148952166Y-115969301D01*
X149139064Y-115477760D01*
X149145207Y-115471246D01*
X149154158Y-115470983D01*
X149160673Y-115477126D01*
G37*
%TD.AperFunction*%
%TD*%
%TA.AperFunction,Conductor*%
%TO.N,Net-(IC5-RSTB)*%
G36*
X171058601Y-117126811D02*
G01*
X171369763Y-117333029D01*
X171374766Y-117340456D01*
X171375000Y-117342782D01*
X171375000Y-117458549D01*
X171371573Y-117466822D01*
X171371446Y-117466947D01*
X171057649Y-117771314D01*
X171049325Y-117774615D01*
X171041901Y-117771809D01*
X170732919Y-117507626D01*
X170728859Y-117499646D01*
X170731629Y-117491132D01*
X171043270Y-117128932D01*
X171051263Y-117124897D01*
X171058601Y-117126811D01*
G37*
%TD.AperFunction*%
%TD*%
%TA.AperFunction,Conductor*%
%TO.N,Net-(IC5-RSTB)*%
G36*
X171750105Y-117175615D02*
G01*
X171896609Y-117393471D01*
X171898382Y-117402248D01*
X171896609Y-117406529D01*
X171750105Y-117624384D01*
X171742644Y-117629337D01*
X171735829Y-117628627D01*
X171353504Y-117466524D01*
X171347225Y-117460139D01*
X171346371Y-117455752D01*
X171346371Y-117344247D01*
X171349798Y-117335974D01*
X171353501Y-117333476D01*
X171735831Y-117171371D01*
X171744783Y-117171298D01*
X171750105Y-117175615D01*
G37*
%TD.AperFunction*%
%TD*%
%TA.AperFunction,Conductor*%
%TO.N,Net-(IC6-ISENA)*%
G36*
X172758145Y-73931346D02*
G01*
X173320491Y-74369487D01*
X173324911Y-74377274D01*
X173325000Y-74378715D01*
X173325000Y-74621284D01*
X173321573Y-74629557D01*
X173320491Y-74630513D01*
X172758147Y-75068652D01*
X172749515Y-75071034D01*
X172742690Y-75067703D01*
X172303782Y-74629557D01*
X172182293Y-74508279D01*
X172178860Y-74500010D01*
X172182280Y-74491734D01*
X172182294Y-74491720D01*
X172742692Y-73932295D01*
X172750966Y-73928876D01*
X172758145Y-73931346D01*
G37*
%TD.AperFunction*%
%TD*%
%TA.AperFunction,Conductor*%
%TO.N,Net-(IC6-ISENA)*%
G36*
X173285853Y-74377808D02*
G01*
X173744568Y-74522724D01*
X173751424Y-74528484D01*
X173752526Y-74536123D01*
X173701936Y-74795206D01*
X173696987Y-74802669D01*
X173696934Y-74802705D01*
X173477810Y-74948491D01*
X173469024Y-74950221D01*
X173461588Y-74945231D01*
X173461310Y-74944793D01*
X173272301Y-74629778D01*
X173270634Y-74623758D01*
X173270634Y-74388966D01*
X173274061Y-74380693D01*
X173282334Y-74377266D01*
X173285853Y-74377808D01*
G37*
%TD.AperFunction*%
%TD*%
%TA.AperFunction,Conductor*%
%TO.N,Net-(IC6-ISENB)*%
G36*
X173477370Y-71851247D02*
G01*
X173478240Y-71851771D01*
X173698731Y-71997983D01*
X173702016Y-72001268D01*
X173848228Y-72221759D01*
X173849944Y-72230548D01*
X173844943Y-72237976D01*
X173844073Y-72238500D01*
X173406010Y-72477092D01*
X173397106Y-72478040D01*
X173392141Y-72475090D01*
X173224909Y-72307858D01*
X173221482Y-72299585D01*
X173222906Y-72293990D01*
X173461499Y-71855925D01*
X173468466Y-71850299D01*
X173477370Y-71851247D01*
G37*
%TD.AperFunction*%
%TD*%
%TA.AperFunction,Conductor*%
%TO.N,Net-(IC6-ISENB)*%
G36*
X172758241Y-71932290D02*
G01*
X173198317Y-72321572D01*
X173198838Y-72322062D01*
X173369186Y-72492410D01*
X173372613Y-72500683D01*
X173369186Y-72508956D01*
X173368458Y-72509625D01*
X172757887Y-73024845D01*
X172749355Y-73027561D01*
X172742411Y-73024505D01*
X172719367Y-73003259D01*
X172183249Y-72508964D01*
X172179491Y-72500839D01*
X172182579Y-72492433D01*
X172182882Y-72492117D01*
X172742219Y-71932780D01*
X172750491Y-71929354D01*
X172758241Y-71932290D01*
G37*
%TD.AperFunction*%
%TD*%
%TA.AperFunction,Conductor*%
%TO.N,Net-(J1-Pad1)*%
G36*
X185008266Y-92507277D02*
G01*
X185536306Y-93036007D01*
X185757087Y-93257077D01*
X185760508Y-93265353D01*
X185757431Y-93273253D01*
X185066977Y-94026208D01*
X185058860Y-94029989D01*
X185058354Y-94030000D01*
X184941646Y-94030000D01*
X184933373Y-94026573D01*
X184933023Y-94026208D01*
X184242568Y-93273253D01*
X184239502Y-93264839D01*
X184242911Y-93257078D01*
X184991722Y-92507288D01*
X184999992Y-92503857D01*
X185008266Y-92507277D01*
G37*
%TD.AperFunction*%
%TD*%
%TA.AperFunction,Conductor*%
%TO.N,Net-(J1-Pad1)*%
G36*
X187066522Y-97178427D02*
G01*
X187066991Y-97178924D01*
X187567671Y-97741761D01*
X187570609Y-97750220D01*
X187567209Y-97757803D01*
X187008280Y-98317705D01*
X187000010Y-98321139D01*
X186991734Y-98317719D01*
X186991720Y-98317705D01*
X186432790Y-97757803D01*
X186429370Y-97749527D01*
X186432327Y-97741763D01*
X186933009Y-97178923D01*
X186941068Y-97175020D01*
X186941751Y-97175000D01*
X187058249Y-97175000D01*
X187066522Y-97178427D01*
G37*
%TD.AperFunction*%
%TD*%
%TA.AperFunction,Conductor*%
%TO.N,Net-(Q1-A)*%
G36*
X86750105Y-83675615D02*
G01*
X86896609Y-83893471D01*
X86898382Y-83902248D01*
X86896609Y-83906529D01*
X86750105Y-84124384D01*
X86742644Y-84129337D01*
X86735829Y-84128627D01*
X86353504Y-83966524D01*
X86347225Y-83960139D01*
X86346371Y-83955752D01*
X86346371Y-83844247D01*
X86349798Y-83835974D01*
X86353501Y-83833476D01*
X86735831Y-83671371D01*
X86744783Y-83671298D01*
X86750105Y-83675615D01*
G37*
%TD.AperFunction*%
%TD*%
%TA.AperFunction,Conductor*%
%TO.N,Net-(Q1-A)*%
G36*
X73566501Y-85103427D02*
G01*
X73566992Y-85103948D01*
X74045189Y-85644561D01*
X74048103Y-85653028D01*
X74047261Y-85656725D01*
X73510836Y-86974382D01*
X73504543Y-86980752D01*
X73495588Y-86980806D01*
X73489218Y-86974513D01*
X73489164Y-86974382D01*
X72952738Y-85656725D01*
X72952792Y-85647770D01*
X72954807Y-85644565D01*
X73433008Y-85103948D01*
X73441057Y-85100022D01*
X73441772Y-85100000D01*
X73558228Y-85100000D01*
X73566501Y-85103427D01*
G37*
%TD.AperFunction*%
%TD*%
%TA.AperFunction,Conductor*%
%TO.N,Net-(Q2-A)*%
G36*
X73815828Y-90208722D02*
G01*
X73896839Y-90289733D01*
X73899343Y-90293452D01*
X74048109Y-90645525D01*
X74048173Y-90654480D01*
X74048166Y-90654496D01*
X73513637Y-91965525D01*
X73507340Y-91971892D01*
X73498386Y-91971942D01*
X73492019Y-91965645D01*
X73491361Y-91963551D01*
X73212517Y-90657314D01*
X73214141Y-90648507D01*
X73216935Y-90645513D01*
X73800536Y-90207635D01*
X73809207Y-90205412D01*
X73815828Y-90208722D01*
G37*
%TD.AperFunction*%
%TD*%
%TA.AperFunction,Conductor*%
%TO.N,Net-(Q2-A)*%
G36*
X87150105Y-89675615D02*
G01*
X87296609Y-89893471D01*
X87298382Y-89902248D01*
X87296609Y-89906529D01*
X87150105Y-90124384D01*
X87142644Y-90129337D01*
X87135829Y-90128627D01*
X86753504Y-89966524D01*
X86747225Y-89960139D01*
X86746371Y-89955752D01*
X86746371Y-89844247D01*
X86749798Y-89835974D01*
X86753501Y-89833476D01*
X87135831Y-89671371D01*
X87144783Y-89671298D01*
X87150105Y-89675615D01*
G37*
%TD.AperFunction*%
%TD*%
%TA.AperFunction,Conductor*%
%TO.N,Net-(Q3-A)*%
G36*
X73534082Y-95092673D02*
G01*
X73534392Y-95092972D01*
X73615410Y-95173990D01*
X73615778Y-95174374D01*
X74045015Y-95644540D01*
X74048062Y-95652961D01*
X74047208Y-95656846D01*
X73510665Y-96972812D01*
X73504368Y-96979179D01*
X73495414Y-96979229D01*
X73489047Y-96972932D01*
X73488863Y-96972468D01*
X73002929Y-95656744D01*
X73003277Y-95647799D01*
X73005329Y-95644734D01*
X73517549Y-95093280D01*
X73525688Y-95089553D01*
X73534082Y-95092673D01*
G37*
%TD.AperFunction*%
%TD*%
%TA.AperFunction,Conductor*%
%TO.N,Net-(Q3-A)*%
G36*
X86850105Y-94475615D02*
G01*
X86996609Y-94693471D01*
X86998382Y-94702248D01*
X86996609Y-94706529D01*
X86850105Y-94924384D01*
X86842644Y-94929337D01*
X86835829Y-94928627D01*
X86453504Y-94766524D01*
X86447225Y-94760139D01*
X86446371Y-94755752D01*
X86446371Y-94644247D01*
X86449798Y-94635974D01*
X86453501Y-94633476D01*
X86835831Y-94471371D01*
X86844783Y-94471298D01*
X86850105Y-94475615D01*
G37*
%TD.AperFunction*%
%TD*%
%TA.AperFunction,Conductor*%
%TO.N,Net-(Q4-A)*%
G36*
X73566501Y-105603427D02*
G01*
X73566992Y-105603948D01*
X74045189Y-106144561D01*
X74048103Y-106153028D01*
X74047261Y-106156725D01*
X73510836Y-107474382D01*
X73504543Y-107480752D01*
X73495588Y-107480806D01*
X73489218Y-107474513D01*
X73489164Y-107474382D01*
X72952738Y-106156725D01*
X72952792Y-106147770D01*
X72954807Y-106144565D01*
X73433008Y-105603948D01*
X73441057Y-105600022D01*
X73441772Y-105600000D01*
X73558228Y-105600000D01*
X73566501Y-105603427D01*
G37*
%TD.AperFunction*%
%TD*%
%TA.AperFunction,Conductor*%
%TO.N,Net-(Q4-A)*%
G36*
X86942595Y-104830049D02*
G01*
X86947791Y-104837342D01*
X86947857Y-104837645D01*
X87000028Y-105095206D01*
X86998312Y-105103995D01*
X86998270Y-105104058D01*
X86851408Y-105322446D01*
X86843947Y-105327399D01*
X86835170Y-105325626D01*
X86834935Y-105325464D01*
X86470142Y-105066997D01*
X86465373Y-105059418D01*
X86465206Y-105057450D01*
X86465206Y-104945810D01*
X86468633Y-104937537D01*
X86474277Y-104934410D01*
X86933766Y-104828567D01*
X86942595Y-104830049D01*
G37*
%TD.AperFunction*%
%TD*%
%TA.AperFunction,Conductor*%
%TO.N,Net-(Q5-A)*%
G36*
X86760607Y-110266529D02*
G01*
X86942872Y-110340255D01*
X87145577Y-110422250D01*
X87151962Y-110428529D01*
X87152672Y-110435344D01*
X87102219Y-110692985D01*
X87097266Y-110700446D01*
X87092985Y-110702219D01*
X86835344Y-110752672D01*
X86826567Y-110750899D01*
X86822250Y-110745577D01*
X86803994Y-110700446D01*
X86696760Y-110435344D01*
X86666529Y-110360607D01*
X86666603Y-110351653D01*
X86669099Y-110347950D01*
X86747948Y-110269101D01*
X86756220Y-110265675D01*
X86760607Y-110266529D01*
G37*
%TD.AperFunction*%
%TD*%
%TA.AperFunction,Conductor*%
%TO.N,Net-(Q5-A)*%
G36*
X73566501Y-110603427D02*
G01*
X73566992Y-110603948D01*
X74045189Y-111144561D01*
X74048103Y-111153028D01*
X74047261Y-111156725D01*
X73510836Y-112474382D01*
X73504543Y-112480752D01*
X73495588Y-112480806D01*
X73489218Y-112474513D01*
X73489164Y-112474382D01*
X72952738Y-111156725D01*
X72952792Y-111147770D01*
X72954807Y-111144565D01*
X73433008Y-110603948D01*
X73441057Y-110600022D01*
X73441772Y-110600000D01*
X73558228Y-110600000D01*
X73566501Y-110603427D01*
G37*
%TD.AperFunction*%
%TD*%
%TA.AperFunction,Conductor*%
%TO.N,Net-(Q6-A)*%
G36*
X73534082Y-115592673D02*
G01*
X73534392Y-115592972D01*
X73615410Y-115673990D01*
X73615778Y-115674374D01*
X74045015Y-116144540D01*
X74048062Y-116152961D01*
X74047208Y-116156846D01*
X73510665Y-117472812D01*
X73504368Y-117479179D01*
X73495414Y-117479229D01*
X73489047Y-117472932D01*
X73488863Y-117472468D01*
X73002929Y-116156744D01*
X73003277Y-116147799D01*
X73005329Y-116144734D01*
X73517549Y-115593280D01*
X73525688Y-115589553D01*
X73534082Y-115592673D01*
G37*
%TD.AperFunction*%
%TD*%
%TA.AperFunction,Conductor*%
%TO.N,Net-(Q6-A)*%
G36*
X86950105Y-114875615D02*
G01*
X87096609Y-115093471D01*
X87098382Y-115102248D01*
X87096609Y-115106529D01*
X86950105Y-115324384D01*
X86942644Y-115329337D01*
X86935829Y-115328627D01*
X86553504Y-115166524D01*
X86547225Y-115160139D01*
X86546371Y-115155752D01*
X86546371Y-115044247D01*
X86549798Y-115035974D01*
X86553501Y-115033476D01*
X86935831Y-114871371D01*
X86944783Y-114871298D01*
X86950105Y-114875615D01*
G37*
%TD.AperFunction*%
%TD*%
%TA.AperFunction,Conductor*%
%TO.N,Net-(Q7-B1)*%
G36*
X145956943Y-114905587D02*
G01*
X146080570Y-115005059D01*
X146270635Y-115157988D01*
X146274932Y-115165844D01*
X146275000Y-115167103D01*
X146275000Y-115282896D01*
X146271573Y-115291169D01*
X146270635Y-115292012D01*
X145956943Y-115544412D01*
X145948349Y-115546928D01*
X145942768Y-115544788D01*
X145770203Y-115420434D01*
X145512170Y-115234490D01*
X145507462Y-115226875D01*
X145509519Y-115218160D01*
X145512168Y-115215510D01*
X145942769Y-114905210D01*
X145951483Y-114903154D01*
X145956943Y-114905587D01*
G37*
%TD.AperFunction*%
%TD*%
%TA.AperFunction,Conductor*%
%TO.N,Net-(Q7-B1)*%
G36*
X148565592Y-114728427D02*
G01*
X148566983Y-114730104D01*
X148696557Y-114919955D01*
X148698390Y-114928721D01*
X148697829Y-114930709D01*
X148510936Y-115422238D01*
X148504793Y-115428753D01*
X148495842Y-115429016D01*
X148489327Y-115422873D01*
X148489064Y-115422238D01*
X148462124Y-115351386D01*
X148302170Y-114930707D01*
X148302433Y-114921758D01*
X148303436Y-114919964D01*
X148433017Y-114730104D01*
X148440511Y-114725203D01*
X148442681Y-114725000D01*
X148557319Y-114725000D01*
X148565592Y-114728427D01*
G37*
%TD.AperFunction*%
%TD*%
%TA.AperFunction,Conductor*%
%TO.N,Net-(Q7-B2)*%
G36*
X151057231Y-113455211D02*
G01*
X151487828Y-113765508D01*
X151492537Y-113773125D01*
X151490480Y-113781840D01*
X151487828Y-113784492D01*
X151057231Y-114094788D01*
X151048516Y-114096845D01*
X151043056Y-114094412D01*
X150729365Y-113842012D01*
X150725068Y-113834155D01*
X150725000Y-113832896D01*
X150725000Y-113717103D01*
X150728427Y-113708830D01*
X150729355Y-113707995D01*
X151043056Y-113455586D01*
X151051650Y-113453071D01*
X151057231Y-113455211D01*
G37*
%TD.AperFunction*%
%TD*%
%TA.AperFunction,Conductor*%
%TO.N,Net-(Q7-B2)*%
G36*
X148510855Y-113579830D02*
G01*
X148511457Y-113581155D01*
X148697668Y-114068894D01*
X148697418Y-114077845D01*
X148696023Y-114080186D01*
X148598400Y-114207522D01*
X148597388Y-114208676D01*
X148517612Y-114288452D01*
X148509339Y-114291879D01*
X148501066Y-114288452D01*
X148500025Y-114287259D01*
X148342473Y-114079764D01*
X148340200Y-114071105D01*
X148340599Y-114069286D01*
X148489338Y-113581911D01*
X148495029Y-113575000D01*
X148503942Y-113574138D01*
X148510855Y-113579830D01*
G37*
%TD.AperFunction*%
%TD*%
M02*
