M48
; DRILL file {KiCad 9.0.6} date 2026-02-25T18:27:10-0500
; FORMAT={-:-/ absolute / metric / decimal}
; #@! TF.CreationDate,2026-02-25T18:27:10-05:00
; #@! TF.GenerationSoftware,Kicad,Pcbnew,9.0.6
; #@! TF.FileFunction,Plated,1,6,PTH
FMAT,2
METRIC
; #@! TA.AperFunction,Plated,PTH,ViaDrill
T1C0.254
; #@! TA.AperFunction,Plated,PTH,ViaDrill
T2C0.457
; #@! TA.AperFunction,Plated,PTH,ComponentDrill
T3C0.600
; #@! TA.AperFunction,Plated,PTH,ComponentDrill
T4C1.020
; #@! TA.AperFunction,Plated,PTH,ComponentDrill
T5C1.150
; #@! TA.AperFunction,Plated,PTH,ComponentDrill
T6C1.600
; #@! TA.AperFunction,Plated,PTH,ComponentDrill
T7C1.700
; #@! TA.AperFunction,Plated,PTH,ComponentDrill
T8C3.400
%
G90
G05
T1
X86.9Y-83.9
X87.0Y-94.7
X87.0Y-105.1
X87.1Y-110.7
X87.1Y-115.1
X87.3Y-89.9
X91.3Y-85.0
X91.3Y-90.6
X91.3Y-95.7
X91.3Y-106.2
X91.3Y-111.5
X91.3Y-117.8
X94.6Y-99.6
X94.7Y-89.4
X94.7Y-110.0
X94.7Y-121.4
X94.9Y-115.5
X95.0Y-94.4
X95.2Y-85.0
X95.2Y-90.6
X95.2Y-95.6
X95.2Y-106.0
X95.2Y-111.5
X95.2Y-117.6
X115.9Y-59.2
X124.5Y-100.2
X125.8Y-124.5
X127.5Y-96.4
X127.5Y-103.7
X128.0Y-111.6
X129.0Y-92.9
X129.4Y-103.7
X129.8Y-97.954
X130.3Y-129.4
X130.5Y-103.6
X131.1Y-122.7
X132.0Y-97.0
X132.5Y-101.4
X132.5Y-105.3
X133.6Y-87.6
X133.6Y-108.3
X133.7Y-114.3
X134.9Y-108.1
X135.0Y-111.0
X135.0Y-115.2
X135.11Y-104.5
X135.2Y-89.8
X136.2Y-108.2
X136.3Y-90.7
X137.5Y-119.5
X137.5Y-125.7
X137.6Y-108.4
X138.7Y-57.5
X138.7Y-81.4
X138.8Y-108.4
X141.0Y-101.9
X141.3Y-64.2
X142.6Y-108.2
X143.3Y-101.8
X143.8Y-108.4
X144.0Y-58.7
X145.1Y-122.3
X145.5Y-119.9
X146.1Y-110.7
X146.4Y-121.4
X147.9Y-111.8
X149.5Y-111.254
X150.95Y-126.75
X152.2Y-73.2
X153.4Y-123.4
X157.7Y-72.5
X159.2Y-124.0
X159.8Y-124.7
X162.9Y-103.7
X163.8Y-81.0
X165.0Y-102.7
X169.3Y-116.3
X171.9Y-117.4
X172.2Y-123.3
X173.7Y-72.0
X173.7Y-74.8
X177.5Y-116.2
X179.6Y-120.9
X181.5Y-116.1
X181.8Y-121.9
X184.549Y-119.25
X184.7Y-120.7
X185.0Y-108.1
T2
X100.0Y-64.1
X100.0Y-67.6
X100.4Y-74.2
X100.4Y-75.8
X100.4Y-77.9
X100.4Y-80.4
X100.4Y-82.1
X100.5Y-89.2
X100.5Y-90.8
X101.2Y-65.9
X102.4Y-67.6
X102.5Y-64.1
X102.5Y-80.4
X103.0Y-89.2
X103.0Y-91.0
X103.2Y-74.2
X103.2Y-75.7
X103.3Y-78.1
X103.4Y-82.1
X104.9Y-70.3
X104.9Y-72.0
X104.9Y-74.0
X104.9Y-75.7
X105.0Y-85.4
X105.0Y-87.1
X105.0Y-89.1
X105.0Y-90.8
X107.0Y-64.5
X107.0Y-79.4
X107.9Y-68.9
X107.9Y-70.3
X107.9Y-72.0
X107.9Y-74.0
X107.9Y-75.7
X108.0Y-84.0
X108.0Y-85.4
X108.0Y-87.1
X108.0Y-89.1
X108.0Y-90.8
X110.4Y-70.2
X110.4Y-72.0
X110.4Y-74.0
X110.4Y-75.7
X110.5Y-85.3
X110.5Y-87.1
X110.5Y-89.1
X110.5Y-90.8
X112.7Y-70.0
X112.7Y-72.0
X112.7Y-74.0
X112.7Y-75.7
X112.8Y-85.1
X112.8Y-87.1
X112.8Y-89.1
X112.8Y-90.8
X113.1Y-78.4
X113.8Y-63.9
X113.9Y-65.6
X114.8Y-78.4
X114.9Y-90.8
X115.0Y-72.2
X115.0Y-87.4
X115.0Y-89.1
X115.2Y-65.6
X115.3Y-113.4
X115.3Y-114.5
X115.3Y-115.7
X116.7Y-65.6
X116.9Y-72.2
X117.0Y-87.4
X117.0Y-89.1
X117.0Y-90.8
X118.3Y-65.6
X119.0Y-72.2
X119.0Y-87.4
X119.1Y-89.2
X119.1Y-90.8
X120.0Y-65.6
X126.5Y-133.6
X127.5Y-109.8
X128.0Y-108.8
X128.0Y-133.6
X128.5Y-109.8
X129.8Y-133.6
X137.5Y-111.3
X137.6Y-114.0
X137.6Y-116.6
X139.4Y-67.3
X140.3Y-111.3
X140.3Y-116.6
X141.2Y-130.1
X141.7Y-67.3
X142.4Y-130.1
X142.4Y-131.4
X143.0Y-116.6
X143.1Y-111.3
X143.1Y-114.0
X144.4Y-67.3
X146.4Y-64.9
X146.5Y-99.8
X146.5Y-104.4
X146.7Y-67.3
X147.3Y-60.5
X147.3Y-61.9
X147.3Y-63.3
X147.7Y-122.8
X147.9Y-108.1
X148.5Y-99.8
X148.5Y-104.4
X149.4Y-133.5
X149.5Y-122.8
X149.5Y-124.6
X149.7Y-106.4
X149.7Y-108.1
X150.5Y-99.8
X150.5Y-104.4
X151.0Y-133.5
X152.6Y-133.5
X154.2Y-70.6
X155.0Y-70.2
X155.0Y-71.1
X155.3Y-58.6
X155.3Y-60.0
X155.3Y-61.3
X158.2Y-83.1
X158.2Y-84.3
X158.2Y-85.4
X161.7Y-83.6
X161.7Y-85.1
X162.0Y-69.4
X162.0Y-71.7
X162.0Y-72.9
X162.0Y-74.4
X162.0Y-75.6
X162.0Y-77.5
X162.6Y-83.6
X163.8Y-67.5
X163.8Y-69.4
X163.9Y-71.7
X163.9Y-72.9
X163.9Y-74.4
X163.9Y-75.6
X163.9Y-77.5
X167.5Y-82.5
X168.3Y-81.8
X168.3Y-83.1
X169.2Y-70.8
X169.4Y-107.5
X169.4Y-109.4
X169.5Y-111.5
X169.7Y-113.3
X170.1Y-76.5
X171.4Y-102.3
X172.4Y-66.7
X172.4Y-67.8
X172.4Y-68.8
X173.3Y-102.3
X173.3Y-103.6
X173.9Y-118.9
X173.9Y-121.1
X174.6Y-111.6
X176.1Y-118.9
X176.2Y-121.1
X176.3Y-113.5
X176.4Y-109.7
X176.4Y-111.6
X178.7Y-118.6
X179.0Y-116.3
X179.2Y-112.8
X179.6Y-126.9
X180.1Y-116.3
X180.8Y-125.7
X180.8Y-126.9
X186.0Y-115.9
X186.0Y-123.1
X186.8Y-120.8
X188.0Y-104.4
X188.0Y-106.6
X189.1Y-105.4
T4
X91.0Y-102.0
X91.0Y-124.0
X93.54Y-102.0
X93.54Y-124.0
X185.0Y-92.5
X187.54Y-92.5
T5
X123.0Y-105.5
X123.0Y-108.04
X123.0Y-110.58
X123.0Y-113.12
X123.0Y-115.66
X123.0Y-118.2
T6
X103.0Y-93.5
X103.0Y-98.5
X103.0Y-103.5
X103.0Y-110.5
X103.0Y-115.5
X103.0Y-120.5
X112.0Y-93.5
X112.0Y-110.5
X129.0Y-58.0
X131.0Y-65.5
X131.0Y-74.0
X131.0Y-82.5
X134.0Y-58.0
X147.0Y-82.5
X147.0Y-89.5
X152.0Y-82.5
X152.0Y-89.5
X154.0Y-96.5
X157.0Y-89.5
X157.0Y-105.5
X157.0Y-110.5
X157.0Y-115.5
X157.0Y-120.5
X159.0Y-96.5
X161.0Y-128.0
X162.0Y-89.5
X164.0Y-96.5
X165.0Y-110.5
X165.0Y-115.5
X166.0Y-128.0
X167.0Y-89.5
X169.0Y-96.5
X171.0Y-128.0
X172.0Y-83.5
X172.0Y-89.5
X176.0Y-128.0
T7
X79.5Y-68.5
X79.5Y-73.5
X79.5Y-87.0
X79.5Y-92.0
X79.5Y-97.0
X79.5Y-102.0
X79.5Y-107.5
X79.5Y-112.5
X79.5Y-117.5
X79.5Y-122.5
X182.5Y-65.5
X182.5Y-70.5
X182.5Y-75.5
X182.5Y-80.5
X182.5Y-98.5
X182.5Y-103.5
X182.5Y-108.5
T8
X76.05Y-55.55
X76.05Y-130.55
X186.05Y-55.55
X186.05Y-130.55
T3
G00X183.27Y-115.18
M15
G01X184.37Y-115.18
M16
G05
G00X183.27Y-123.82
M15
G01X184.37Y-123.82
M16
G05
G00X187.6Y-115.18
M15
G01X188.4Y-115.18
M16
G05
G00X187.6Y-123.82
M15
G01X188.4Y-123.82
M16
G05
M30
